<svg width="14" height="14" viewBox="0 0 14 14" fill="none" xmlns="http://www.w3.org/2000/svg">
<g clip-path="url(#clip0_53_149)">
<path d="M10.3175 -0.277112C10.1645 -0.272663 10.0133 -0.242337 9.87045 -0.187419C9.80382 -0.161793 9.70851 -0.110611 9.5845 -0.0338744C9.49205 0.023285 9.39861 0.0788175 9.30421 0.132697C9.18928 0.236714 9.07381 0.340146 8.95783 0.442991C8.84632 0.55591 8.74815 0.681269 8.66526 0.816603C8.6632 0.820024 8.66194 0.824057 8.66155 0.828437C8.66117 0.832817 8.66167 0.837445 8.66302 0.842015C8.66772 0.857818 8.66359 0.867321 8.65063 0.870525C8.63921 0.87344 8.6303 0.87743 8.62586 0.88163C8.57006 0.937204 8.53102 1.00736 8.51321 1.08408C8.50581 1.11398 8.49364 1.14402 8.47669 1.1742C8.46034 1.20131 8.44824 1.23076 8.44082 1.26154C8.43334 1.29955 8.42597 1.33753 8.41871 1.37547C8.41536 1.38802 8.40929 1.39969 8.40093 1.40963C8.39257 1.41958 8.38213 1.42756 8.37034 1.43302C7.69645 1.24042 6.99586 1.15803 6.29567 1.18904C6.26484 1.19025 6.23423 1.1948 6.20438 1.2026C6.17448 1.21057 6.14472 1.21933 6.11511 1.22887C5.3754 1.26651 4.64861 1.43769 3.96986 1.73414C3.92016 1.71284 3.87866 1.67607 3.85155 1.62928L3.81055 1.55956C3.6996 1.4016 3.57198 1.25605 3.42989 1.1254C3.38212 1.06532 3.303 1.00161 3.19252 0.934271C2.93341 0.776241 2.66775 0.693062 2.39554 0.684733L2.33297 0.687616C2.3048 0.688865 2.27663 0.685252 2.24969 0.676938C2.17284 0.674238 2.09704 0.695306 2.03261 0.737267L1.94569 0.793432C1.7189 0.924412 1.53987 1.10042 1.4086 1.32144C1.25933 1.57344 1.15113 1.84849 1.084 2.14661C1.04257 2.3297 1.02641 2.53265 1.03553 2.75546C1.04357 2.77539 1.04944 2.79589 1.05314 2.81696C1.05613 2.83347 1.05425 2.85405 1.04749 2.87868C1.03831 2.91244 1.03353 2.94726 1.03328 2.98225C1.03286 3.00788 1.04087 3.04083 1.05731 3.08112C1.09077 3.1637 1.10258 3.25033 1.09276 3.34102C1.147 3.57877 1.18982 3.75499 1.22121 3.86967C1.22961 3.90042 1.23 3.92662 1.22239 3.94826L1.19153 4.01254C1.11567 4.08242 1.05022 4.16282 0.997194 4.25129C0.934694 4.3555 0.901735 4.41035 0.898318 4.41583C0.860306 4.47798 0.826849 4.5429 0.797948 4.61059C0.436508 5.21775 0.202063 5.89195 0.108811 6.59237C0.0786194 6.674 0.0658173 6.76103 0.0712256 6.84789C0.0449559 7.02786 0.0345941 7.2098 0.0402603 7.3916L0.0508312 7.71865C0.053038 7.91676 0.0598361 8.05265 0.0712256 8.12633C0.12378 8.46548 0.205592 8.79944 0.315744 9.12448L0.349913 9.1832C0.451217 9.49273 0.578373 9.79319 0.730038 10.0814C0.807558 10.2285 0.867068 10.3285 0.908569 10.3815C1.00986 10.5475 1.12092 10.7074 1.24118 10.8603L1.32276 10.9699C1.37088 11.0342 1.42565 11.0928 1.48709 11.1457C1.55165 11.2241 1.61597 11.3027 1.68003 11.3813C1.78871 11.4723 1.89488 11.5661 1.99844 11.6629C2.10194 11.7594 2.19555 11.8358 2.27926 11.892C2.45339 12.0086 2.63364 12.1159 2.81923 12.2132C2.95326 12.3091 3.09014 12.4009 3.22968 12.4885C3.31639 12.5513 3.41768 12.6049 3.53357 12.6491C3.77076 12.7398 3.99029 12.813 4.19217 12.8687C4.26691 12.8892 4.36728 12.9299 4.49328 12.9909C4.50172 12.9951 4.51126 12.9968 4.52083 12.9959C4.58022 12.9901 4.64006 12.9905 4.69936 12.9972C4.79268 13.0208 4.88611 13.0441 4.97965 13.067C5.05745 13.0859 5.36159 13.113 5.89205 13.1484C6.03954 13.1582 6.18753 13.1579 6.33496 13.1473C6.62556 13.1624 6.91689 13.1547 7.20626 13.1241C7.29489 13.1148 7.40334 13.0953 7.53161 13.0657C7.63942 13.0412 7.74759 13.0183 7.85611 12.9972C7.97278 12.9541 8.09204 12.9184 8.21317 12.8902C8.39827 12.8111 8.58458 12.7349 8.77204 12.6616C8.82443 12.6409 8.88554 12.6096 8.95537 12.5676C9.023 12.5267 9.08568 12.4967 9.14341 12.4776C9.28037 12.4327 9.39782 12.3731 9.49577 12.2987C9.52481 12.2767 9.55934 12.2593 9.59934 12.2467C9.66181 12.2271 9.72023 12.1964 9.77179 12.156C9.90224 12.0882 10.0277 12.0113 10.1472 11.9258C10.2662 11.8401 10.3825 11.7508 10.4958 11.6578C10.6973 11.4941 10.8835 11.3125 11.0523 11.1152C11.1028 11.0559 11.1617 11.0042 11.227 10.9617C11.3107 10.8656 11.3888 10.7649 11.4612 10.6601C11.8157 10.2236 12.1044 9.73751 12.3182 9.21737C12.3397 9.17893 12.3598 9.13989 12.3784 9.10024C12.3906 9.07447 12.4021 9.03275 12.413 8.97509C12.4197 8.93845 12.4312 8.90284 12.4471 8.86917C12.4595 8.84283 12.4689 8.8123 12.4754 8.77756C12.4814 8.74529 12.4927 8.71423 12.5088 8.68562C12.5273 8.65323 12.5386 8.62579 12.5428 8.6033C12.5483 8.57326 12.5535 8.54329 12.5584 8.51339C12.5599 8.50535 12.5579 8.49621 12.5528 8.48777C12.5349 8.45787 12.5423 8.43441 12.5752 8.4174C12.6031 8.37844 12.6167 8.3311 12.6139 8.28329C12.6134 8.27378 12.6154 8.26459 12.6197 8.25681C12.6523 8.19703 12.6695 8.13012 12.6699 8.06205C12.7044 7.86963 12.729 7.67619 12.7438 7.48172C12.744 7.481 12.7499 7.43972 12.7613 7.35785C12.7677 7.31194 12.7677 7.26396 12.7611 7.21392C12.7466 7.10201 12.7448 6.98882 12.7558 6.8765C12.7415 6.82014 12.7404 6.76124 12.7526 6.70438C12.7544 6.69568 12.7534 6.68636 12.7497 6.67769C12.7433 6.6621 12.7389 6.64597 12.7366 6.62932C12.7346 6.6165 12.7373 6.596 12.7447 6.56781C12.7513 6.54269 12.7508 6.52122 12.7432 6.50343C12.7246 6.45837 12.7143 6.41034 12.7127 6.36163C12.7125 6.35506 12.7148 6.34866 12.7192 6.34375C12.7236 6.33884 12.7297 6.3358 12.7362 6.33525C12.8534 6.32657 12.9662 6.28684 13.063 6.22015C13.1318 6.17309 13.198 6.12222 13.2613 6.06778C13.3373 6.02926 13.3967 5.96451 13.4287 5.88551C13.4556 5.84921 13.481 5.81219 13.505 5.77446C13.5096 5.7673 13.5112 5.75792 13.5096 5.74819C13.5051 5.72107 13.5129 5.70281 13.5331 5.69342C13.5431 5.68899 13.5506 5.68313 13.5545 5.67687C13.6554 5.51501 13.7041 5.326 13.6939 5.13551C13.6939 5.12631 13.6958 5.1172 13.6996 5.10881C13.7071 5.09282 13.7081 5.07448 13.7022 5.05778L13.6891 5.01891C13.6648 4.90507 13.6213 4.7962 13.5604 4.69698C13.5536 4.68542 13.544 4.67574 13.5326 4.66879C13.4924 4.64437 13.4691 4.62117 13.4628 4.59917C13.4582 4.58326 13.4476 4.56979 13.4333 4.56158C13.3473 4.51244 13.2659 4.45592 13.1897 4.39266C13.1624 4.36988 13.0939 4.34557 12.9843 4.31973C12.9347 4.32059 12.8853 4.3187 12.836 4.31407C12.7636 4.30746 12.7146 4.30504 12.6891 4.30681C12.5839 4.31393 12.4816 4.34458 12.3897 4.39651C12.3046 4.42252 12.2207 4.45277 12.1386 4.48716C12.135 4.48865 12.131 4.48876 12.1273 4.48746C12.1236 4.48616 12.1206 4.48355 12.1186 4.48011C11.8287 3.94045 11.462 3.44573 11.0299 3.0114C11.0053 2.98677 10.9998 2.95776 11.0133 2.92438L11.1916 2.48499C11.3167 2.15783 11.3977 1.80991 11.4345 1.44125C11.4703 1.08219 11.4269 0.739901 11.3042 0.414374C11.2947 0.393465 11.2833 0.373453 11.2702 0.35458C11.1439 0.108708 10.9619 -0.0764427 10.7242 -0.200873H10.724C10.646 -0.24173 10.5604 -0.266322 10.4726 -0.273161C10.421 -0.277402 10.3692 -0.278757 10.3175 -0.277219V-0.277112ZM10.2721 -0.0804291C10.3227 -0.0783493 10.3731 -0.0717745 10.4225 -0.0607821C10.4552 -0.0532544 10.4874 -0.0438061 10.519 -0.0324863C10.4397 -0.061032 10.3564 -0.077202 10.2721 -0.0804291ZM10.957 0.277273C10.9589 0.284609 10.96 0.292126 10.9603 0.299696C10.9603 0.305552 10.959 0.311331 10.9566 0.316674C10.9578 0.314269 10.9587 0.311615 10.9593 0.308986C10.9606 0.302437 10.9606 0.295701 10.9595 0.289125C10.9589 0.285131 10.9581 0.281174 10.957 0.277273ZM10.0524 0.4258C10.0235 0.4261 9.99465 0.427704 9.96591 0.430605C9.99431 0.427615 10.023 0.425978 10.0523 0.425693L10.0524 0.4258ZM10.1418 0.428896C10.2024 0.433518 10.2625 0.443887 10.3212 0.459861C10.4332 0.49036 10.5374 0.544541 10.6266 0.618745V0.618852C10.5374 0.544648 10.4332 0.490467 10.3212 0.459968C10.2625 0.443957 10.2024 0.433553 10.1418 0.428896ZM9.49983 0.626753C9.42615 0.68662 9.35297 0.747233 9.2803 0.808594C9.18845 0.885564 9.10634 0.973449 9.03578 1.0703C8.96559 1.16761 8.90736 1.27301 8.86237 1.38423L8.74705 1.67551L8.86216 1.38423C8.90821 1.27104 8.96601 1.1664 9.03578 1.0703C9.10622 0.973393 9.18834 0.885436 9.28008 0.808381C9.35283 0.747162 9.42608 0.686548 9.49983 0.626753ZM10.1026 0.578597C10.2395 0.575821 10.3649 0.614688 10.4788 0.695197C10.5186 0.723173 10.5503 0.76236 10.5738 0.812759C10.639 0.950581 10.6904 1.0945 10.7273 1.24243L10.753 1.44861C10.7537 1.45543 10.7582 1.4642 10.7656 1.47317C10.7871 1.49987 10.7878 1.52855 10.7677 1.55923C10.7337 1.61049 10.7235 1.67117 10.7372 1.74129C10.7396 1.754 10.7392 1.76708 10.7362 1.77961C10.7331 1.79215 10.7273 1.80385 10.7192 1.8139C10.7093 1.82533 10.7028 1.83938 10.7007 1.85438C10.6985 1.86937 10.7007 1.88468 10.7069 1.89846C10.6778 1.92438 10.6682 1.95534 10.6783 1.99136L10.6571 2.0912L10.6286 2.16274C10.6278 2.17066 10.6245 2.17812 10.6192 2.18399L10.6196 2.18527L10.619 2.18399C10.6138 2.19804 10.6119 2.21311 10.6136 2.228C10.6153 2.24288 10.6204 2.25717 10.6286 2.26973C10.5773 2.30817 10.5463 2.35814 10.5357 2.41964H10.5355C10.5265 2.45023 10.524 2.48233 10.5282 2.51393C10.5325 2.55165 10.5201 2.55845 10.491 2.53432C10.0148 2.13996 9.49381 1.83536 8.92804 1.62052C8.9259 1.61966 8.92403 1.61842 8.92264 1.61691C8.92125 1.61541 8.92039 1.61371 8.92014 1.61198L8.91928 1.60568L9.06215 1.38423C9.26097 1.06504 9.52464 0.820411 9.85315 0.650351C9.94228 0.604224 10.0254 0.580306 10.1026 0.578597ZM10.7389 0.891239H10.7399V0.891453L10.7389 0.891239ZM2.50979 0.974632C2.51421 0.974214 2.51844 0.974576 2.52229 0.9757C2.51448 0.973607 2.50532 0.974629 2.49645 0.978583C2.50084 0.976542 2.50536 0.975205 2.50979 0.974632ZM10.8598 0.999618C10.8687 1.00481 10.8741 1.01087 10.8759 1.01777C10.8776 1.02482 10.8757 1.03268 10.8702 1.04137C10.8755 1.03261 10.8774 1.02467 10.8759 1.01777C10.8741 1.01079 10.8687 1.00485 10.8598 0.999725V0.999618ZM2.69142 1.00464L2.69954 1.00549L2.70519 1.00741C2.70334 1.00677 2.70146 1.0062 2.69954 1.0057L2.69142 1.00464ZM2.97449 1.04809L2.97822 1.04948L2.9794 1.0497H2.97822L2.97449 1.04809ZM11.3376 1.168L11.3361 1.17334C11.3364 1.17149 11.3369 1.16971 11.3376 1.168ZM11.3351 1.21819L11.3357 1.22139C11.3458 1.26282 11.3543 1.30464 11.3614 1.34686H11.3612C11.3542 1.30473 11.3456 1.26288 11.3355 1.22139L11.3351 1.21819ZM8.56938 1.23431C8.57182 1.23942 8.57507 1.24411 8.57899 1.24819C8.5898 1.25937 8.60411 1.26154 8.62191 1.25471C8.60418 1.26154 8.58984 1.25941 8.57888 1.2483C8.57495 1.24418 8.57181 1.23946 8.56938 1.23431ZM8.64754 1.25182C8.64782 1.25182 8.64811 1.25182 8.64839 1.25182C8.65159 1.25257 8.65458 1.25385 8.65779 1.25471L8.64839 1.25204C8.64811 1.25196 8.64782 1.25189 8.64754 1.25182ZM6.89864 1.28952C6.89008 1.28936 6.88153 1.28972 6.87301 1.29058C6.88127 1.28952 6.88981 1.28916 6.89864 1.28952ZM11.2487 1.36875C11.2572 1.3733 11.2622 1.37889 11.2637 1.38551C11.2654 1.39192 11.2637 1.39935 11.2585 1.40783C11.2637 1.39943 11.2654 1.39195 11.2638 1.3854C11.2621 1.379 11.2571 1.37344 11.2487 1.36875ZM5.18509 1.44135C5.15106 1.44726 5.02278 1.4846 4.80026 1.55336C5.02293 1.4846 5.15117 1.44726 5.18498 1.44135H5.18509ZM11.3165 1.44221C11.3185 1.44171 11.3206 1.44178 11.3225 1.44242C11.3145 1.44043 11.3045 1.44605 11.2923 1.45929C11.3015 1.44918 11.3096 1.44349 11.3165 1.44221ZM11.3407 1.47243C11.3458 1.4967 11.3478 1.52055 11.3467 1.54397C11.3457 1.56739 11.3416 1.59034 11.3345 1.61284C11.3356 1.69771 11.3236 1.78225 11.2988 1.86344C11.2938 1.87981 11.2784 1.90889 11.2525 1.95068C11.2784 1.90904 11.2938 1.87996 11.2988 1.86344C11.3235 1.78251 11.3354 1.69897 11.3345 1.61284C11.3489 1.5674 11.351 1.51896 11.3407 1.47243ZM8.38412 1.45748C8.3862 1.47196 8.3835 1.48673 8.37643 1.49955C8.37987 1.493 8.38231 1.48599 8.38369 1.47873C8.38503 1.47168 8.38517 1.46457 8.38412 1.45748ZM6.54916 1.47307L6.55268 1.47328L6.54542 1.47349L6.54916 1.47307ZM6.26364 1.47531L6.26716 1.47552L6.26011 1.47574L6.26364 1.47531ZM6.6601 1.47787L6.66341 1.47808H6.66362V1.4783L6.6601 1.47787ZM6.43886 1.48246L6.43501 1.4831L6.43288 1.48289H6.4348L6.43886 1.48246ZM5.93487 1.48406C5.9291 1.49459 5.92176 1.50417 5.91309 1.51247C5.92063 1.50585 5.92782 1.49638 5.93487 1.48406ZM6.97231 1.48951H6.97915L6.97231 1.48972V1.48951ZM6.23652 1.50905C6.17757 1.51634 6.11888 1.5256 6.06055 1.53681C6.09254 1.53184 6.12443 1.52629 6.15622 1.52015C6.18291 1.5161 6.20968 1.51232 6.23652 1.50905ZM8.36244 1.51973C8.40117 1.53539 8.43953 1.55212 8.47755 1.56991C8.50139 1.57404 8.52407 1.57956 8.54556 1.58646C8.52328 1.57943 8.50056 1.57397 8.47755 1.56991C8.43963 1.5522 8.40125 1.53539 8.36244 1.51973ZM5.34482 1.52827C5.345 1.52827 5.34518 1.52827 5.34536 1.52827C5.34518 1.52834 5.345 1.52841 5.34482 1.52848V1.52827ZM5.36725 1.52827C5.36746 1.52827 5.36767 1.52827 5.36789 1.52827C5.38462 1.53945 5.40277 1.54671 5.42234 1.55005L5.428 1.54941L5.42266 1.55016C5.40306 1.54694 5.38439 1.53954 5.36789 1.52848C5.36771 1.52841 5.36743 1.52834 5.36725 1.52827ZM6.87525 1.54546C6.87525 1.54653 6.87472 1.5476 6.87365 1.54866C6.87472 1.54745 6.87525 1.54646 6.87525 1.54546ZM5.07083 1.79126C4.87842 1.81589 4.72054 1.84614 4.59717 1.88202C4.55924 1.89292 4.52182 1.90557 4.48506 1.91993C4.4842 1.92035 4.48378 1.92025 4.48292 1.92057L4.48506 1.91993C4.52182 1.90557 4.55924 1.89292 4.59717 1.88202C4.72061 1.84607 4.87856 1.81582 5.07083 1.79126ZM5.41113 1.62554C5.40861 1.62557 5.40612 1.62604 5.40376 1.62693C5.40608 1.62589 5.4086 1.62542 5.41113 1.62554ZM11.1448 1.76318C11.1426 1.78667 11.1422 1.81521 11.1437 1.84881L11.1434 1.85287V1.84903C11.142 1.82041 11.1424 1.79173 11.1448 1.76318ZM2.5131 1.85244C2.51751 1.85253 2.52207 1.85359 2.52645 1.85554C2.54588 1.8643 2.5703 1.86665 2.5997 1.86259C2.61529 1.86059 2.63337 1.8638 2.65394 1.8722C2.67023 1.87941 2.68728 1.88475 2.70477 1.88811C2.91604 1.92334 3.07799 2.03211 3.1906 2.21442C3.2027 2.23392 3.22673 2.25236 3.26268 2.26973L3.57927 2.6269L3.79282 2.94125C3.79533 2.94495 3.79677 2.94927 3.79697 2.95376C3.79718 2.95824 3.79615 2.9627 3.794 2.96666C3.76735 3.01739 3.72732 3.05985 3.67825 3.08945C3.67632 3.09057 3.67421 3.09135 3.67206 3.09174C3.6699 3.09213 3.66776 3.09212 3.66575 3.09172C3.66375 3.09132 3.66193 3.09053 3.6604 3.08941C3.65888 3.08828 3.65769 3.08684 3.6569 3.08518L3.6364 3.04108C3.63604 3.01211 3.62408 2.99271 3.60052 2.98289C3.59663 2.98129 3.59226 2.98077 3.58781 2.98136C3.58336 2.98196 3.57896 2.98366 3.575 2.98631C3.48851 3.04283 3.48951 3.10113 3.57799 3.16121V3.16142C3.58504 3.16662 3.58781 3.17413 3.58632 3.18395C3.57556 3.19372 3.56748 3.20607 3.56283 3.21983L3.56357 3.22314L3.56251 3.21993L3.43256 3.34059C3.42889 3.34401 3.42444 3.34647 3.41961 3.34777C3.41477 3.34907 3.4097 3.34915 3.40484 3.34802C3.39999 3.34689 3.3955 3.34457 3.39178 3.34128C3.38807 3.33799 3.38524 3.33383 3.38355 3.32917L3.33731 3.19943C3.3358 3.19525 3.33323 3.19164 3.32996 3.18913C3.3267 3.18662 3.32292 3.18533 3.31916 3.18544C3.25972 3.18687 3.24264 3.21808 3.26791 3.27909C3.29072 3.33448 3.3032 3.39357 3.30475 3.45345C3.30504 3.46268 3.30218 3.47179 3.29663 3.47929C3.23885 3.55978 3.16898 3.63084 3.08948 3.68997C3.08578 3.69273 3.08136 3.69423 3.07717 3.69415C3.07298 3.69407 3.06935 3.69241 3.06706 3.68954C3.05973 3.67971 3.05653 3.66363 3.05745 3.64127C3.05768 3.63725 3.05695 3.63324 3.05534 3.62955C3.05372 3.62586 3.05126 3.62261 3.04815 3.62005C3.04504 3.61749 3.04137 3.6157 3.03744 3.61482C3.03351 3.61395 3.02943 3.61401 3.02553 3.61501C2.92181 3.64092 2.91555 3.6873 3.00673 3.75414L2.97684 3.81959L2.77108 4.01361C2.74959 3.98881 2.73482 3.95892 2.72815 3.9268C2.71958 3.8758 2.6982 3.82782 2.66601 3.78735C2.66496 3.78599 2.6636 3.78491 2.66205 3.78421C2.66049 3.7835 2.65878 3.78318 2.65708 3.78329C2.65537 3.7834 2.65371 3.78392 2.65226 3.78481C2.6508 3.7857 2.64958 3.78694 2.64871 3.78841C2.63904 3.80293 2.63139 3.8187 2.62597 3.83529C2.6217 3.84853 2.61422 3.86408 2.60354 3.88195C2.58632 3.91106 2.59614 3.93014 2.63301 3.93918C2.63597 3.93993 2.63863 3.94167 2.64062 3.94415C2.64261 3.94664 2.64383 3.94976 2.64412 3.95306L2.65789 4.11248C2.6401 4.19797 2.58774 4.24321 2.50082 4.24819C2.4941 4.1902 2.47144 4.13521 2.43537 4.08931C2.4327 4.08601 2.429 4.08372 2.4249 4.08285C2.42081 4.08197 2.41658 4.08256 2.41295 4.08451C2.37935 4.10216 2.37437 4.13106 2.398 4.17121C2.4143 4.233 2.43188 4.29439 2.45075 4.3554C2.39992 4.40658 2.33799 4.43036 2.26495 4.42672C2.21062 4.32561 2.16545 4.21984 2.12999 4.11067C2.10185 4.06075 2.0846 4.00543 2.07938 3.94836L2.04841 3.87682C2.03046 3.88225 2.01149 3.88346 1.99299 3.88035C1.97846 3.87742 1.96561 3.86901 1.95712 3.85686C1.94971 3.84625 1.94067 3.82112 1.93 3.78147C1.92459 3.76082 1.92091 3.73974 1.919 3.71847C1.92099 3.74019 1.92466 3.76119 1.93 3.78147C1.94067 3.82119 1.94971 3.84639 1.95712 3.85686C1.96561 3.86901 1.97846 3.87742 1.99299 3.88035C2.00816 3.88369 2.02656 3.88245 2.04841 3.87682H2.04873C2.04601 3.84708 2.03992 3.81774 2.03058 3.78937C2.02051 3.76188 2.01426 3.73314 2.012 3.70395C2.00483 3.56656 1.98459 3.43016 1.95156 3.2966C1.94409 3.26635 1.9384 3.21456 1.93448 3.14124C1.93341 3.14156 1.93234 3.14135 1.93128 3.14167L1.93416 3.14103C1.93962 3.09271 1.93437 3.04379 1.91878 2.99773C1.91585 2.98871 1.91519 2.9791 1.91686 2.96976C1.92989 2.90142 1.93608 2.83233 1.93544 2.7625C1.9444 2.72326 1.93922 2.68212 1.92081 2.64633C1.91901 2.64274 1.91834 2.63866 1.91887 2.63458C1.9194 2.6305 1.92112 2.62661 1.9238 2.62337C1.93184 2.61472 1.93783 2.60438 1.94134 2.59311C1.94485 2.58184 1.94579 2.56992 1.94409 2.55824C1.93861 2.52388 1.94256 2.48867 1.95552 2.45637C1.99704 2.34957 2.04803 2.24669 2.10789 2.14896C2.14011 2.09671 2.18297 2.05182 2.23367 2.0172C2.31925 1.95747 2.40856 1.90326 2.50104 1.8549C2.5046 1.85316 2.50872 1.85232 2.5131 1.85244ZM3.11831 1.85704C3.13668 1.88188 3.15565 1.90612 3.17523 1.92975C3.15565 1.90626 3.13668 1.88202 3.11831 1.85704ZM6.10123 1.86099C6.13882 1.858 6.1737 1.87309 6.20587 1.90626C6.26629 1.9687 6.31584 2.04081 6.35248 2.1196C6.35575 2.12672 6.36144 2.13384 6.36956 2.14095C6.38999 2.15975 6.40465 2.1884 6.41355 2.22691C6.42558 2.27916 6.44722 2.32863 6.47847 2.37533C6.48059 2.3786 6.48187 2.38234 6.4822 2.38623C6.48253 2.39011 6.48191 2.39401 6.48038 2.3976C6.47885 2.40118 6.47646 2.40433 6.47343 2.40678C6.4704 2.40923 6.46682 2.4109 6.46299 2.41163C6.4128 2.4206 6.37508 2.40751 6.34981 2.37234C6.33274 2.34816 6.3154 2.32417 6.29781 2.30037C6.18959 2.18743 6.10395 2.05486 6.04549 1.90978C6.04399 1.90602 6.04324 1.902 6.04329 1.89796C6.04333 1.89391 6.04417 1.88992 6.04576 1.88622C6.04735 1.88251 6.04965 1.87917 6.05254 1.87638C6.05543 1.87359 6.05884 1.8714 6.06258 1.86996C6.07575 1.86497 6.08863 1.86198 6.10123 1.86099ZM4.1942 1.93765L4.19067 1.93957L4.188 1.94043C4.18907 1.94011 4.18939 1.93968 4.19046 1.93936L4.1942 1.93765ZM4.14209 1.9684L4.14188 1.96894L4.14166 1.96872L4.14209 1.9684ZM3.9421 1.99819C3.94993 1.99665 3.95798 1.99733 3.96524 2.00013C3.97251 2.00294 3.97868 2.00776 3.98299 2.014V2.01421C3.97868 2.00797 3.97251 2.00315 3.96524 2.00035C3.95798 1.99754 3.94993 1.99687 3.9421 1.99841L3.79944 2.02692C3.78929 2.02943 3.77882 2.03044 3.76837 2.02991C3.77585 2.03048 3.7862 2.02941 3.79944 2.0267L3.9421 1.99819ZM9.26812 2.00941C9.27197 2.01111 9.27666 2.01261 9.28051 2.01421C9.41044 2.06985 9.537 2.13302 9.65956 2.20342C9.70911 2.23196 9.83023 2.30468 10.0229 2.42156C9.90231 2.34797 9.78111 2.27532 9.65935 2.20363C9.59813 2.16837 9.53588 2.1349 9.47271 2.10326C9.40952 2.07179 9.34542 2.04216 9.28051 2.01442L9.26812 2.00941ZM10.6911 2.08693C10.6958 2.09191 10.6999 2.09575 10.7034 2.09846C10.7069 2.10131 10.7098 2.10319 10.712 2.10412C10.7088 2.1027 10.7059 2.10079 10.7034 2.09846C10.6992 2.09481 10.6951 2.09089 10.6911 2.08693ZM4.21299 2.10743C4.22046 2.12323 4.22762 2.13903 4.23701 2.15377C4.26147 2.20139 4.28784 2.24795 4.31389 2.29471C4.28784 2.24795 4.26125 2.2015 4.2368 2.15377C4.2274 2.13903 4.22046 2.12312 4.21299 2.10743ZM3.26844 2.1149C3.27641 2.12081 3.28449 2.1264 3.29268 2.13167C3.36486 2.17701 3.41658 2.22122 3.44783 2.26428C3.41651 2.22129 3.36479 2.17715 3.29268 2.13188C3.28441 2.12654 3.27632 2.1208 3.26844 2.1149ZM4.13479 2.1173C4.13875 2.11821 4.142 2.12034 4.14401 2.12334V2.12355C4.14206 2.12049 4.13876 2.11827 4.13479 2.1173ZM8.10554 2.16765C8.1165 2.17017 8.12676 2.17513 8.13554 2.18217C8.15668 2.19826 8.17206 2.22744 8.18167 2.26973C8.24146 2.53752 8.27108 2.67327 8.27051 2.67697C8.2641 2.72267 8.27314 2.76396 8.29763 2.80084C8.3003 2.80479 8.30201 2.80916 8.30257 2.81352C8.30313 2.81789 8.30253 2.82209 8.30083 2.82571C8.28368 2.86344 8.25381 2.88152 8.21125 2.87996C8.20709 2.87978 8.20303 2.87828 8.19954 2.87565C8.19606 2.87301 8.1933 2.86936 8.1916 2.86511C8.1616 2.79369 8.14242 2.71818 8.13469 2.6411C8.08333 2.52398 8.04121 2.40302 8.00869 2.27934C8.00643 2.27074 8.00596 2.26179 8.0073 2.25307C8.00864 2.24434 8.01177 2.23601 8.01648 2.22862C8.04581 2.18235 8.0755 2.16206 8.10554 2.16776V2.16765ZM9.91135 2.19296C10.0463 2.26186 10.1722 2.3471 10.2863 2.44676C10.1722 2.34719 10.0462 2.26195 9.91135 2.19296ZM5.05172 2.19317C5.05455 2.19284 5.05746 2.19319 5.06023 2.19417C5.063 2.19516 5.06553 2.19675 5.06763 2.19883C5.12387 2.25336 5.17377 2.31354 5.21733 2.37939C5.23634 2.40822 5.26709 2.45057 5.30959 2.50645C5.34176 2.54824 5.36871 2.59369 5.39042 2.64281C5.41839 2.70644 5.39935 2.72075 5.33329 2.68573C5.28459 2.6602 5.23904 2.62906 5.19758 2.59294C5.15109 2.55279 5.08504 2.46111 4.9994 2.31788C4.99668 2.31335 4.99493 2.30857 4.99431 2.304C4.99369 2.29944 4.99423 2.29525 4.99588 2.29183L5.0388 2.20235C5.03996 2.19987 5.04173 2.19773 5.04398 2.19614C5.04623 2.19454 5.04888 2.19352 5.05172 2.19317ZM10.626 2.19648L10.6269 2.19755H10.6266L10.626 2.19648ZM4.13995 2.23342C4.148 2.23732 4.15668 2.23974 4.16558 2.24058C4.17349 2.24151 4.18093 2.24476 4.18696 2.24992C4.18095 2.24478 4.17356 2.24163 4.16569 2.24068C4.15678 2.23982 4.14799 2.23736 4.13995 2.23342ZM1.2919 2.24496C1.28133 2.28553 1.26221 2.40993 1.23573 2.60821C1.26236 2.40818 1.28108 2.2871 1.2919 2.24496ZM4.36016 2.38553C4.36044 2.38965 4.35973 2.39362 4.3581 2.39711C4.35098 2.41064 4.34198 2.41811 4.33108 2.41954C4.34191 2.41811 4.35084 2.41064 4.35789 2.39711C4.35955 2.39364 4.3604 2.38965 4.36016 2.38553ZM10.8535 2.40694C10.8778 2.42933 10.9048 2.44859 10.9338 2.46427C10.9206 2.45481 10.9067 2.44625 10.8923 2.43865C10.8788 2.42884 10.8658 2.41826 10.8535 2.40694ZM3.58835 2.46054C3.59952 2.48211 3.61066 2.50976 3.62177 2.5435C3.62476 2.55233 3.63025 2.56012 3.63757 2.56593C3.69125 2.60845 3.72694 2.66964 3.73751 2.7373C3.72691 2.66963 3.69118 2.60843 3.63746 2.56593C3.63018 2.56011 3.62473 2.55232 3.62177 2.5435C3.61279 2.51502 3.60162 2.48729 3.58835 2.46054ZM10.6247 2.45787C10.6224 2.46675 10.6186 2.47518 10.6135 2.48285C10.6101 2.48779 10.6073 2.49318 10.6054 2.49887C10.6073 2.49319 10.6099 2.4878 10.6133 2.48285C10.6184 2.4752 10.6223 2.46676 10.6247 2.45787ZM7.1596 2.60319C7.16743 2.60356 7.175 2.60607 7.18149 2.61045C7.1846 2.61252 7.18705 2.61582 7.18856 2.62C7.19007 2.62417 7.19058 2.62904 7.19003 2.63405C7.18469 2.67961 7.19434 2.71855 7.21897 2.75086C7.2572 2.80126 7.27688 2.8276 7.27802 2.82988C7.29596 2.87017 7.31076 2.91975 7.32244 2.97862C7.32585 2.99606 7.33315 3.01154 7.34433 3.02507C7.38561 3.0744 7.40861 3.12924 7.4133 3.18961C7.41544 3.21737 7.40433 3.22453 7.37999 3.21107C7.35852 3.19957 7.34133 3.18144 7.33098 3.15939C7.32156 3.13874 7.31159 3.11833 7.30108 3.09821C7.27698 3.06112 7.25546 3.02241 7.23669 2.98236C7.16107 2.87425 7.11371 2.74893 7.09895 2.61782C7.0987 2.61575 7.09889 2.61361 7.09948 2.61161C7.10008 2.60961 7.10107 2.60782 7.10236 2.60641C7.10365 2.60501 7.10519 2.60403 7.10684 2.60358C7.10849 2.60313 7.11018 2.60321 7.11176 2.60383L7.12031 2.60757C7.12328 2.60871 7.12622 2.60936 7.1289 2.60947C7.13158 2.60958 7.13393 2.60915 7.13579 2.60821C7.14324 2.60473 7.15138 2.60301 7.1596 2.60319ZM1.23413 2.61964V2.61985H1.23306L1.23413 2.61964ZM8.22523 2.74168C8.22039 2.74204 8.21032 2.74919 8.19502 2.76314C8.19174 2.76619 8.1895 2.77018 8.18861 2.77457C8.18704 2.7851 8.19188 2.78838 8.20313 2.78439C8.20681 2.78311 8.21031 2.78088 8.21343 2.77783C8.21655 2.77478 8.21922 2.77098 8.22128 2.76667C8.2294 2.74958 8.23071 2.74125 8.22523 2.74168ZM10.8811 2.89138C10.882 2.89219 10.8831 2.89281 10.8842 2.8932C10.8853 2.89359 10.8866 2.89374 10.8877 2.89364C10.8889 2.89354 10.8901 2.89319 10.8911 2.89262C10.8922 2.89205 10.8931 2.89126 10.8938 2.89031L10.8949 2.88871L10.894 2.89031C10.8939 2.89031 10.8939 2.89031 10.8938 2.89031C10.8931 2.89126 10.8922 2.89205 10.8911 2.89262C10.8901 2.89319 10.8889 2.89354 10.8877 2.89364C10.8866 2.89374 10.8853 2.89359 10.8842 2.8932C10.8831 2.89281 10.882 2.89219 10.8811 2.89138ZM3.75609 2.82678C3.77602 2.82756 3.7925 2.83041 3.80553 2.83532C3.7896 2.8299 3.77292 2.82701 3.75609 2.82678ZM6.15441 2.86138C6.2021 2.85938 6.24346 2.89149 6.27848 2.95769C6.29158 2.98246 6.30984 3.0025 6.33326 3.01781C6.35055 3.0292 6.35518 3.04664 6.34714 3.07013C6.34257 3.08339 6.34199 3.09768 6.34547 3.11122C6.34894 3.12476 6.35632 3.13695 6.36668 3.14626C6.46028 3.2299 6.51339 3.31101 6.52599 3.3896C6.53083 3.419 6.52129 3.42484 6.49737 3.40711C6.37373 3.31546 6.25878 3.21263 6.15398 3.09992C6.14782 3.09343 6.14379 3.08484 6.14245 3.07536C6.13462 3.02418 6.10799 2.983 6.06258 2.95182C6.05857 2.94904 6.05528 2.94537 6.05297 2.94108C6.05065 2.9368 6.04938 2.93203 6.04925 2.92716C6.04913 2.92229 6.05016 2.91746 6.05225 2.91306C6.05434 2.90866 6.05744 2.90482 6.0613 2.90185C6.09461 2.87608 6.12565 2.86255 6.15441 2.86127V2.86138ZM3.82571 2.97211L3.82614 2.97317C3.82607 2.97317 3.826 2.97317 3.82592 2.97317C3.82571 2.97285 3.82592 2.97243 3.82571 2.97211ZM1.87202 3.22986H1.87223L1.87202 3.23029V3.22986ZM10.8558 3.34145C10.8649 3.34105 10.8739 3.34401 10.8811 3.34977C11.0199 3.46153 11.0868 3.60216 11.0818 3.77165C11.0792 3.857 11.0571 3.92199 11.0156 3.96662C10.9744 4.01083 10.9214 4.02934 10.8565 4.02215C10.8066 4.01667 10.7611 3.99261 10.7201 3.94997C10.5835 3.80831 10.5717 3.64078 10.6844 3.44737C10.7233 3.38074 10.7805 3.34543 10.8558 3.34145ZM8.36372 3.44406V3.44491L8.33383 3.54251L8.36351 3.44491C8.36351 3.44456 8.36358 3.44427 8.36372 3.44406ZM1.93576 3.46328C1.93624 3.46373 1.9367 3.46419 1.93715 3.46467C1.93666 3.46416 1.93617 3.46366 1.93565 3.46317L1.93576 3.46328ZM11.2646 3.49029C11.311 3.5451 11.3576 3.60348 11.4045 3.66541C11.4912 3.78016 11.5792 3.89398 11.6686 4.00688C11.7121 4.06689 11.7488 4.12056 11.7789 4.1679C11.7437 4.11319 11.7068 4.05956 11.6684 4.00709C11.5791 3.89428 11.4911 3.78049 11.4043 3.66573C11.3594 3.60594 11.3128 3.54744 11.2646 3.49029ZM1.88494 3.50823C1.89542 3.51851 1.90205 3.53208 1.90373 3.54667C1.90189 3.53213 1.89528 3.51861 1.88494 3.50823ZM8.94181 3.56963C8.99285 3.57034 9.04393 3.57596 9.09504 3.5865C9.14629 3.59696 9.19761 3.61237 9.24901 3.63273L9.50613 3.70641C9.61006 3.73047 9.71004 3.7662 9.80606 3.81361C9.91191 3.85547 10.0112 3.90829 10.1039 3.97207C10.1681 4.01649 10.2563 4.08547 10.3682 4.179C10.616 4.38632 10.8273 4.63365 10.9933 4.91074C10.997 4.91695 11.0043 4.92076 11.0137 4.92138C11.023 4.922 11.0336 4.91937 11.0433 4.91405C11.0744 4.89697 11.1074 4.88522 11.1422 4.87882C11.1768 4.87262 11.1892 4.88028 11.1793 4.90177C11.1779 4.90464 11.1754 4.90764 11.1717 4.91059C11.1681 4.91353 11.1636 4.91635 11.1584 4.91886L11.0535 4.96894C11.0501 4.9707 11.0475 4.97381 11.0462 4.97768C11.0449 4.98155 11.045 4.98592 11.0465 4.98997C11.0748 5.06495 11.1134 5.13558 11.1614 5.19979C11.2747 5.4627 11.3599 5.73686 11.4155 6.0177C11.417 6.02524 11.4157 6.03455 11.4117 6.04418C11.3991 6.07393 11.4001 6.12252 11.4149 6.18993C11.4177 6.20303 11.4196 6.21637 11.4204 6.22997C11.4226 6.27418 11.4282 6.31852 11.4373 6.36301C11.4443 6.3979 11.4453 6.43092 11.4404 6.4621C11.4322 6.51378 11.4278 6.54717 11.4273 6.56226C11.3944 7.42915 11.064 8.14626 10.4363 8.7136C10.0154 9.09415 9.51606 9.32771 8.93818 9.41427C8.93647 9.41455 8.9159 9.42039 8.87646 9.43178C8.85313 9.4384 8.82837 9.43803 8.80524 9.43071C8.79642 9.42789 8.78705 9.42719 8.77791 9.42868C8.57859 9.46292 8.39757 9.46684 8.23484 9.44043C8.16031 9.42818 8.10137 9.42455 8.05802 9.42954C8.04881 9.43067 8.03946 9.42938 8.0309 9.4258C7.94022 9.38632 7.845 9.35823 7.74741 9.34219C7.6685 9.3039 7.58795 9.26909 7.50598 9.23787C7.22399 9.13094 6.96431 8.97253 6.74018 8.77072C6.31009 8.38419 6.0115 7.89836 5.84443 7.31322C5.84175 7.30381 5.84 7.29415 5.8392 7.28439C5.83201 7.18715 5.81735 7.11124 5.79521 7.05664C5.77849 7.01517 5.76823 6.97138 5.76478 6.9268L5.77118 6.84105C5.77659 6.77122 5.73698 6.73542 5.65234 6.73364C5.61817 6.73307 5.61685 6.7262 5.64839 6.71303C5.67893 6.70022 5.71238 6.70591 5.74876 6.73011C5.76001 6.73759 5.76506 6.73495 5.76392 6.72221L5.74331 6.50652C5.74312 6.503 5.74166 6.49923 5.73905 6.49557C5.73645 6.4919 5.73278 6.48844 5.72837 6.48549C5.70537 6.47004 5.70537 6.45452 5.72837 6.43893C5.73656 6.43324 5.74242 6.42599 5.74502 6.41832C5.76083 6.36778 5.76666 6.31582 5.76253 6.26243V6.2052L5.76125 6.20477L5.76253 6.20499C5.7854 6.07325 5.82124 5.9441 5.86952 5.81941C5.91658 5.55098 6.00918 5.29256 6.1433 5.05532C6.16821 5.04365 6.17498 5.02492 6.16359 4.99916L6.27677 4.85522C6.38175 4.66711 6.52053 4.49998 6.68615 4.36223V4.36245L6.87782 4.22791C6.88705 4.22243 6.89476 4.21472 6.90024 4.20548C6.95519 4.17381 7.01139 4.14462 7.06884 4.11793C7.13707 4.05027 7.21538 3.99361 7.30097 3.94997C7.49104 3.87878 7.67907 3.80261 7.86508 3.72146C7.93929 3.71425 8.01259 3.69959 8.08386 3.67769C8.3597 3.59305 8.63141 3.56899 8.899 3.6055C9.04265 3.62508 9.15932 3.63416 9.24901 3.63273C9.19914 3.61285 9.14761 3.59738 9.09504 3.5865C9.04461 3.57603 8.99331 3.57038 8.94181 3.56963ZM5.49292 3.58479C5.49677 3.58546 5.50056 3.58697 5.50404 3.58919C5.50752 3.59142 5.51061 3.59433 5.5131 3.59771C5.5889 3.70195 5.67073 3.80167 5.75816 3.89636C5.79076 3.9242 5.82155 3.95395 5.85052 3.98563C5.87259 4.00948 5.88316 4.03158 5.88223 4.05194C5.88066 4.08198 5.86009 4.09935 5.82051 4.10405C5.81179 4.10523 5.80252 4.10304 5.79435 4.09785C5.7127 4.0466 5.62333 3.9663 5.52624 3.85696C5.46623 3.78969 5.42612 3.7299 5.4059 3.67758C5.40398 3.67264 5.40317 3.66758 5.40357 3.66305C5.40396 3.65851 5.40556 3.65472 5.40814 3.65217L5.47242 3.59045C5.475 3.58799 5.47815 3.58621 5.48167 3.58523C5.48519 3.58426 5.48909 3.58411 5.49292 3.58479ZM7.35265 3.85216C7.3671 3.85109 7.38205 3.85109 7.3975 3.85216C7.33557 3.84803 7.28204 3.86049 7.23691 3.88953C7.23655 3.88961 7.2362 3.88968 7.23584 3.88974C7.2362 3.88961 7.23655 3.88946 7.23691 3.88932C7.27177 3.86743 7.31157 3.85465 7.35265 3.85216ZM7.16334 3.8985C7.15638 3.89852 7.14944 3.89887 7.14252 3.89957C7.14892 3.89878 7.15586 3.89843 7.16334 3.8985ZM4.36023 3.93C4.38622 3.92601 4.41889 3.94819 4.45826 3.99652C4.48139 4.03937 4.51239 4.07361 4.55126 4.09924C4.60002 4.13163 4.62483 4.14818 4.62568 4.14889C4.69658 4.2047 4.76702 4.26101 4.83699 4.31781C4.85593 4.32707 4.87127 4.34369 4.88301 4.36768C4.88497 4.37172 4.88584 4.37619 4.88556 4.38067C4.88527 4.38515 4.88383 4.38947 4.88138 4.39323C4.87894 4.39699 4.87556 4.40005 4.87158 4.40212C4.8676 4.40419 4.86315 4.4052 4.85867 4.40505C4.73082 4.39957 4.63273 4.34415 4.56439 4.2388C4.55938 4.23122 4.55182 4.22551 4.54293 4.22257C4.47295 4.20056 4.41431 4.15215 4.37945 4.0876C4.37521 4.0799 4.36777 4.07407 4.35874 4.07137C4.34063 4.06577 4.32393 4.05638 4.30973 4.04382C4.30652 4.04097 4.30413 4.03723 4.30282 4.03297C4.30151 4.02871 4.30131 4.0241 4.30226 4.01959C4.31493 3.96371 4.33425 3.93391 4.36023 3.93ZM7.01567 4.09444C7.00907 4.09993 6.99995 4.10262 6.99025 4.10191C6.95573 4.09935 6.93096 4.10668 6.91594 4.12391C6.93096 4.10668 6.9558 4.09931 6.99047 4.1018C7.00005 4.10251 7.00908 4.0998 7.01567 4.09444ZM1.32212 4.24948C1.29775 4.28213 1.27075 4.31273 1.24139 4.34098C1.23592 4.3941 1.21227 4.4437 1.17444 4.48139C1.17423 4.48164 1.17401 4.48189 1.1738 4.48214C1.17394 4.48179 1.17408 4.48143 1.17423 4.48107C1.21253 4.44263 1.23495 4.39594 1.2415 4.34098C1.27083 4.31272 1.2977 4.28222 1.32212 4.24948ZM6.58504 4.26976C6.58931 4.27346 6.59187 4.27802 6.59272 4.28343C6.59346 4.28985 6.59273 4.29634 6.59059 4.30244C6.58596 4.31646 6.57486 4.33369 6.55727 4.35412C6.57457 4.33383 6.586 4.31632 6.59059 4.30244C6.59273 4.29634 6.59346 4.28985 6.59272 4.28343C6.59183 4.27809 6.58911 4.27322 6.58504 4.26966V4.26976ZM6.48883 4.34878C6.50207 4.36159 6.51431 4.3686 6.52556 4.36981C6.51431 4.36875 6.50207 4.3618 6.48883 4.34878ZM1.40989 4.35807C1.44341 4.44787 1.48666 4.53211 1.54485 4.60814C1.48666 4.53233 1.44341 4.44797 1.40989 4.35807ZM12.7949 4.42982C12.9817 4.41829 13.1353 4.4883 13.2556 4.63985C13.2616 4.64213 13.2644 4.64725 13.2639 4.65523L13.3757 4.73574C13.3988 4.75239 13.3965 4.76136 13.3688 4.76264C13.2953 4.76635 13.3005 4.79777 13.3843 4.85693C13.4094 4.87487 13.4272 4.89829 13.4376 4.92719C13.4591 4.9872 13.4684 5.06016 13.4654 5.14608C13.465 5.15477 13.4681 5.16387 13.474 5.17181C13.496 5.20107 13.4828 5.2126 13.4343 5.20641C13.436 5.21184 13.4388 5.21687 13.4425 5.22115C13.4463 5.22544 13.4509 5.22889 13.456 5.23129C13.4604 5.23324 13.4645 5.23568 13.4683 5.23855C13.4807 5.25065 13.4769 5.2562 13.4569 5.25521C13.4648 5.30859 13.4631 5.36116 13.4515 5.41291C13.4512 5.41438 13.4506 5.41573 13.4496 5.41687C13.4486 5.41801 13.4473 5.41891 13.4459 5.4195C13.4444 5.42009 13.4428 5.42035 13.4411 5.42026C13.4395 5.42018 13.4379 5.41975 13.4364 5.419C13.4193 5.41025 13.4051 5.41199 13.3939 5.42423C13.3914 5.42699 13.3902 5.43075 13.3903 5.4349C13.3904 5.43904 13.3919 5.44334 13.3945 5.44708C13.4438 5.51827 13.4304 5.58048 13.3545 5.63373C13.3516 5.67495 13.3397 5.67975 13.3188 5.64814C13.2604 5.69406 13.2636 5.70936 13.3284 5.69406C13.3336 5.69287 13.3386 5.69259 13.3428 5.69326C13.347 5.69392 13.3503 5.6955 13.3521 5.6978C13.3551 5.70157 13.3566 5.70637 13.3567 5.71221C13.4048 5.73164 13.4223 5.76236 13.409 5.80436C13.4077 5.80844 13.405 5.81189 13.4013 5.81396C13.3977 5.81603 13.3934 5.81657 13.3895 5.81546L13.2985 5.78984L13.2043 5.90366C13.1983 5.91099 13.1897 5.9156 13.1805 5.91647C13.1447 5.92053 13.129 5.93342 13.1332 5.95513C13.1518 5.97399 13.1572 5.99417 13.1495 6.01567C13.1482 6.01917 13.1456 6.02231 13.142 6.02473C13.1384 6.02714 13.134 6.02874 13.1292 6.02934C13.1112 6.03214 13.0939 6.03845 13.0783 6.04792C13.0636 6.07269 13.0394 6.09173 13.0057 6.10504C12.9721 6.11835 12.9193 6.14693 12.8475 6.19078C12.8231 6.21541 12.7925 6.22695 12.7557 6.22538L12.6431 6.22474C12.6096 6.22467 12.5709 6.21573 12.5272 6.19794L12.2218 6.07482C12.1964 6.0645 12.1578 6.03888 12.1059 5.99794C11.8724 5.81415 11.7809 5.57255 11.8312 5.27314C11.8314 5.27208 11.8322 5.25994 11.8335 5.23673C11.8347 5.21552 11.8441 5.19787 11.8618 5.18377L11.8854 5.14106C11.8842 5.09486 11.9025 5.05909 11.9403 5.03375C11.9395 5.02296 11.9411 5.01212 11.945 5.00204C11.9489 4.99196 11.9551 4.9829 11.9631 4.97556C11.9738 4.96598 11.9819 4.95385 11.9867 4.9403C11.9914 4.92675 11.9927 4.91222 11.9904 4.89804C11.9824 4.87419 11.9685 4.86565 11.9488 4.87241C11.9462 4.87339 11.9433 4.87572 11.9405 4.87921C11.9377 4.88269 11.9351 4.88722 11.9327 4.89238L11.8911 4.98474C11.8892 4.98864 11.8862 4.9921 11.8824 4.99483C11.8786 4.99756 11.874 4.99948 11.869 5.00044C11.8526 5.00357 11.8464 4.9962 11.8504 4.97833C11.8636 4.92096 11.8949 4.87327 11.9444 4.83525C11.9475 4.83272 11.9515 4.83085 11.9559 4.82977C11.9603 4.82869 11.9651 4.82841 11.9701 4.82895C12.0078 4.83301 12.0384 4.82038 12.0619 4.79105C12.0949 4.72888 12.1443 4.67695 12.2047 4.64092C12.344 4.50481 12.5134 4.43779 12.7127 4.43986H12.713C12.7401 4.435 12.7674 4.43165 12.7949 4.42982ZM1.16323 4.50467C1.16323 4.50489 1.16323 4.5051 1.16323 4.50531L1.17113 4.56831L1.16302 4.5051C1.16309 4.50496 1.16316 4.50481 1.16323 4.50467ZM8.55806 4.57514C8.52477 4.57447 8.49148 4.57658 8.45854 4.58144C8.14875 4.62665 7.87945 4.73752 7.65067 4.91405C7.55072 4.99136 7.49581 5.09682 7.48591 5.23043C7.48235 5.27898 7.49467 5.3202 7.52286 5.35408C7.55798 5.39645 7.60281 5.42971 7.65355 5.45103C7.73022 5.48421 7.80969 5.50439 7.89198 5.51158L8.00026 5.52973C8.03756 5.53599 8.07521 5.53258 8.11322 5.51948C8.13515 5.51186 8.2042 5.51375 8.32037 5.52514C8.32444 5.52555 8.32824 5.5273 8.33112 5.53011C8.334 5.53291 8.33579 5.53659 8.33617 5.54051C8.34771 5.6621 8.36607 5.78272 8.39127 5.90238C8.39839 5.93619 8.40195 5.98139 8.40195 6.03799C8.40166 6.08426 8.40725 6.13006 8.41871 6.17541C8.41951 6.17858 8.42133 6.18204 8.42406 6.18558C8.42679 6.18911 8.43038 6.19266 8.43462 6.19602L8.46452 6.2194C8.46455 6.22594 8.46319 6.2324 8.46052 6.23837C8.45784 6.24434 8.45393 6.24966 8.44904 6.254C8.42825 6.27927 8.4238 6.30632 8.43569 6.33515C8.43943 6.34372 8.44153 6.35292 8.44188 6.36227C8.4421 6.45338 8.46303 6.53895 8.50467 6.61896C8.50535 6.62035 8.5057 6.62188 8.50568 6.62343C8.50566 6.62498 8.50528 6.62649 8.50457 6.62785C8.50386 6.62921 8.50284 6.63037 8.5016 6.63124C8.50035 6.63211 8.49891 6.63266 8.49741 6.63284C8.32998 6.64879 8.24242 6.65619 8.23474 6.65505C8.17637 6.64551 8.11649 6.65288 8.06219 6.6763V6.67651L8.04905 6.67779V6.67758C7.99984 6.65214 7.94402 6.64237 7.8891 6.6496C7.84312 6.6558 7.80688 6.65637 7.7804 6.65131C7.6855 6.63348 7.58978 6.62026 7.4936 6.6117C7.48435 6.61071 7.47551 6.60733 7.46797 6.60187C7.42263 6.57077 7.37351 6.56507 7.32062 6.58479L7.17765 6.59205V6.59184C7.10397 6.60045 7.03813 6.62636 6.98011 6.66957C6.9374 6.70146 6.90989 6.7226 6.89757 6.733C6.87045 6.75634 6.84851 6.78512 6.83318 6.81746C6.8103 6.86482 6.78426 6.91058 6.75524 6.95445C6.72543 6.99796 6.70977 7.0496 6.71039 7.10234C6.71053 7.13985 6.71658 7.18943 6.72854 7.25108C6.74143 7.31828 6.77012 7.3791 6.81461 7.43356C6.81567 7.4389 6.81806 7.4436 6.82176 7.44765V7.44787C6.82817 7.47969 6.84621 7.50168 6.8759 7.51386C6.93178 7.56509 6.99354 7.60954 7.05987 7.64626C7.06425 7.64877 7.06901 7.65017 7.07355 7.65029C7.0781 7.6504 7.08225 7.64922 7.0855 7.6469C7.09043 7.64325 7.09439 7.63845 7.09703 7.63291C7.09902 7.6288 7.10162 7.62528 7.10454 7.62271C7.10747 7.62014 7.11063 7.61861 7.11369 7.61828C7.12736 7.61686 7.1302 7.62248 7.12223 7.63515C7.09233 7.68356 7.1013 7.71395 7.14914 7.72634C7.31122 7.7682 7.47555 7.79642 7.64213 7.81102C7.64638 7.81131 7.65042 7.8129 7.65368 7.81557C7.65694 7.81823 7.65925 7.82183 7.66028 7.82586C7.67238 7.87355 7.66202 7.91491 7.62921 7.94993C7.62255 7.95714 7.61868 7.96578 7.61831 7.97428C7.61444 8.12735 7.61758 8.28052 7.62771 8.43331C7.63825 8.60273 7.67199 8.76179 7.72894 8.9105C7.75207 8.97143 7.78791 9.01652 7.83646 9.04578C7.98751 9.13668 8.14447 9.15021 8.30735 9.08636C8.36159 9.06472 8.39519 9.04952 8.40814 9.04076C8.44131 9.01855 8.46181 8.98499 8.46965 8.94007C8.47272 8.92098 8.48125 8.90318 8.4942 8.88882C8.51214 8.8691 8.52307 8.85469 8.52699 8.84558C8.58825 8.71234 8.60837 8.56384 8.58475 8.41911C8.60639 8.2573 8.60018 8.09299 8.56639 7.93327C8.56522 7.92784 8.56338 7.92292 8.56099 7.9189C8.5586 7.91488 8.55573 7.91187 8.55261 7.9101C8.54079 7.90348 8.53275 7.91139 8.52848 7.93381C8.52421 7.95516 8.51371 7.96584 8.49698 7.96584C8.49285 7.96583 8.48884 7.96419 8.48569 7.96122C8.48255 7.95826 8.48049 7.95417 8.4799 7.94972C8.47747 7.93709 8.47872 7.92403 8.48349 7.91209C8.48826 7.90015 8.49635 7.88983 8.5068 7.88234C8.51519 7.87594 8.52071 7.86815 8.52218 7.86067C8.52987 7.82223 8.51264 7.80603 8.4705 7.81208C8.45576 7.81422 8.44679 7.81233 8.44359 7.80642C8.44279 7.80494 8.44252 7.80324 8.4428 7.80145C8.44308 7.79967 8.44391 7.79783 8.44522 7.79608C8.44654 7.79432 8.44831 7.7927 8.45041 7.79131C8.45251 7.78992 8.45488 7.78881 8.45737 7.78806C8.53453 7.76293 8.61337 7.74592 8.69388 7.73702C8.72506 7.73353 8.76335 7.72296 8.80877 7.70531C8.8625 7.68455 8.92046 7.67711 8.97769 7.68363C8.98502 7.68434 9.02784 7.6748 9.10614 7.65501L9.19082 7.63355C9.35302 7.57015 9.51451 7.50494 9.67526 7.43794C9.69879 7.42819 9.72159 7.41677 9.74349 7.40377C9.76533 7.39103 9.78624 7.37676 9.80606 7.36106L9.86917 7.27713C9.88362 7.25798 9.90942 7.23556 9.94658 7.20986C9.97719 7.18872 10.0024 7.16149 10.0221 7.12818C10.1238 7.0203 10.2137 6.90181 10.2901 6.77475C10.3129 6.68981 10.339 6.60582 10.3685 6.52297C10.3746 6.50574 10.3746 6.49261 10.3685 6.48357C10.3599 6.47146 10.3444 6.46702 10.322 6.47022C10.2975 6.47378 10.2953 6.46844 10.3156 6.4542C10.3314 6.4431 10.3452 6.44004 10.357 6.44502C10.3606 6.4466 10.3645 6.44707 10.368 6.44634C10.3714 6.44561 10.3742 6.44373 10.3757 6.44107C10.4078 6.38298 10.4107 6.32208 10.3845 6.25837C10.3725 6.22876 10.3445 6.17947 10.3004 6.11049C10.2444 6.02215 10.1701 5.98385 10.0775 5.9956C10.0688 5.99677 10.0596 5.99469 10.0517 5.98972C10.0315 5.97655 10.0116 5.97218 9.99185 5.97659V5.97638C9.82158 6.01375 9.66024 6.09614 9.50784 6.22356C9.49202 6.2367 9.47382 6.24667 9.45423 6.25293C9.35265 6.28517 9.25033 6.33052 9.14725 6.38896C9.02059 6.43422 8.89653 6.48647 8.77567 6.5455C8.7741 6.54621 8.75428 6.56069 8.71619 6.58895C8.69213 6.60689 8.66259 6.61188 8.62757 6.6039C8.59955 6.57291 8.58386 6.53272 8.58347 6.49093V6.49072C8.59707 6.44445 8.58799 6.40363 8.55624 6.36825L8.55496 6.24086C8.54598 6.02312 8.51347 5.807 8.45801 5.59625C8.45487 5.56137 8.42686 5.53411 8.37397 5.51446C8.36308 5.51062 8.36315 5.50716 8.37419 5.5041C8.46352 5.47897 8.55457 5.45499 8.64732 5.43213C8.70954 5.41662 8.80589 5.36294 8.93637 5.27112C9.03033 5.20527 9.08824 5.10967 9.11009 4.98431C9.1286 4.87932 9.10586 4.79916 9.04186 4.74385C9.01075 4.71716 8.9437 4.68352 8.84069 4.64295C8.77962 4.61894 8.7167 4.5999 8.65255 4.58604H8.65234C8.6213 4.57961 8.58975 4.57597 8.55806 4.57514ZM9.80606 7.36106C9.76611 7.39244 9.72212 7.4183 9.67526 7.43794C9.51451 7.50494 9.35302 7.57015 9.19082 7.63355L9.10219 7.69676C9.09178 7.70409 9.08279 7.71168 9.0758 7.71903C9.06881 7.72639 9.06398 7.73336 9.06162 7.73947C9.04083 7.79628 9.05072 7.81265 9.0913 7.78859C9.14576 7.75656 9.20242 7.72951 9.26129 7.70744C9.3571 7.67156 9.4153 7.64868 9.43587 7.63878C9.62448 7.54763 9.80369 7.43819 9.97093 7.31205C9.97468 7.30931 9.97752 7.30563 9.97898 7.30159C9.98043 7.29756 9.98042 7.29342 9.97894 7.28984C9.97039 7.26962 9.95502 7.27172 9.93281 7.29614C9.90099 7.33116 9.85874 7.35287 9.80606 7.36106ZM12.0162 4.60269C12.0152 4.60607 12.0135 4.60924 12.0114 4.61209H12.0112C12.0134 4.60926 12.0151 4.60608 12.0162 4.60269ZM1.6071 4.66217H1.60732C1.63081 4.68139 1.64423 4.70773 1.64757 4.74118C1.64921 4.75656 1.65312 4.76749 1.65932 4.77396H1.659C1.65295 4.76756 1.64914 4.75663 1.64757 4.74118C1.64655 4.72594 1.64242 4.71107 1.63544 4.69749C1.62846 4.6839 1.61878 4.67188 1.607 4.66217H1.6071ZM1.05026 4.73018L1.04962 4.73264L1.04898 4.73371L1.04941 4.73264L1.05026 4.73018ZM1.06318 4.81849H1.06553C1.06425 4.81849 1.063 4.8186 1.06179 4.81881L1.06318 4.81849ZM1.02207 4.84689L1.02229 4.84796V4.84817L0.960569 4.93872C0.960421 4.93907 0.960279 4.93943 0.960142 4.93979C0.960208 4.93943 0.960279 4.93907 0.960356 4.93872L1.02207 4.84796V4.84689ZM8.86312 4.8786H8.86333C8.86361 4.87901 8.86386 4.87944 8.86408 4.87989C8.86375 4.87943 8.8635 4.879 8.86312 4.8786ZM0.953949 4.96392C0.956257 4.98469 0.954184 5.00571 0.947863 5.02564C0.941456 5.04699 0.930779 5.06931 0.91583 5.09258L0.914976 5.09387L0.915509 5.09258C0.929491 5.07196 0.940391 5.04941 0.947863 5.02564C0.954269 5.00421 0.956298 4.98364 0.953949 4.96392ZM4.31485 4.97855C4.32943 4.97782 4.34402 4.97959 4.35799 4.98378C4.44598 5.00962 4.48659 5.05105 4.47982 5.10807C4.47917 5.1144 4.48026 5.12078 4.483 5.12651C4.48573 5.13224 4.48999 5.13709 4.49531 5.14053C4.5393 5.16872 4.55727 5.20217 4.54923 5.2409C4.54375 5.26738 4.55044 5.31984 4.5693 5.39829C4.57735 5.42927 4.57899 5.46157 4.5741 5.49321C4.56922 5.52485 4.55792 5.55515 4.5409 5.58226C4.50141 5.64881 4.44657 5.70494 4.38095 5.74595C4.37726 5.74826 4.37308 5.7498 4.36865 5.75048C4.36421 5.75116 4.35961 5.75096 4.35511 5.7499L4.17039 5.70826C4.1612 5.70605 4.15318 5.7013 4.14743 5.6947C4.03923 5.56742 4.00335 5.42185 4.0398 5.25798C4.04413 5.23224 4.04567 5.20611 4.04439 5.18003C4.04332 5.14572 4.05396 5.1202 4.07632 5.10348C4.13671 5.05716 4.20264 5.01853 4.27257 4.98848C4.28652 4.98264 4.30062 4.97933 4.31485 4.97855ZM11.7256 5.08906C11.6948 5.15405 11.679 5.21759 11.6781 5.27966C11.6778 5.30037 11.6792 5.32087 11.6822 5.34116C11.6835 5.35032 11.682 5.35973 11.678 5.36828C11.663 5.40017 11.6556 5.42665 11.6558 5.44772C11.6556 5.42658 11.6631 5.4001 11.6781 5.36828C11.682 5.3597 11.6833 5.35029 11.682 5.34116C11.6791 5.3208 11.6777 5.30023 11.6781 5.27966C11.6789 5.21773 11.6947 5.15427 11.7254 5.08927L11.7256 5.08906ZM8.42992 5.11746L8.43099 5.11778C8.43029 5.1176 8.42956 5.1176 8.42886 5.11778C8.42928 5.11778 8.4296 5.11736 8.42992 5.11746ZM8.42758 5.11821L8.42683 5.11864V5.11842C8.42704 5.11821 8.42736 5.11842 8.42758 5.11821ZM6.03396 5.13743C6.02635 5.14095 6.01918 5.14536 6.01261 5.15056C6.00027 5.16053 5.99096 5.17373 5.9857 5.18868C5.98964 5.1772 5.99598 5.16669 6.0043 5.15785C6.01263 5.14902 6.02274 5.14205 6.03396 5.13743ZM8.02204 5.19477C8.02315 5.19968 8.02483 5.20445 8.02706 5.20897C8.02934 5.21378 8.03213 5.21832 8.03538 5.22253C8.03068 5.21622 8.02687 5.20928 8.02407 5.20192L8.02204 5.19477ZM0.611089 5.36348H0.611302V5.36412L0.611089 5.36348ZM0.788125 5.40832L0.784388 5.41943L0.788125 5.42231L0.784388 5.41964L0.783106 5.42146L0.784174 5.41932C0.785776 5.41484 0.78663 5.41281 0.788125 5.40832ZM0.726621 5.5875V5.5891C0.726265 5.59522 0.700675 5.68384 0.649849 5.85497L0.648995 5.85796L0.649635 5.85508C0.700461 5.68388 0.726052 5.59525 0.726408 5.5892L0.726621 5.5875ZM11.4577 5.64249C11.4513 5.64583 11.4469 5.65662 11.4447 5.67484C11.4441 5.67889 11.4446 5.68322 11.446 5.68756C11.4475 5.6919 11.4498 5.69615 11.453 5.70004C11.4605 5.70908 11.466 5.71798 11.4696 5.72673C11.4734 5.73476 11.4753 5.74351 11.4752 5.75235C11.4751 5.7612 11.4731 5.76992 11.4692 5.77788C11.4648 5.78687 11.4591 5.79512 11.4521 5.80233C11.4488 5.80579 11.4463 5.80981 11.445 5.81403C11.4436 5.81825 11.4433 5.82252 11.4442 5.82646C11.4456 5.83213 11.4477 5.83759 11.4505 5.84269H11.4503C11.4476 5.83758 11.4455 5.83212 11.4442 5.82646C11.4433 5.82254 11.4435 5.81827 11.4448 5.81406C11.4462 5.80984 11.4486 5.8058 11.4519 5.80233C11.4589 5.79513 11.4648 5.78688 11.4692 5.77788C11.4731 5.76992 11.4751 5.7612 11.4752 5.75235C11.4753 5.74351 11.4734 5.73476 11.4696 5.72673C11.4654 5.71705 11.4597 5.70805 11.4528 5.70004C11.4496 5.69615 11.4472 5.6919 11.4458 5.68756C11.4444 5.68322 11.4439 5.67889 11.4444 5.67484C11.4468 5.65662 11.4513 5.64583 11.4577 5.64249ZM13.4714 5.68989C13.4715 5.68989 13.4716 5.68989 13.4717 5.68989C13.4715 5.69003 13.4713 5.69017 13.4711 5.69032C13.4711 5.69018 13.4713 5.69003 13.4714 5.68989ZM11.5306 5.79336C11.5343 5.79621 11.5381 5.80073 11.5418 5.80692C11.5439 5.81015 11.5451 5.81417 11.5454 5.81868C11.5451 5.81417 11.5437 5.81012 11.5416 5.80692C11.5387 5.80183 11.535 5.79725 11.5306 5.79336ZM11.5749 5.91135L11.5751 5.91156C11.5922 5.96032 11.6065 6.00926 11.6181 6.05838C11.6533 6.20548 11.6647 6.35731 11.6517 6.50802L11.6293 6.77475L11.6515 6.5078C11.6646 6.35718 11.6532 6.20543 11.6181 6.05838C11.6063 6.00919 11.592 5.96018 11.5749 5.91135ZM11.7855 5.94787L11.9909 6.1454L11.7855 5.94808V5.94787ZM0.635968 5.99666L0.636182 5.99933C0.636282 5.99998 0.636425 6.00063 0.636609 6.00126C0.636354 6.00063 0.636139 5.99999 0.635968 5.99933V5.99666ZM10.2464 6.12223C10.2513 6.12254 10.256 6.12476 10.2594 6.12843V6.12864C10.256 6.12494 10.2514 6.12268 10.2464 6.12234C10.2415 6.122 10.2367 6.12361 10.2331 6.12682C10.2367 6.12358 10.2415 6.12193 10.2464 6.12223ZM9.95448 6.13323C9.97447 6.13301 9.99445 6.13418 10.0143 6.13675C10.0009 6.13619 9.98761 6.13512 9.97434 6.13355C9.94853 6.13271 9.92269 6.13421 9.89714 6.13804C9.88462 6.13989 9.87223 6.14238 9.85999 6.14551C9.84789 6.14878 9.83593 6.15263 9.82411 6.15704C9.84773 6.14819 9.8722 6.14182 9.89714 6.13804C9.91613 6.13515 9.93528 6.13354 9.95448 6.13323ZM5.70829 6.1501V6.15352L5.7085 6.15459L5.70808 6.15352L5.70829 6.1501ZM5.59383 6.1879L5.59404 6.18918H5.59383C5.59361 6.18854 5.59393 6.18843 5.59383 6.1879ZM10.1781 6.20701C10.1638 6.21464 10.1509 6.22452 10.1398 6.23627C10.1467 6.23114 10.1532 6.22542 10.1591 6.21919C10.165 6.2147 10.1714 6.21064 10.1781 6.20701ZM12.2973 6.26232C12.3774 6.29322 12.4506 6.32465 12.5171 6.35661C12.5171 6.35668 12.5171 6.35675 12.5171 6.35682C12.4451 6.3224 12.3718 6.29088 12.2973 6.26232ZM9.55428 6.26756C9.51595 6.29783 9.47591 6.32589 9.43437 6.35159C9.44792 6.34216 9.46177 6.33319 9.47591 6.32468C9.52076 6.29336 9.54688 6.27432 9.55428 6.26756ZM9.83105 6.32831C9.83105 6.32828 9.83105 6.32835 9.83105 6.32831V6.32831ZM5.59543 6.36494C5.5955 6.36494 5.59557 6.36494 5.59564 6.36494C5.59557 6.36508 5.5955 6.36522 5.59543 6.36536C5.59543 6.36522 5.59543 6.36508 5.59543 6.36494ZM9.80521 6.40284C9.78392 6.43604 9.76637 6.47149 9.75289 6.50855C9.7483 6.52092 9.74417 6.53346 9.7405 6.54614C9.74771 6.52084 9.75677 6.4961 9.76762 6.47214C9.77843 6.44815 9.79099 6.42498 9.80521 6.40284ZM5.57898 6.40348C5.58005 6.41587 5.58276 6.42854 5.5871 6.4415C5.58955 6.44875 5.58978 6.45813 5.58774 6.4684L5.57397 6.53194C5.57326 6.53509 5.57336 6.53909 5.57428 6.54369C5.57333 6.53909 5.5731 6.53513 5.57375 6.53194L5.58753 6.46862C5.58956 6.45834 5.58934 6.44897 5.58689 6.44171C5.5827 6.42934 5.58005 6.4165 5.57898 6.40348ZM9.75663 6.41875H9.75684L9.75556 6.42025L9.75663 6.41875ZM8.49452 6.47673H8.49506L8.49388 6.47716L8.49452 6.47673ZM10.2875 6.48987C10.2876 6.49001 10.2877 6.49015 10.2877 6.49029H10.2875C10.2875 6.49015 10.2875 6.49001 10.2875 6.48987ZM9.37746 6.54037C9.38409 6.5402 9.39061 6.54222 9.39604 6.54614C9.39059 6.5423 9.38407 6.54035 9.37746 6.54059H9.37308L9.37746 6.54037ZM10.0409 6.63316C10.0409 6.63331 10.041 6.63345 10.0411 6.63359C10.0412 6.63366 10.0414 6.63373 10.0415 6.6338C10.0413 6.63381 10.0411 6.63381 10.0409 6.6338C10.0409 6.63359 10.0409 6.63338 10.0409 6.63316ZM7.26531 6.66274C7.26246 6.66793 7.25648 6.67189 7.24737 6.67459C7.25641 6.67174 7.26239 6.66772 7.26531 6.66274ZM7.22399 6.68324C7.22406 6.68324 7.22413 6.68324 7.2242 6.68324C7.2235 6.68469 7.22318 6.6863 7.22325 6.68792C7.22332 6.68955 7.2238 6.69113 7.22463 6.69253L7.22441 6.69231C7.2236 6.69093 7.22314 6.68936 7.22306 6.68776C7.22299 6.68616 7.22331 6.68468 7.22399 6.68324ZM8.32283 6.68548C8.32311 6.68554 8.3234 6.68562 8.32368 6.68569C8.3234 6.68569 8.32311 6.68569 8.32283 6.68569H8.31888L8.32283 6.68548ZM3.80115 6.69157C3.9421 6.69534 4.0677 6.72403 4.17797 6.77763C4.2016 6.76738 4.22107 6.77201 4.23637 6.79151C4.2383 6.7939 4.24123 6.79617 4.24499 6.79819C4.24875 6.80021 4.25326 6.80193 4.25826 6.80326L4.29435 6.81255C4.2977 6.81337 4.30053 6.81598 4.30228 6.81984C4.30402 6.8237 4.30455 6.82853 4.30375 6.83337C4.29378 6.88974 4.31414 6.93025 4.36483 6.95488C4.40127 6.9862 4.43829 7.01645 4.47587 7.04564C4.48862 7.05525 4.49573 7.06457 4.49723 7.07361C4.49812 7.07836 4.49794 7.08324 4.49668 7.0879C4.49542 7.09256 4.49313 7.09687 4.48997 7.10052C4.48772 7.10354 4.4865 7.10716 4.48654 7.11073C4.48658 7.11431 4.48787 7.11761 4.49018 7.12006C4.51083 7.14142 4.52125 7.16736 4.52147 7.1979C4.52158 7.20759 4.52418 7.21664 4.52894 7.22396C4.56367 7.27602 4.58535 7.33568 4.59215 7.3979C4.60077 7.41747 4.61194 7.43534 4.62568 7.4515C4.62764 7.45389 4.62937 7.45735 4.63076 7.46168C4.63215 7.46601 4.63319 7.47111 4.6338 7.4767L4.65633 7.66035C4.65875 7.67922 4.65814 7.69349 4.65451 7.70317C4.63146 7.76854 4.60682 7.83334 4.58062 7.8975L4.5377 8.01475C4.48815 8.15071 4.3996 8.26158 4.27204 8.34735C4.25964 8.35569 4.24895 8.3663 4.24054 8.37864C4.21441 8.41594 4.18224 8.43502 4.14401 8.43587C4.13482 8.43579 4.12571 8.43768 4.11732 8.44142C4.00221 8.49588 3.8939 8.51937 3.7924 8.5119C3.75887 8.50948 3.7383 8.52151 3.73068 8.54799C3.73029 8.54954 3.72955 8.55099 3.72853 8.55222C3.72751 8.55345 3.72624 8.55441 3.72482 8.55503C3.7234 8.55565 3.72189 8.55591 3.7204 8.55578C3.7189 8.55565 3.71749 8.55514 3.71626 8.55429C3.66487 8.52197 3.61878 8.5103 3.57799 8.51927C3.53314 8.52888 3.49623 8.53283 3.46726 8.53112C3.4457 8.5298 3.42413 8.5287 3.40255 8.52781C3.33556 8.52853 3.26991 8.50891 3.21431 8.47154C3.18488 8.45215 3.15593 8.43203 3.1275 8.41121C3.09881 8.38826 3.07671 8.35812 3.06343 8.32386C3.06179 8.31991 3.05917 8.31642 3.05579 8.31372C3.05242 8.31101 3.0484 8.30918 3.0441 8.30838L2.99392 8.2992C2.98543 8.2976 2.97745 8.29215 2.97171 8.28404L2.8155 8.05874C2.81023 8.05126 2.80741 8.04236 2.80741 8.03329C2.80741 8.02422 2.81023 8.01542 2.8155 8.00812C2.82724 7.99189 2.82628 7.97887 2.81261 7.96904C2.76271 7.98378 2.74282 7.96933 2.75292 7.92569C2.75484 7.91672 2.75458 7.90742 2.75218 7.89857C2.74837 7.88535 2.74735 7.87147 2.74919 7.85784C2.75103 7.8442 2.75568 7.83109 2.76285 7.81934L2.81283 7.56927C2.8067 7.54456 2.80618 7.51879 2.8113 7.49385C2.81642 7.46891 2.82704 7.44543 2.8424 7.42512L2.86995 7.33362C2.92747 7.1311 3.03973 6.96641 3.20673 6.83956C3.22488 6.80959 3.25068 6.78859 3.28414 6.77656C3.37326 6.73634 3.49687 6.70954 3.65497 6.69616C3.70544 6.69189 3.75417 6.69036 3.80115 6.69157ZM9.54265 6.6968C9.52948 6.71004 9.51488 6.722 9.49887 6.73268V6.73246C9.51488 6.72186 9.52948 6.70997 9.54265 6.6968ZM9.64771 6.69797L9.76741 6.80208C9.77058 6.8049 9.77439 6.80703 9.7786 6.80831C9.77439 6.80706 9.7706 6.80508 9.76741 6.80229L9.64771 6.69797ZM10.1581 6.73823L10.1592 6.73866C10.1592 6.73873 10.1592 6.7388 10.1592 6.73887L10.1581 6.73823ZM8.99915 6.73866C8.98847 6.74357 8.9778 6.74869 8.96808 6.75467C8.97875 6.75004 8.98921 6.74469 8.99915 6.73866ZM9.85838 6.75222C9.85831 6.75243 9.85824 6.75264 9.85817 6.75286C9.85796 6.75322 9.85775 6.75357 9.85753 6.75392C9.85768 6.75357 9.85782 6.75321 9.85796 6.75286C9.8581 6.75265 9.85824 6.75243 9.85838 6.75222ZM7.66796 6.75617C7.66804 6.75617 7.66811 6.75617 7.66818 6.75617C7.66834 6.75652 7.66848 6.75687 7.66861 6.75724C7.66841 6.75687 7.6682 6.75651 7.66796 6.75617ZM9.34404 6.75617C9.33346 6.76696 9.32379 6.7786 9.3151 6.79098C9.29831 6.81475 9.28587 6.84133 9.27837 6.86946C9.27463 6.88374 9.27213 6.89831 9.2709 6.91302C9.27442 6.86911 9.28969 6.82696 9.3151 6.79098C9.32365 6.77895 9.33329 6.76727 9.34404 6.75617ZM7.53514 6.76289C7.53757 6.76315 7.53997 6.76369 7.54229 6.7645C7.53796 6.76246 7.53307 6.76193 7.52841 6.763C7.53062 6.76258 7.5329 6.76261 7.53514 6.76289ZM7.66946 6.76802C7.66941 6.76845 7.66934 6.76888 7.66925 6.7693H7.66903C7.6692 6.76888 7.66934 6.76846 7.66946 6.76802ZM9.64878 6.77768C9.64487 6.77974 9.64156 6.78278 9.63917 6.78649C9.6253 6.80783 9.61536 6.83148 9.60981 6.85632C9.60787 6.86477 9.60644 6.87333 9.60554 6.88195C9.6075 6.86489 9.61123 6.8481 9.61686 6.83187C9.6225 6.81587 9.63002 6.8006 9.63928 6.78638C9.64166 6.78268 9.64489 6.77974 9.64878 6.77768ZM9.71029 6.78329C9.71844 6.78576 9.72594 6.79002 9.73226 6.79574C9.73857 6.80146 9.74354 6.80852 9.7468 6.81639C9.74245 6.80597 9.73514 6.79706 9.72577 6.79076C9.72082 6.78786 9.71564 6.78536 9.71029 6.78329ZM7.85087 6.78916C7.85771 6.79279 7.86447 6.79557 7.87116 6.79749C7.88402 6.80131 7.89766 6.80161 7.91067 6.79834C7.90402 6.79832 7.89739 6.79907 7.89092 6.80059C7.88422 6.80041 7.87757 6.79944 7.87116 6.79749C7.86413 6.79545 7.85734 6.79259 7.85087 6.78916ZM8.70242 6.80283L8.70221 6.80358C8.68011 6.83009 8.65988 6.85809 8.64166 6.8874C8.65071 6.87283 8.66025 6.85859 8.67028 6.84469C8.68032 6.83059 8.69096 6.81689 8.70221 6.80358H8.70199L8.70242 6.80283ZM7.48719 6.80411C7.48128 6.8062 7.47556 6.80881 7.47011 6.8119C7.46552 6.81449 7.46113 6.81742 7.45697 6.82066C7.45334 6.82361 7.45011 6.82702 7.44736 6.8308C7.44233 6.83789 7.43957 6.84635 7.43946 6.85504C7.43948 6.84834 7.44107 6.84173 7.44412 6.83576C7.44716 6.82979 7.45156 6.82462 7.45697 6.82066C7.46113 6.81742 7.46552 6.81449 7.47011 6.8119C7.47516 6.80913 7.48086 6.80653 7.48719 6.80411ZM9.49011 6.82205C9.50649 6.82179 9.52266 6.82572 9.53709 6.83347C9.52924 6.83146 9.52165 6.82856 9.51446 6.82482C9.50647 6.82297 9.49831 6.82204 9.49011 6.82205ZM9.49011 6.82205C9.4815 6.82205 9.47253 6.82312 9.4632 6.82525C9.44889 6.82925 9.43486 6.83425 9.42124 6.8402C9.40998 6.84508 9.39925 6.85109 9.38921 6.85814C9.39818 6.85173 9.40885 6.84575 9.42124 6.8402C9.43356 6.83465 9.44754 6.82966 9.4632 6.82525C9.47203 6.82324 9.48105 6.82216 9.49011 6.82205ZM7.41918 6.82952C7.41432 6.83361 7.40852 6.83644 7.4023 6.83774C7.39433 6.83935 7.38614 6.83964 7.37807 6.8386L7.36333 6.83689C7.36888 6.83753 7.37241 6.83764 7.37828 6.83839C7.38627 6.83947 7.39438 6.83925 7.4023 6.83774C7.40846 6.83632 7.41422 6.83344 7.41918 6.82952ZM8.35721 6.83038C8.36472 6.83951 8.37329 6.84772 8.38273 6.85483C8.37827 6.85167 8.37405 6.84817 8.37013 6.84436C8.36566 6.83993 8.36138 6.8353 8.35732 6.83048L8.35721 6.83038ZM7.12287 6.8308C7.12223 6.83144 7.12137 6.83166 7.12073 6.8323V6.83209L7.12287 6.8308ZM7.82311 6.83123C7.825 6.83104 7.82692 6.83118 7.82877 6.83166C7.82495 6.83079 7.82095 6.83133 7.81756 6.83319C7.81416 6.83504 7.81161 6.83808 7.81041 6.8417C7.8113 6.83893 7.81297 6.83648 7.81524 6.83463C7.81751 6.83278 7.82017 6.8316 7.82311 6.83123ZM9.97221 6.8323L9.97285 6.83294L9.97135 6.83251L9.97221 6.8323ZM7.19174 6.83251C7.21003 6.8325 7.22789 6.83801 7.24299 6.84832C7.22489 6.83551 7.20261 6.83006 7.18064 6.83305C7.17316 6.83404 7.16544 6.83582 7.15747 6.83839C7.1685 6.83475 7.18012 6.83277 7.19174 6.83251ZM8.48513 6.83358H8.48534L8.48491 6.83422L8.48513 6.83358ZM8.29037 6.85216C8.30072 6.85399 8.31041 6.85852 8.31845 6.86529C8.32251 6.86871 8.32617 6.87273 8.32945 6.87736C8.33288 6.88236 8.33588 6.88765 8.33842 6.89316C8.34119 6.89914 8.34358 6.90569 8.34557 6.91281C8.34368 6.90609 8.34129 6.89952 8.33842 6.89316C8.33588 6.88765 8.33288 6.88236 8.32945 6.87736C8.32327 6.86854 8.31497 6.86141 8.30532 6.85664C8.30054 6.85451 8.29552 6.85307 8.29037 6.85216ZM8.46612 6.85131C8.45449 6.85884 8.44345 6.86726 8.43313 6.8765C8.40226 6.90408 8.37886 6.93901 8.36511 6.97805H8.365C8.36992 6.9646 8.37575 6.95189 8.38251 6.93993C8.4025 6.90383 8.43125 6.87336 8.46612 6.85131ZM7.3297 6.86038C7.33188 6.85974 7.33408 6.85974 7.3361 6.86038C7.33297 6.85937 7.32946 6.85991 7.32627 6.8619C7.32309 6.86388 7.3205 6.86716 7.31902 6.87106C7.32001 6.86845 7.32152 6.8661 7.32339 6.86423C7.32526 6.86236 7.32743 6.86104 7.3297 6.86038ZM7.44502 6.90683C7.44588 6.91202 7.44525 6.91736 7.4432 6.9222C7.44527 6.91732 7.4459 6.91195 7.44502 6.90672V6.90683ZM7.97602 6.9095C7.97631 6.90962 7.97659 6.90977 7.97687 6.90993C7.97659 6.90984 7.97631 6.90977 7.97602 6.90971H7.97452L7.97602 6.9095ZM5.58208 6.97323C5.58546 6.97684 5.58952 6.97975 5.59404 6.98179H5.59383C5.58935 6.97973 5.58542 6.97684 5.58208 6.97323ZM7.5677 6.96502L7.5598 6.971C7.56236 6.96887 7.565 6.96694 7.5677 6.96502ZM7.34539 7.03816C7.3411 7.04354 7.33817 7.04988 7.33685 7.05664C7.33553 7.06346 7.3359 7.07049 7.33792 7.07714C7.34024 7.08516 7.34388 7.09274 7.3487 7.09956C7.35461 7.10867 7.36052 7.1165 7.36643 7.12305C7.35991 7.11565 7.35392 7.1078 7.34849 7.09956C7.3437 7.09273 7.3402 7.08516 7.33792 7.07714C7.3359 7.07049 7.33553 7.06346 7.33685 7.05664C7.33817 7.04988 7.3411 7.04354 7.34539 7.03816ZM7.70662 7.04041L7.70576 7.04393C7.70241 7.05861 7.69487 7.07191 7.68409 7.08216H7.68388C7.69466 7.07191 7.7022 7.05861 7.70555 7.04393L7.70662 7.04041ZM9.20331 7.06988C9.20115 7.0766 9.20036 7.08369 9.20096 7.09073C9.20157 7.09777 9.20356 7.10462 9.20683 7.11088C9.20042 7.09814 9.19916 7.08352 9.20331 7.06988ZM12.5716 7.06667C12.5715 7.07842 12.5674 7.15121 12.5592 7.28503L12.5591 7.28525C12.5673 7.15142 12.5715 7.07856 12.5716 7.06667ZM5.67615 7.08322C5.67629 7.0834 5.67643 7.08358 5.67658 7.08376C5.67651 7.08376 5.67644 7.08376 5.67637 7.08376C5.67629 7.08358 5.67622 7.0834 5.67615 7.08322ZM8.7257 7.09027C8.70852 7.14063 8.68761 7.18964 8.66313 7.23688C8.6803 7.18652 8.70122 7.13751 8.7257 7.09027ZM8.52389 7.10223C8.49075 7.1475 8.46281 7.19635 8.4406 7.24787C8.43028 7.30546 8.41918 7.30785 8.40729 7.25503C8.41305 7.2562 8.41899 7.25617 8.42474 7.25494C8.4305 7.25371 8.43593 7.2513 8.44071 7.24787C8.46303 7.1964 8.49093 7.14763 8.52389 7.10223ZM7.33845 7.13843C7.33332 7.13718 7.32795 7.13731 7.32289 7.13881C7.31782 7.14031 7.31325 7.14313 7.30962 7.14697C7.27266 7.1861 7.23801 7.22735 7.20584 7.27051C7.23804 7.22739 7.27273 7.18617 7.30973 7.14708C7.31335 7.14323 7.31793 7.14042 7.32299 7.13892C7.32806 7.13742 7.33343 7.13729 7.33856 7.13854L7.33845 7.13843ZM7.86676 7.15453C7.86657 7.15899 7.86727 7.16361 7.86881 7.16811L7.88632 7.21808V7.21872L7.88611 7.21808L7.86881 7.16811C7.86727 7.16361 7.86657 7.15899 7.86676 7.15453ZM7.39269 7.17035C7.39404 7.17383 7.39476 7.17752 7.39483 7.18125C7.39476 7.18556 7.39405 7.18985 7.39269 7.19395C7.39406 7.18981 7.39478 7.18549 7.39483 7.18114C7.39473 7.17748 7.39401 7.17377 7.39269 7.17035ZM8.26528 7.18648L8.25652 7.20014C8.25965 7.19545 8.26257 7.19096 8.26528 7.18648ZM8.04062 7.18755C8.01993 7.20223 8.00218 7.22067 7.9883 7.24189C7.98353 7.24944 7.97687 7.27389 7.96833 7.31525C7.9768 7.27396 7.98338 7.24951 7.98808 7.24189C8.00202 7.22061 8.01985 7.20224 8.04062 7.18755ZM7.41127 7.19022H7.41149C7.40862 7.19281 7.40662 7.19632 7.40573 7.2003C7.40658 7.19632 7.40845 7.19284 7.41127 7.19022ZM7.96972 7.19502C7.95382 7.24142 7.93265 7.28585 7.90661 7.32742C7.89867 7.34006 7.88888 7.35143 7.87757 7.36116C7.88317 7.35642 7.88838 7.35125 7.89316 7.34568C7.89807 7.34006 7.90255 7.33397 7.90661 7.32742C7.93241 7.28572 7.95357 7.24132 7.96972 7.19502ZM7.83208 7.21189C7.84095 7.21206 7.84974 7.21361 7.85814 7.21648C7.85235 7.21466 7.84642 7.21334 7.84041 7.21253C7.83509 7.21186 7.82971 7.21186 7.82439 7.21253C7.81435 7.21403 7.80494 7.21836 7.79727 7.22502C7.80693 7.21661 7.81928 7.21195 7.83208 7.21189ZM7.55766 7.28215C7.55548 7.29126 7.55049 7.29932 7.54346 7.30511H7.54325C7.55036 7.29935 7.55542 7.29129 7.55766 7.28215ZM7.38522 7.2909C7.36912 7.30505 7.35494 7.32124 7.34304 7.33906C7.35006 7.33122 7.35648 7.32287 7.36226 7.31408C7.36931 7.30596 7.37696 7.29824 7.38522 7.2909ZM5.65448 7.33244C5.6507 7.34561 5.64572 7.35401 5.63953 7.35764C5.64572 7.35422 5.6507 7.34582 5.65448 7.33244ZM7.03136 7.38743C7.01647 7.39263 7.00096 7.39586 6.98523 7.39704C6.98487 7.39716 6.98451 7.39731 6.98417 7.39747C6.98451 7.39723 6.98487 7.39702 6.98523 7.39683C7.00189 7.39555 7.01734 7.39241 7.03136 7.38743ZM7.49328 7.35113H7.49349L7.48911 7.35593L7.49328 7.35113ZM5.68694 7.37665L5.71854 7.39907C5.72637 7.40761 5.73349 7.41665 5.7399 7.42619C5.73332 7.41678 5.72611 7.40783 5.71833 7.39939C5.70807 7.39157 5.69754 7.38399 5.68694 7.37665ZM7.92113 7.3822C7.91337 7.38683 7.90604 7.39216 7.89924 7.39811C7.90458 7.3932 7.91188 7.38789 7.92113 7.3822ZM9.11554 7.42021L9.11383 7.42107C9.11276 7.42139 9.11234 7.42128 9.11137 7.42171L9.11383 7.42085L9.11554 7.42021ZM8.13725 7.42374L8.13116 7.43356C8.1333 7.43036 8.13533 7.42708 8.13725 7.42374ZM8.37269 7.49944L8.37771 7.55496V7.55721L8.3775 7.55496L8.37269 7.49944ZM7.89657 7.48364C7.8839 7.49031 7.87157 7.49762 7.85963 7.50553C7.87102 7.49784 7.88341 7.49054 7.89657 7.48364ZM7.19665 7.49549C7.18923 7.50932 7.18004 7.52214 7.16932 7.53361C7.17394 7.52736 7.17889 7.52138 7.18416 7.51567C7.18872 7.50934 7.19288 7.50268 7.19665 7.49549ZM7.65985 7.5067L7.65611 7.51257C7.65604 7.51257 7.65597 7.51257 7.6559 7.51257L7.65985 7.5067ZM7.37935 7.51065L7.37668 7.51599C7.37065 7.52601 7.36394 7.53561 7.35661 7.54471L7.35554 7.54632C7.35596 7.54578 7.35596 7.54525 7.35639 7.54471C7.36742 7.53005 7.37412 7.52044 7.37646 7.51588L7.37935 7.51065ZM8.02748 7.61326C8.01994 7.64103 8.01211 7.66857 8.00399 7.69591C7.98698 7.75236 8.00698 7.79212 8.064 7.81518C8.06827 7.81692 8.07212 7.81953 8.07528 7.82285C8.07845 7.82616 8.08087 7.8301 8.08237 7.8344C8.10301 7.89092 8.09368 7.90306 8.05439 7.87081C8.00314 7.82903 7.98712 7.84041 8.00634 7.90498C8.02876 7.98115 8.03901 8.05909 8.03709 8.13882C8.03688 8.14769 8.03965 8.15666 8.04499 8.16445C8.07624 8.21008 8.0871 8.26168 8.07756 8.31927C8.07471 8.33707 8.08354 8.38192 8.10404 8.45381C8.10693 8.46394 8.11242 8.472 8.11931 8.47623C8.13376 8.4852 8.14444 8.48125 8.15134 8.46438C8.15499 8.45351 8.15566 8.44186 8.15327 8.43064C8.1388 8.34186 8.13496 8.25168 8.14184 8.16199C8.12931 8.03308 8.11831 7.88786 8.10885 7.72634C8.10809 7.7122 8.10407 7.69842 8.0971 7.68609C8.08059 7.6564 8.07685 7.63416 8.08589 7.61935C8.15622 7.61337 8.21829 7.64131 8.27211 7.70317C8.2924 7.72623 8.32062 7.733 8.35678 7.72346C8.3589 7.7229 8.36108 7.7227 8.36321 7.72285C8.36534 7.723 8.36736 7.72351 8.36917 7.72434C8.37098 7.72518 8.37253 7.72632 8.37374 7.72771C8.37495 7.7291 8.37579 7.7307 8.37622 7.73243C8.3778 7.73944 8.37794 7.74671 8.37664 7.75378C8.37444 7.76452 8.37466 7.77417 8.37728 7.78122C8.44534 7.9715 8.47392 8.16605 8.46303 8.36487C8.45349 8.54041 8.44804 8.63401 8.44669 8.64569C8.43547 8.74225 8.40003 8.8344 8.34365 8.91359C8.31226 8.95773 8.2699 8.98937 8.21658 9.00852C8.16813 9.02606 8.11579 9.02994 8.06528 9.01973C7.99744 9.00663 7.94356 8.97374 7.90362 8.92107C7.87073 8.87786 7.83927 8.81511 7.80923 8.73282C7.78422 8.66507 7.77293 8.59302 7.77602 8.52087C7.7568 8.42277 7.73794 8.32454 7.71943 8.22616L7.73203 8.13487C7.73253 8.1312 7.73203 8.12714 7.73055 8.12297C7.72908 8.11881 7.72667 8.11463 7.72349 8.11074C7.70427 8.08718 7.70327 8.0618 7.7205 8.03461C7.7499 8.02208 7.76001 7.99773 7.75082 7.96157C7.74137 7.924 7.7366 7.88541 7.73662 7.84668C7.73662 7.80682 7.74919 7.77197 7.77431 7.74214C7.83831 7.66583 7.9227 7.62287 8.02748 7.61326ZM4.81115 7.69986L4.80859 7.71342C4.80952 7.70894 4.81037 7.70442 4.81115 7.69986ZM8.86878 7.74513C8.84938 7.74537 8.83007 7.7478 8.81122 7.75239C8.74403 7.76877 8.67569 7.77912 8.60621 7.78347C8.55033 7.79585 8.53624 7.82248 8.56393 7.86333C8.56633 7.86685 8.56968 7.86971 8.57369 7.87169C8.57769 7.87366 8.58222 7.87468 8.58689 7.87465C8.68989 7.87501 8.79158 7.86366 8.89195 7.84059C8.93843 7.84671 8.97708 7.83305 9.00791 7.79959C9.02805 7.77766 9.02325 7.76457 8.99349 7.7603L8.90166 7.74716C8.89077 7.7456 8.87978 7.745 8.86878 7.74513ZM8.50841 8.08255C8.50876 8.08261 8.50912 8.08268 8.50947 8.08276C8.50882 8.08286 8.50818 8.08301 8.50755 8.08319C8.50783 8.08296 8.50811 8.08275 8.50841 8.08255ZM12.4185 8.33112C12.3988 8.41388 12.379 8.49567 12.3576 8.57073H12.3574C12.3787 8.49567 12.3988 8.41388 12.4185 8.33112ZM7.68676 8.36049C7.69701 8.3602 7.70932 8.36515 7.7237 8.37533C7.72544 8.37652 7.72691 8.37806 7.72801 8.37985C7.72911 8.38165 7.72982 8.38365 7.73009 8.38574C7.73036 8.38782 7.73019 8.38994 7.72959 8.39196C7.72898 8.39397 7.72796 8.39584 7.72659 8.39743C7.69704 8.43374 7.67523 8.43587 7.66113 8.40384C7.6592 8.39943 7.65827 8.39472 7.65842 8.39009C7.65857 8.38545 7.65979 8.38102 7.66199 8.37715C7.66825 8.36633 7.67651 8.36077 7.68676 8.36049ZM10.8691 8.52802C10.8367 8.56632 10.8035 8.60316 10.7697 8.63853H10.7695C10.8034 8.60316 10.8366 8.56632 10.8691 8.52802ZM3.57083 8.66192L3.57361 8.66213C3.57265 8.66192 3.5718 8.66224 3.57083 8.66213L3.56357 8.66235L3.57083 8.66192ZM10.6121 8.7924C10.5116 8.88506 10.4036 8.96917 10.2891 9.04386C10.2294 9.08301 10.1654 9.12181 10.0971 9.16025V9.16003C10.1624 9.12352 10.2264 9.08481 10.289 9.04397C10.4035 8.96925 10.5116 8.8851 10.6121 8.7924ZM12.2214 9.0035C12.2258 9.02129 12.2373 9.03646 12.2558 9.04898V9.0492C12.239 9.03881 12.2267 9.02251 12.2214 9.0035ZM12.167 9.10963H12.1672C12.1573 9.12238 12.1495 9.13725 12.144 9.15427C12.1386 9.17135 12.1354 9.19054 12.1344 9.21182C12.1344 9.21225 12.1338 9.21321 12.1338 9.21363L12.1342 9.21182C12.1353 9.19046 12.1386 9.17135 12.144 9.15427C12.1495 9.13725 12.1571 9.1223 12.167 9.10963ZM6.07464 9.16964C6.135 9.19764 6.19178 9.23277 6.24378 9.27428V9.2746C6.19186 9.2329 6.13506 9.19765 6.07464 9.16964ZM10.4297 9.38501C10.3553 9.44371 10.2763 9.49634 10.1934 9.5424V9.54219C10.273 9.49841 10.3518 9.44595 10.4297 9.38501ZM6.05574 9.19143C6.07183 9.19221 6.0697 9.20887 6.04934 9.2414C5.94505 9.40612 5.88789 9.50816 5.87785 9.54753C5.86152 9.61594 5.82183 9.67651 5.76563 9.7188C5.75446 9.72814 5.74056 9.73361 5.72602 9.73438C5.6942 9.73574 5.68829 9.71691 5.70829 9.6779C5.74246 9.64017 5.7667 9.597 5.78101 9.54838C5.81347 9.43947 5.85472 9.33387 5.90476 9.23157C5.91188 9.19904 5.93405 9.18772 5.97128 9.19762C5.99164 9.20324 6.01327 9.20264 6.03343 9.19591C6.04053 9.19306 6.04809 9.19161 6.05574 9.19143ZM12.1108 9.28667C12.0955 9.32084 12.0728 9.3628 12.0419 9.41384C12.0394 9.41777 12.0381 9.4222 12.0381 9.42656C12.0381 9.43092 12.0394 9.43501 12.0419 9.43829C12.0573 9.45894 12.0795 9.46392 12.1084 9.45324C12.0794 9.46392 12.0572 9.45901 12.0416 9.43851C12.0392 9.43521 12.0379 9.43111 12.0379 9.42673C12.0379 9.42235 12.0392 9.41789 12.0416 9.41395C12.0725 9.36312 12.0955 9.3207 12.1108 9.28667ZM4.82642 9.41138C4.85333 9.41324 4.85689 9.42338 4.8371 9.44182C4.78355 9.4917 4.74617 9.55649 4.72979 9.62782C4.72673 9.64063 4.71285 9.65587 4.68815 9.67352C4.68061 9.67866 4.67537 9.68642 4.67352 9.6952C4.6553 9.77895 4.61329 9.85566 4.55254 9.91612C4.54929 9.91936 4.5453 9.92165 4.54104 9.92271C4.53678 9.92377 4.53243 9.92356 4.52851 9.9221C4.49306 9.90914 4.48278 9.88134 4.49766 9.83871C4.51196 9.7972 4.53588 9.7719 4.56941 9.76279C4.57113 9.76228 4.57273 9.76143 4.57408 9.7603C4.57544 9.75917 4.57651 9.75779 4.57722 9.75627C4.57793 9.75475 4.57825 9.75314 4.57815 9.75156C4.57805 9.74999 4.57755 9.74849 4.57667 9.7472L4.56567 9.72979C4.5629 9.72569 4.56092 9.72136 4.55987 9.71708C4.55882 9.7128 4.55872 9.70869 4.55959 9.70502C4.57226 9.64964 4.59269 9.59714 4.62088 9.54753C4.65597 9.44943 4.72456 9.40405 4.82642 9.41138ZM8.44359 9.53503C8.49791 9.54358 8.55225 9.55194 8.60664 9.56013C8.61675 9.56169 8.64867 9.5623 8.70242 9.56194C8.64867 9.56237 8.61675 9.56183 8.60664 9.56034C8.55225 9.55201 8.49791 9.54358 8.44359 9.53503ZM11.9478 9.58554C11.9374 9.60988 11.9305 9.63559 11.9274 9.66188L11.927 9.66274L11.9272 9.66188C11.931 9.6332 11.9378 9.60775 11.9478 9.58554ZM0.78001 9.79429L0.832651 9.84447V9.84479L0.780117 9.7945C0.780117 9.79443 0.78001 9.79436 0.78001 9.79429ZM3.22701 9.79952C3.24588 9.80059 3.24922 9.8124 3.23705 9.83497C3.20424 9.87891 3.17486 9.92532 3.14917 9.97378C3.12438 10.0219 3.09506 10.0676 3.06162 10.1102C3.00161 10.184 2.94461 10.2602 2.89077 10.3386C2.87703 10.3514 2.8671 10.3518 2.86098 10.3398C2.85933 10.3363 2.85864 10.3321 2.85898 10.3275C2.85931 10.3228 2.86066 10.3179 2.8629 10.3131C2.94192 10.1414 3.05468 9.97378 3.20117 9.8102C3.20436 9.80662 3.20834 9.80381 3.21281 9.80196C3.21728 9.80012 3.22213 9.79928 3.22701 9.79952ZM9.38034 9.84394C9.19824 9.88313 9.01347 9.90865 8.82756 9.92028L8.86899 9.9395C8.87326 9.94152 8.8769 9.94424 8.87943 9.94728C8.88196 9.95033 8.88328 9.95357 8.88319 9.95659C8.88255 9.9941 8.86935 10.0345 8.84358 10.0779C8.81945 10.1188 8.80186 10.1778 8.79083 10.2547H8.79062L8.76478 10.3529C8.76359 10.3572 8.76135 10.361 8.75833 10.364C8.75531 10.3669 8.75162 10.3688 8.74769 10.3695L8.65063 10.3862C8.64614 10.3869 8.64161 10.3865 8.63759 10.385C8.63356 10.3835 8.6302 10.3809 8.62789 10.3776C8.60653 10.3467 8.60361 10.3129 8.61913 10.2762H8.61935C8.624 10.2671 8.63103 10.2594 8.6397 10.2539C8.64836 10.2485 8.65834 10.2455 8.66857 10.2453C8.67002 10.2453 8.67144 10.2449 8.67269 10.2441C8.67394 10.2434 8.67499 10.2424 8.67572 10.2411C8.67646 10.2399 8.67687 10.2384 8.6769 10.237C8.67694 10.2355 8.67661 10.2341 8.67594 10.2328C8.66191 10.2027 8.66661 10.1689 8.69003 10.1315C8.72222 10.0799 8.74516 10.0231 8.75784 9.96363C8.76241 9.95058 8.77085 9.93922 8.78202 9.93106C8.79319 9.9229 8.80658 9.91832 8.82041 9.91793L8.82756 9.92028C9.01348 9.90881 9.19827 9.88329 9.38034 9.84394ZM10.3277 9.92616C10.3337 9.92587 10.3423 9.92961 10.3534 9.93737C10.3624 9.94359 10.3715 9.94686 10.379 9.94655L10.4324 9.9442C10.4342 9.94411 10.436 9.94438 10.4376 9.945C10.4393 9.94561 10.4407 9.94655 10.4419 9.94774C10.4432 9.94894 10.4441 9.95037 10.4446 9.95191C10.4451 9.95346 10.4453 9.95509 10.445 9.95669C10.437 9.99976 10.4115 10.0303 10.3682 10.0483C10.3655 10.0495 10.3626 10.05 10.3596 10.05C10.3567 10.05 10.3538 10.0493 10.3511 10.0481C10.3484 10.0469 10.3459 10.0452 10.3439 10.043C10.3419 10.0408 10.3404 10.0383 10.3394 10.0355C10.3131 9.96339 10.3092 9.92701 10.3277 9.92616ZM7.24043 10.0172L7.24737 10.0205L7.24961 10.0223L7.24737 10.0208L7.24043 10.0172ZM10.2945 10.0414C10.2966 10.0398 10.2996 10.0399 10.3034 10.0416C10.3061 10.0426 10.3083 10.0449 10.3099 10.0481C10.3115 10.0512 10.3124 10.0552 10.3124 10.0593C10.3124 10.0987 10.3398 10.1148 10.3947 10.1076C10.3977 10.1072 10.4006 10.1075 10.4034 10.1085C10.4062 10.1094 10.4087 10.111 10.4108 10.113C10.4129 10.1151 10.4145 10.1176 10.4154 10.1204C10.4163 10.1231 10.4166 10.126 10.4162 10.1289C10.3986 10.246 10.3722 10.3615 10.3372 10.4746C10.3212 10.5264 10.294 10.5226 10.2556 10.4634C10.2429 10.4437 10.2385 10.4199 10.2433 10.3971C10.2489 10.3708 10.2555 10.3328 10.2632 10.2831C10.2524 10.2106 10.2605 10.1365 10.2867 10.0681C10.2885 10.0626 10.2897 10.0569 10.2903 10.0512C10.2908 10.0463 10.2922 10.043 10.2945 10.0414ZM7.42612 10.1063L7.43274 10.1085C7.4306 10.1077 7.42825 10.1072 7.42612 10.1063ZM8.32859 10.2295C8.34888 10.2309 8.35636 10.2316 8.37771 10.233L8.38764 10.2352C8.38433 10.2344 8.38081 10.2341 8.3775 10.2332C8.34728 10.2311 8.35668 10.2314 8.32859 10.2295ZM8.51887 10.2588L8.52763 10.2599V10.2602L8.51887 10.2588ZM11.5461 10.2923C11.5373 10.3068 11.5268 10.3203 11.5148 10.3323C11.4926 10.3542 11.4734 10.3788 11.4577 10.4057H11.4575C11.4701 10.3829 11.4891 10.3585 11.5146 10.3323C11.5267 10.3203 11.5372 10.3068 11.5461 10.2923ZM6.482 10.3424C6.50371 10.3397 6.52866 10.343 6.55685 10.3523C6.55858 10.3529 6.56016 10.3538 6.56149 10.3551C6.56282 10.3563 6.56387 10.3578 6.56456 10.3595C6.56525 10.3612 6.56557 10.363 6.56549 10.3648C6.56541 10.3666 6.56494 10.3684 6.56411 10.37C6.5116 10.4687 6.46413 10.57 6.42188 10.6735C6.36515 10.8127 6.28257 10.9263 6.17416 11.0143C6.14369 11.0389 6.13216 11.0319 6.13956 10.9934C6.15038 10.9365 6.17476 10.9006 6.2127 10.8858C6.21449 10.8851 6.21612 10.884 6.2175 10.8827C6.21888 10.8814 6.21999 10.8799 6.22076 10.8782C6.22152 10.8765 6.22193 10.8747 6.22196 10.8729C6.22199 10.871 6.22164 10.8693 6.22093 10.8676L6.20491 10.8249C6.20144 10.8163 6.20144 10.8069 6.20491 10.7986C6.26548 10.6533 6.33989 10.5141 6.42711 10.3829C6.44349 10.3582 6.46178 10.3447 6.482 10.3424ZM7.61938 10.4608C7.63981 10.4569 7.64522 10.4715 7.63561 10.5046C7.61785 10.5654 7.59671 10.6252 7.57229 10.6837C7.56639 10.6978 7.55037 10.7425 7.52424 10.8178C7.50851 10.8633 7.48736 10.9066 7.46125 10.9469C7.43085 10.9944 7.4096 11.0244 7.3975 11.0372C7.37013 11.0651 7.33528 11.0845 7.29713 11.0931C7.26353 11.1013 7.25527 11.0904 7.27236 11.0603C7.27834 11.0503 7.28969 11.0405 7.30642 11.031C7.31035 11.0287 7.31371 11.0257 7.31626 11.0221C7.31881 11.0185 7.32048 11.0145 7.32116 11.0103C7.33836 10.9177 7.37265 10.8292 7.42227 10.7492C7.43772 10.6947 7.46039 10.6435 7.49029 10.5958C7.5078 10.5394 7.54233 10.4977 7.59386 10.4706C7.60195 10.4662 7.61045 10.4629 7.61938 10.4608ZM9.72502 10.5446C9.6404 10.5993 9.55348 10.6503 9.46449 10.6975C9.4543 10.7434 9.4411 10.7885 9.42498 10.8326C9.4101 10.8732 9.39907 10.9181 9.39188 10.9673C9.37644 11.0724 9.3388 11.1729 9.28147 11.2623C9.25107 11.3101 9.22641 11.3074 9.20747 11.2541C9.18733 11.1974 9.19295 11.127 9.22434 11.043C9.24463 10.9884 9.26196 10.9328 9.27634 10.8763V10.876C9.30225 10.8014 9.31692 10.7514 9.32034 10.726C9.32945 10.6595 9.37643 10.6192 9.46128 10.6054C9.46471 10.6048 9.46821 10.6052 9.47144 10.6065C9.47468 10.6078 9.47755 10.6099 9.4798 10.6127C9.48204 10.6155 9.48358 10.6189 9.48429 10.6225C9.48499 10.6261 9.48483 10.6299 9.48381 10.6334L9.46449 10.6975C9.55361 10.6502 9.64031 10.5993 9.72502 10.5446ZM1.33108 10.5663C1.34875 10.5638 1.36673 10.5647 1.38405 10.5691C1.43224 10.5809 1.45776 10.587 1.4606 10.5874V10.5876C1.43501 10.5818 1.40949 10.5757 1.38405 10.5693C1.36671 10.5651 1.34878 10.5641 1.33108 10.5663ZM1.58842 10.6374C1.61137 10.6491 1.63604 10.6624 1.65141 10.6669V10.6671C1.63593 10.6626 1.61148 10.6492 1.58842 10.6374ZM5.03047 10.7025C5.03601 10.7026 5.04144 10.704 5.04634 10.7066C5.05123 10.7092 5.05545 10.7129 5.05864 10.7174C5.06183 10.722 5.06391 10.7272 5.06471 10.7327C5.06552 10.7381 5.06502 10.7437 5.06325 10.749C5.0463 10.8002 5.01814 10.847 4.98082 10.886C4.92752 10.9414 4.88482 11.0061 4.85482 11.0769C4.8517 11.0842 4.85129 11.0938 4.85365 11.1039C4.86319 11.1433 4.84045 11.1773 4.78542 11.2058C4.75004 11.2242 4.72933 11.2136 4.72328 11.1741C4.71836 11.142 4.72826 11.0983 4.75296 11.0428C4.82315 10.8834 4.87191 10.7897 4.89924 10.7617C4.93889 10.7211 4.98257 10.7014 5.03047 10.7025ZM9.17096 10.8591C9.15901 10.8616 9.14741 10.8656 9.13636 10.8708V10.8706C9.14789 10.8653 9.15942 10.8615 9.17096 10.8591ZM2.26955 10.8783C2.29838 10.8917 2.32731 10.9044 2.35497 10.9205V10.9207C2.32721 10.9047 2.29838 10.8917 2.26955 10.8783ZM8.37707 11.0954C8.43131 11.0956 8.44096 11.1293 8.40601 11.1964H8.40622C8.36819 11.2679 8.32513 11.3367 8.27734 11.4021C8.25705 11.4299 8.23363 11.4717 8.20708 11.5277C8.17924 11.587 8.13875 11.6395 8.08845 11.6815C8.08531 11.6841 8.08136 11.6856 8.07734 11.6857C8.07331 11.6857 8.06949 11.6843 8.06656 11.6817C8.04435 11.6619 8.03852 11.6366 8.04905 11.6058L8.27072 11.139C8.27453 11.1309 8.27983 11.1237 8.28624 11.118C8.29264 11.1124 8.29999 11.1083 8.30777 11.1063C8.33032 11.0997 8.3536 11.096 8.37707 11.0954ZM3.65391 11.1882C3.67925 11.1842 3.68405 11.2025 3.66832 11.2428C3.62972 11.3446 3.57312 11.4387 3.50122 11.5204C3.49189 11.5311 3.47979 11.5591 3.46491 11.6045C3.45395 11.6258 3.43039 11.6597 3.39423 11.7062C3.33486 11.7824 3.30845 11.7675 3.315 11.6616C3.38504 11.5365 3.42932 11.4479 3.44783 11.3957C3.47965 11.3056 3.53756 11.2403 3.62155 11.1997C3.63178 11.1944 3.64266 11.1905 3.65391 11.1882ZM10.6713 11.2977C10.6704 11.3009 10.6706 11.3043 10.6718 11.3073C10.673 11.3104 10.6751 11.313 10.6779 11.3148C10.6719 11.3105 10.6697 11.3048 10.6713 11.2977ZM2.96114 11.3944C3.00741 11.4156 3.03958 11.4319 3.05767 11.4432C3.08244 11.4591 3.1055 11.4712 3.12899 11.4843C3.1055 11.4712 3.08244 11.4593 3.05767 11.4435C3.02644 11.4253 2.99421 11.409 2.96114 11.3944ZM2.25075 11.4051C2.38593 11.4923 2.5251 11.577 2.66825 11.6592C2.5269 11.5782 2.38769 11.4934 2.25075 11.4051ZM10.6434 11.4185C10.6434 11.4185 10.6434 11.4185 10.6434 11.4185V11.4185ZM10.4076 11.5093H10.4079C10.3697 11.5461 10.3313 11.5875 10.2925 11.6336C10.2842 11.6439 10.2773 11.6551 10.2719 11.667H10.2717C10.2773 11.6551 10.2842 11.6439 10.2925 11.6336C10.3311 11.5875 10.3695 11.5461 10.4076 11.5093ZM3.55674 11.6205C3.57269 11.6263 3.5892 11.6303 3.60628 11.6324C3.65362 11.6381 3.68601 11.6444 3.70345 11.6513C3.68601 11.6443 3.65362 11.6381 3.60628 11.6327C3.58934 11.6306 3.57271 11.6265 3.55674 11.6205ZM7.88654 11.6276C7.82817 11.6696 7.77104 11.6935 7.71516 11.6992C7.7709 11.6933 7.82802 11.6695 7.88654 11.6276ZM6.02969 11.6637C6.06792 11.6665 6.075 11.6879 6.05094 11.7278C6.03884 11.7483 6.03154 11.7786 6.02905 11.8186V11.8189C6.02165 11.8506 6.00331 11.8787 5.97726 11.8983C5.9696 11.9035 5.96341 11.9106 5.95932 11.9189C5.90731 12.0282 5.83692 12.1278 5.75122 12.2132C5.75015 12.2143 5.74182 12.225 5.72623 12.2452C5.71228 12.2632 5.69491 12.2671 5.67412 12.257C5.66876 12.2543 5.66405 12.2505 5.66029 12.2458C5.65654 12.2411 5.65383 12.2356 5.65235 12.2298C5.65086 12.2239 5.65064 12.2177 5.65169 12.2117C5.65273 12.2057 5.65503 12.1999 5.65843 12.1948L5.87903 11.8687C5.90138 11.844 5.91754 11.8154 5.9275 11.783C5.94181 11.7377 5.96715 11.7008 6.00353 11.6723C6.0113 11.6662 6.02063 11.6631 6.02969 11.6637ZM4.77795 11.7121C4.78635 11.7115 4.79567 11.7139 4.80464 11.7189C4.81909 11.7269 4.83404 11.7328 4.84949 11.7367C4.83375 11.7329 4.8186 11.727 4.80443 11.7192C4.79553 11.7142 4.78629 11.7118 4.77795 11.7123V11.7121ZM4.89764 11.742C4.9978 11.7607 5.09838 11.7767 5.19939 11.7901C5.2938 11.7824 5.38881 11.789 5.48128 11.8095C5.50791 11.8152 5.53791 11.8169 5.5713 11.8147V11.8149C5.54123 11.8174 5.51096 11.8156 5.48139 11.8096C5.38891 11.7892 5.2939 11.7827 5.1995 11.7904C5.09845 11.777 4.9978 11.7609 4.89764 11.742ZM4.10162 11.7605C4.10333 11.7608 4.105 11.7611 4.10664 11.7615V11.7618L4.10162 11.7605ZM8.66483 11.8043C8.70035 11.8045 8.70249 11.839 8.67124 11.9077C8.6696 11.9112 8.667 11.9146 8.66357 11.9175C8.66014 11.9204 8.65596 11.9229 8.65127 11.9248C8.62593 11.9353 8.61782 11.9548 8.62693 11.9834C8.63931 12.0226 8.62978 12.0539 8.59831 12.0771C8.59504 12.0795 8.59261 12.0829 8.59134 12.0867C8.59008 12.0905 8.59005 12.0946 8.59126 12.0983C8.6107 12.16 8.59422 12.214 8.54183 12.2603C8.50876 12.2877 8.4702 12.3076 8.42875 12.3187C8.43339 12.2298 8.45483 12.1425 8.49196 12.0616C8.5015 11.99 8.52456 11.9241 8.56115 11.8637C8.57525 11.8408 8.59425 11.8247 8.61817 11.8154C8.63739 11.8079 8.65295 11.8042 8.66483 11.8043ZM7.02634 11.8268C7.04521 11.8246 7.06471 11.8271 7.08486 11.8343C7.08429 11.8462 7.07297 11.8702 7.0509 11.9062C6.97795 12.0255 6.90294 12.1435 6.82592 12.2602C6.80884 12.2857 6.79528 12.2841 6.78524 12.2554C6.77051 12.2145 6.7757 12.1742 6.80083 12.1347C6.84539 12.0315 6.90234 11.9358 6.97167 11.8475H6.97189C6.98933 11.8358 7.00748 11.8289 7.02634 11.8268ZM7.12138 11.8468C7.11354 11.8569 7.1066 11.8609 7.10055 11.8589C7.10653 11.8611 7.11347 11.857 7.12138 11.8468ZM4.71847 11.8692C4.74025 11.8617 4.75292 11.8711 4.75648 11.8973C4.76374 11.9499 4.74951 11.9971 4.71377 12.0391C4.67982 12.0786 4.65825 12.1085 4.64907 12.1287C4.62344 12.1856 4.5987 12.2427 4.57486 12.3002C4.5634 12.3276 4.55005 12.3445 4.53481 12.3508C4.51453 12.3594 4.49047 12.358 4.46263 12.3466C4.45925 12.3452 4.45618 12.3432 4.45358 12.3406C4.45098 12.338 4.44891 12.335 4.4475 12.3316C4.44608 12.3283 4.44534 12.3247 4.44531 12.321C4.44529 12.3174 4.44599 12.3138 4.44736 12.3104C4.50774 12.1606 4.58906 12.0201 4.68889 11.8931C4.69636 11.8825 4.70659 11.8743 4.71847 11.8692ZM9.79624 11.9454H9.79645C9.77891 11.9643 9.76311 11.9848 9.74926 12.0066C9.74919 12.0066 9.74912 12.0066 9.74904 12.0066C9.7629 11.9848 9.77869 11.9643 9.79624 11.9454ZM9.40053 12.162C9.40063 12.162 9.40074 12.162 9.40085 12.162H9.40053ZM3.41942 12.2082C3.42334 12.213 3.42808 12.2172 3.43341 12.2204V12.2206C3.4281 12.2173 3.42329 12.2131 3.41942 12.2082ZM5.82318 12.9904C5.78453 12.9912 5.74602 12.9954 5.70808 13.0028L5.70786 13.0026C5.7463 12.9952 5.78474 12.9911 5.82318 12.9904Z" fill="#4D596A"/>
</g>
<defs>
<clipPath id="clip0_53_149">
<rect width="13.6674" height="13.6674" fill="white"/>
</clipPath>
</defs>
</svg>
