<svg width="15" height="14" viewBox="0 0 15 14" fill="none" xmlns="http://www.w3.org/2000/svg">
<g clip-path="url(#clip0_43_65)">
<path d="M11.2401 0.395496C11.0871 0.399944 10.936 0.43027 10.7931 0.485188C10.7264 0.510814 10.6311 0.561996 10.5071 0.638733C10.4147 0.695892 10.3212 0.751425 10.2268 0.805305C10.1119 0.909321 9.99644 1.01275 9.88045 1.1156C9.76894 1.22852 9.67077 1.35388 9.58788 1.48921C9.58583 1.49263 9.58456 1.49666 9.58418 1.50104C9.58379 1.50542 9.58429 1.51005 9.58564 1.51462C9.59034 1.53043 9.58621 1.53993 9.57325 1.54313C9.56183 1.54605 9.55293 1.55004 9.54848 1.55424C9.49268 1.60981 9.45364 1.67997 9.43583 1.75669C9.42843 1.78658 9.41626 1.81662 9.39932 1.84681C9.38296 1.87391 9.37086 1.90337 9.36344 1.93415C9.35596 1.97216 9.3486 2.01014 9.34134 2.04808C9.33799 2.06063 9.33191 2.07229 9.32356 2.08224C9.3152 2.09218 9.30475 2.10017 9.29297 2.10563C8.61908 1.91303 7.91848 1.83064 7.21829 1.86165C7.18746 1.86286 7.15685 1.8674 7.127 1.87521C7.0971 1.88318 7.06735 1.89194 7.03773 1.90148C6.29803 1.93912 5.57124 2.1103 4.89248 2.40674C4.84278 2.38545 4.80128 2.34867 4.77417 2.30189L4.73317 2.23216C4.62222 2.07421 4.4946 1.92865 4.35251 1.79801C4.30475 1.73793 4.22563 1.67422 4.11515 1.60688C3.85604 1.44885 3.59037 1.36567 3.31817 1.35734L3.25559 1.36022C3.22742 1.36147 3.19925 1.35786 3.17231 1.34955C3.09547 1.34685 3.01966 1.36791 2.95523 1.40987L2.86831 1.46604C2.64152 1.59702 2.46249 1.77302 2.33123 1.99405C2.18195 2.24604 2.07375 2.5211 2.00663 2.81922C1.9652 3.00231 1.94904 3.20526 1.95815 3.42806C1.96619 3.44799 1.97207 3.4685 1.97577 3.48957C1.97876 3.50608 1.97687 3.52665 1.97011 3.55128C1.96093 3.58505 1.95615 3.61986 1.95591 3.65486C1.95548 3.68048 1.96349 3.71344 1.97993 3.75373C2.01339 3.83631 2.02521 3.92294 2.01538 4.01363C2.06962 4.25138 2.11244 4.4276 2.14383 4.54228C2.15223 4.57303 2.15263 4.59923 2.14501 4.62087L2.11415 4.68515C2.03829 4.75503 1.97284 4.83543 1.91982 4.9239C1.85732 5.02811 1.82436 5.08296 1.82094 5.08844C1.78293 5.15059 1.74947 5.21551 1.72057 5.2832C1.35913 5.89036 1.12469 6.56456 1.03143 7.26498C1.00124 7.3466 0.98844 7.43364 0.993848 7.5205C0.967579 7.70047 0.957217 7.88241 0.962883 8.0642L0.973454 8.39126C0.975661 8.58937 0.982459 8.72526 0.993848 8.79893C1.0464 9.13808 1.12821 9.47204 1.23837 9.79708L1.27254 9.85581C1.37384 10.1653 1.501 10.4658 1.65266 10.754C1.73018 10.9011 1.78969 11.0011 1.83119 11.0541C1.93248 11.2201 2.04355 11.38 2.1638 11.533L2.24538 11.6425C2.2935 11.7068 2.34828 11.7654 2.40971 11.8183C2.47427 11.8967 2.53859 11.9753 2.60265 12.0539C2.71133 12.1449 2.81751 12.2388 2.92106 12.3355C3.02456 12.432 3.11817 12.5084 3.20188 12.5646C3.37602 12.6812 3.55626 12.7885 3.74186 12.8858C3.87588 12.9817 4.01276 13.0735 4.15231 13.1611C4.23901 13.2239 4.3403 13.2775 4.45619 13.3217C4.69338 13.4124 4.91291 13.4857 5.11479 13.5413C5.18953 13.5618 5.28991 13.6025 5.4159 13.6635C5.42434 13.6677 5.43388 13.6694 5.44345 13.6685C5.50284 13.6627 5.56268 13.6631 5.62198 13.6698C5.7153 13.6934 5.80873 13.7167 5.90227 13.7396C5.98007 13.7585 6.28421 13.7856 6.81468 13.821C6.96216 13.8308 7.11015 13.8305 7.25759 13.8199C7.54818 13.835 7.83951 13.8273 8.12889 13.7967C8.21751 13.7874 8.32596 13.7679 8.45423 13.7383C8.56204 13.7138 8.67022 13.6909 8.77873 13.6698C8.89541 13.6267 9.01466 13.591 9.13579 13.5628C9.32089 13.4837 9.5072 13.4075 9.69466 13.3342C9.74705 13.3135 9.80816 13.2822 9.878 13.2402C9.94562 13.1993 10.0083 13.1693 10.066 13.1502C10.203 13.1053 10.3204 13.0457 10.4184 12.9713C10.4474 12.9493 10.482 12.9319 10.522 12.9193C10.5844 12.8997 10.6429 12.869 10.6944 12.8286C10.8249 12.7609 10.9503 12.6839 11.0698 12.5984C11.1888 12.5127 11.3051 12.4234 11.4185 12.3304C11.6199 12.1667 11.8062 11.9851 11.9749 11.7878C12.0255 11.7285 12.0843 11.6768 12.1497 11.6343C12.2333 11.5382 12.3115 11.4375 12.3838 11.3327C12.7383 10.8962 13.027 10.4101 13.2408 9.88998C13.2623 9.85154 13.2824 9.8125 13.301 9.77285C13.3132 9.74708 13.3247 9.70536 13.3356 9.6477C13.3423 9.61106 13.3538 9.57545 13.3697 9.54178C13.3821 9.51544 13.3915 9.4849 13.398 9.45017C13.404 9.41789 13.4153 9.38683 13.4314 9.35823C13.4499 9.32584 13.4612 9.2984 13.4654 9.27591C13.4709 9.24587 13.4762 9.2159 13.4811 9.186C13.4825 9.17796 13.4805 9.16881 13.4754 9.16037C13.4575 9.13048 13.4649 9.10702 13.4978 9.09001C13.5257 9.05104 13.5393 9.00371 13.5365 8.9559C13.536 8.94638 13.538 8.9372 13.5424 8.92942C13.5749 8.86964 13.5922 8.80272 13.5925 8.73465C13.627 8.54224 13.6516 8.3488 13.6664 8.15432C13.6666 8.15361 13.6725 8.11232 13.6839 8.03046C13.6904 7.98455 13.6903 7.93657 13.6837 7.88653C13.6692 7.77462 13.6674 7.66142 13.6784 7.54911C13.6641 7.49275 13.663 7.43385 13.6752 7.37699C13.677 7.36829 13.676 7.35897 13.6723 7.35029C13.6659 7.3347 13.6615 7.31858 13.6592 7.30192C13.6573 7.28911 13.66 7.26861 13.6673 7.24042C13.6739 7.21529 13.6734 7.19383 13.6658 7.17603C13.6472 7.13098 13.6369 7.08294 13.6354 7.03423C13.6351 7.02766 13.6375 7.02126 13.6418 7.01635C13.6462 7.01145 13.6523 7.0084 13.6589 7.00786C13.7761 6.99917 13.8888 6.95944 13.9856 6.89276C14.0545 6.84569 14.1207 6.79482 14.1839 6.74038C14.2599 6.70187 14.3194 6.63712 14.3513 6.55812C14.3782 6.52181 14.4037 6.4848 14.4276 6.44707C14.4322 6.43991 14.4339 6.43053 14.4322 6.4208C14.4277 6.39368 14.4355 6.37542 14.4557 6.36603C14.4657 6.3616 14.4732 6.35574 14.4771 6.34947C14.5781 6.18762 14.6267 5.99861 14.6165 5.80812C14.6165 5.79892 14.6184 5.78981 14.6222 5.78142C14.6298 5.76542 14.6307 5.74708 14.6249 5.73038L14.6117 5.69152C14.5874 5.57768 14.5439 5.46881 14.4831 5.36958C14.4762 5.35803 14.4667 5.34834 14.4552 5.3414C14.415 5.31698 14.3917 5.29377 14.3855 5.27178C14.3808 5.25587 14.3702 5.24239 14.3559 5.23419C14.27 5.18505 14.1885 5.12853 14.1123 5.06527C14.085 5.04249 14.0165 5.01818 13.9069 4.99234C13.8574 4.9932 13.8079 4.99131 13.7586 4.98668C13.6862 4.98006 13.6372 4.97764 13.6118 4.97942C13.5065 4.98653 13.4042 5.01718 13.3124 5.06911C13.2272 5.09512 13.1434 5.12538 13.0612 5.15977C13.0576 5.16126 13.0536 5.16137 13.0499 5.16007C13.0463 5.15877 13.0432 5.15615 13.0413 5.15272C12.7513 4.61306 12.3846 4.11833 11.9526 3.68401C11.9279 3.65938 11.9224 3.63037 11.9359 3.59698L12.1142 3.1576C12.2394 2.83043 12.3203 2.48252 12.3571 2.11385C12.3929 1.7548 12.3495 1.41251 12.2269 1.08698C12.2173 1.06607 12.2059 1.04606 12.1928 1.02719C12.0665 0.781316 11.8845 0.596165 11.6469 0.471734H11.6466C11.5686 0.430878 11.483 0.406286 11.3952 0.399446C11.3436 0.395205 11.2919 0.393851 11.2401 0.395389V0.395496ZM11.1948 0.592178C11.2454 0.594258 11.2957 0.600833 11.3451 0.611825C11.3778 0.619353 11.41 0.628801 11.4416 0.640121C11.3623 0.611575 11.279 0.595405 11.1948 0.592178ZM11.8796 0.949881C11.8815 0.957216 11.8826 0.964733 11.8829 0.972304C11.8829 0.978159 11.8816 0.983938 11.8792 0.989281C11.8804 0.986876 11.8813 0.984222 11.8819 0.981593C11.8832 0.975045 11.8833 0.968308 11.8821 0.961733C11.8815 0.957739 11.8807 0.953782 11.8796 0.949881ZM10.975 1.09841C10.9461 1.09871 10.9173 1.10031 10.8885 1.10321C10.9169 1.10022 10.9457 1.09858 10.9749 1.0983L10.975 1.09841ZM11.0644 1.1015C11.125 1.10613 11.1851 1.11649 11.2438 1.13247C11.3558 1.16297 11.46 1.21715 11.5493 1.29135V1.29146C11.46 1.21726 11.3558 1.16307 11.2438 1.13258C11.1851 1.11656 11.125 1.10616 11.0644 1.1015ZM10.4225 1.29936C10.3488 1.35923 10.2756 1.41984 10.2029 1.4812C10.1111 1.55817 10.029 1.64606 9.9584 1.74291C9.88821 1.84021 9.82999 1.94561 9.78499 2.05684L9.66967 2.34812L9.78478 2.05684C9.83084 1.94365 9.88864 1.83901 9.9584 1.74291C10.0288 1.646 10.111 1.55804 10.2027 1.48099C10.2755 1.41977 10.3487 1.35916 10.4225 1.29936ZM11.0252 1.2512C11.1621 1.24843 11.2875 1.2873 11.4014 1.3678C11.4412 1.39578 11.4729 1.43497 11.4964 1.48537C11.5616 1.62319 11.613 1.76711 11.65 1.91504L11.6756 2.12122C11.6764 2.12804 11.6809 2.13681 11.6882 2.14578C11.7097 2.17247 11.7104 2.20116 11.6903 2.23184C11.6563 2.2831 11.6461 2.34378 11.6598 2.4139C11.6622 2.42661 11.6619 2.43968 11.6588 2.45222C11.6557 2.46476 11.6499 2.47645 11.6418 2.48651C11.6319 2.49794 11.6255 2.51199 11.6233 2.52699C11.6211 2.54198 11.6233 2.55728 11.6296 2.57107C11.6004 2.59698 11.5908 2.62795 11.6009 2.66397L11.5797 2.7638L11.5512 2.83534C11.5505 2.84327 11.5472 2.85073 11.5418 2.85659L11.5422 2.85787L11.5416 2.85659C11.5364 2.87065 11.5346 2.88572 11.5362 2.9006C11.5379 2.91549 11.543 2.92978 11.5512 2.94234C11.4999 2.98077 11.469 3.03075 11.4583 3.09225H11.4581C11.4491 3.12283 11.4467 3.15494 11.4508 3.18653C11.4551 3.22426 11.4427 3.23106 11.4137 3.20693C10.9374 2.81257 10.4164 2.50797 9.85066 2.29313C9.84852 2.29227 9.84666 2.29102 9.84527 2.28952C9.84388 2.28802 9.84301 2.28632 9.84276 2.28459L9.8419 2.27829L9.98477 2.05684C10.1836 1.73764 10.4473 1.49302 10.7758 1.32296C10.8649 1.27683 10.948 1.25291 11.0252 1.2512ZM11.6615 1.56385H11.6626V1.56406L11.6615 1.56385ZM3.43242 1.64724C3.43683 1.64682 3.44106 1.64718 3.44491 1.64831C3.4371 1.64621 3.42795 1.64724 3.41907 1.65119C3.42347 1.64915 3.42799 1.64781 3.43242 1.64724ZM11.7825 1.67223C11.7914 1.67742 11.7967 1.68347 11.7985 1.69038C11.8002 1.69742 11.7983 1.70529 11.7928 1.71397C11.7982 1.70522 11.8 1.69728 11.7985 1.69038C11.7967 1.6834 11.7914 1.67746 11.7825 1.67233V1.67223ZM3.61404 1.67724L3.62216 1.6781L3.62782 1.68002C3.62597 1.67938 3.62408 1.67881 3.62216 1.67831L3.61404 1.67724ZM3.89711 1.7207L3.90085 1.72209L3.90202 1.7223H3.90085L3.89711 1.7207ZM12.2602 1.84061L12.2587 1.84595C12.259 1.8441 12.2595 1.84232 12.2602 1.84061ZM12.2577 1.8908L12.2584 1.894C12.2684 1.93543 12.2769 1.97725 12.284 2.01946H12.2838C12.2768 1.97734 12.2683 1.93549 12.2582 1.894L12.2577 1.8908ZM9.492 1.90692C9.49444 1.91203 9.49769 1.91671 9.50161 1.9208C9.51243 1.93198 9.52674 1.93415 9.54453 1.92731C9.52681 1.93415 9.51246 1.93201 9.5015 1.92091C9.49757 1.91679 9.49443 1.91207 9.492 1.90692ZM9.57016 1.92443C9.57045 1.92443 9.57073 1.92443 9.57101 1.92443C9.57422 1.92518 9.57721 1.92646 9.58041 1.92731L9.57101 1.92465C9.57073 1.92457 9.57045 1.9245 9.57016 1.92443ZM7.82126 1.96212C7.81271 1.96197 7.80415 1.96232 7.79563 1.96319C7.80389 1.96212 7.81244 1.96177 7.82126 1.96212ZM12.1713 2.04135C12.1798 2.04591 12.1848 2.0515 12.1863 2.05812C12.188 2.06452 12.1863 2.07196 12.1812 2.08043C12.1863 2.07203 12.188 2.06456 12.1864 2.05801C12.1848 2.0516 12.1797 2.04605 12.1713 2.04135ZM6.10771 2.11396C6.07368 2.11987 5.94541 2.15721 5.72288 2.22597C5.94555 2.15721 6.07379 2.11987 6.1076 2.11396H6.10771ZM12.2392 2.11482C12.2411 2.11432 12.2432 2.11439 12.2451 2.11503C12.2372 2.11304 12.2271 2.11866 12.2149 2.1319C12.2242 2.12179 12.2322 2.1161 12.2392 2.11482ZM12.2633 2.14503C12.2684 2.16931 12.2704 2.19315 12.2694 2.21657C12.2683 2.23999 12.2642 2.26295 12.2571 2.28544C12.2582 2.37032 12.2462 2.45486 12.2214 2.53605C12.2164 2.55242 12.201 2.5815 12.1751 2.62329C12.201 2.58164 12.2164 2.55256 12.2214 2.53605C12.2461 2.45511 12.258 2.37158 12.2571 2.28544C12.2715 2.24001 12.2736 2.19156 12.2633 2.14503ZM9.30674 2.13008C9.30882 2.14457 9.30612 2.15934 9.29905 2.17215C9.30249 2.16561 9.30494 2.15859 9.30631 2.15133C9.30765 2.14429 9.30779 2.13718 9.30674 2.13008ZM7.47178 2.14567L7.47531 2.14589L7.46804 2.1461L7.47178 2.14567ZM7.18626 2.14792L7.18978 2.14813L7.18274 2.14834L7.18626 2.14792ZM7.58272 2.15048L7.58603 2.15069H7.58625V2.15091L7.58272 2.15048ZM7.36148 2.15507L7.35764 2.15571L7.3555 2.1555H7.35742L7.36148 2.15507ZM6.85749 2.15667C6.85173 2.1672 6.84438 2.17678 6.83571 2.18507C6.84326 2.17845 6.85045 2.16899 6.85749 2.15667ZM7.89494 2.16212H7.90177L7.89494 2.16233V2.16212ZM7.15914 2.18166C7.10019 2.18895 7.0415 2.19821 6.98317 2.20942C7.01516 2.20445 7.04706 2.19889 7.07884 2.19276C7.10554 2.1887 7.1323 2.18493 7.15914 2.18166ZM9.28506 2.19234C9.32379 2.208 9.36216 2.22472 9.40017 2.24252C9.42402 2.24665 9.44669 2.25217 9.46819 2.25907C9.4459 2.25204 9.42318 2.24658 9.40017 2.24252C9.36225 2.2248 9.32387 2.208 9.28506 2.19234ZM6.26745 2.20088C6.26762 2.20087 6.2678 2.20087 6.26798 2.20088C6.2678 2.20095 6.26762 2.20102 6.26745 2.20109V2.20088ZM6.28987 2.20088C6.29008 2.20087 6.2903 2.20087 6.29051 2.20088C6.30724 2.21205 6.32539 2.21931 6.34497 2.22266L6.35063 2.22202L6.34529 2.22277C6.32569 2.21954 6.30701 2.21215 6.29051 2.20109C6.29033 2.20102 6.29005 2.20095 6.28987 2.20088ZM7.79788 2.21807C7.79788 2.21914 7.79734 2.2202 7.79628 2.22127C7.79734 2.22006 7.79788 2.21906 7.79788 2.21807ZM5.99346 2.46387C5.80104 2.4885 5.64316 2.51875 5.5198 2.55463C5.48186 2.56553 5.44445 2.57818 5.40768 2.59253C5.40683 2.59296 5.4064 2.59285 5.40554 2.59317L5.40768 2.59253C5.44445 2.57818 5.48186 2.56553 5.5198 2.55463C5.64323 2.51868 5.80119 2.48843 5.99346 2.46387ZM6.33375 2.29815C6.33124 2.29818 6.32874 2.29865 6.32639 2.29954C6.3287 2.2985 6.33122 2.29802 6.33375 2.29815ZM12.0675 2.43579C12.0652 2.45928 12.0648 2.48782 12.0663 2.52142L12.0661 2.52548V2.52163C12.0646 2.49302 12.0651 2.46434 12.0675 2.43579ZM3.43573 2.52505C3.44013 2.52514 3.44469 2.5262 3.44907 2.52815C3.46851 2.5369 3.49292 2.53925 3.52232 2.5352C3.53791 2.5332 3.55599 2.53641 3.57656 2.54481C3.59285 2.55202 3.6099 2.55736 3.62739 2.56071C3.83867 2.59595 4.00061 2.70472 4.11322 2.88702C4.12533 2.90653 4.14935 2.92497 4.1853 2.94234L4.50189 3.2995L4.71545 3.61385C4.71795 3.61755 4.71939 3.62188 4.7196 3.62636C4.7198 3.63085 4.71877 3.63531 4.71662 3.63927C4.68997 3.69 4.64994 3.73246 4.60087 3.76206C4.59894 3.76318 4.59683 3.76395 4.59468 3.76434C4.59253 3.76473 4.59038 3.76473 4.58838 3.76433C4.58637 3.76393 4.58455 3.76314 4.58303 3.76201C4.5815 3.76089 4.58031 3.75945 4.57952 3.75779L4.55902 3.71369C4.55866 3.68472 4.5467 3.66532 4.52314 3.6555C4.51925 3.6539 4.51489 3.65337 4.51043 3.65397C4.50598 3.65457 4.50158 3.65626 4.49762 3.65891C4.41113 3.71543 4.41213 3.77373 4.50061 3.83381V3.83403C4.50766 3.83922 4.51043 3.84673 4.50894 3.85656C4.49819 3.86632 4.4901 3.87867 4.48545 3.89243L4.4862 3.89574L4.48513 3.89254L4.35518 4.0132C4.35152 4.01661 4.34707 4.01908 4.34223 4.02038C4.33739 4.02167 4.33232 4.02176 4.32746 4.02063C4.32261 4.0195 4.31812 4.01718 4.31441 4.01389C4.31069 4.0106 4.30786 4.00644 4.30617 4.00177L4.25994 3.87204C4.25842 3.86786 4.25585 3.86425 4.25259 3.86174C4.24933 3.85923 4.24554 3.85794 4.24178 3.85805C4.18234 3.85948 4.16526 3.89069 4.19053 3.9517C4.21334 4.00709 4.22583 4.06618 4.22737 4.12606C4.22766 4.13529 4.2248 4.14439 4.21925 4.1519C4.16148 4.23238 4.0916 4.30345 4.01211 4.36257C4.0084 4.36533 4.00398 4.36683 3.99979 4.36675C3.9956 4.36667 3.99198 4.36502 3.98968 4.36215C3.98235 4.35232 3.97915 4.33623 3.98007 4.31388C3.9803 4.30986 3.97958 4.30585 3.97796 4.30216C3.97634 4.29847 3.97388 4.29521 3.97077 4.29266C3.96766 4.2901 3.96399 4.28831 3.96006 4.28743C3.95613 4.28656 3.95205 4.28662 3.94815 4.28762C3.84443 4.31353 3.83817 4.3599 3.92936 4.42675L3.89946 4.4922L3.6937 4.68621C3.67222 4.66141 3.65744 4.63153 3.65077 4.5994C3.6422 4.54841 3.62082 4.50043 3.58863 4.45995C3.58759 4.4586 3.58623 4.45752 3.58467 4.45681C3.58311 4.45611 3.58141 4.45579 3.5797 4.4559C3.57799 4.456 3.57634 4.45652 3.57488 4.45742C3.57342 4.45831 3.5722 4.45955 3.57133 4.46102C3.56166 4.47554 3.55401 4.49131 3.54859 4.5079C3.54432 4.52114 3.53684 4.53669 3.52617 4.55456C3.50894 4.58367 3.51876 4.60275 3.55564 4.61179C3.55859 4.61254 3.56125 4.61427 3.56324 4.61676C3.56523 4.61925 3.56645 4.62236 3.56674 4.62567L3.58052 4.78509C3.56272 4.87058 3.51036 4.91582 3.42345 4.9208C3.41672 4.86281 3.39407 4.80782 3.35799 4.76192C3.35532 4.75862 3.35162 4.75633 3.34753 4.75546C3.34343 4.75458 3.33921 4.75516 3.33557 4.75711C3.30197 4.77477 3.29699 4.80367 3.32062 4.84382C3.33692 4.9056 3.3545 4.967 3.37337 5.02801C3.32254 5.07919 3.26061 5.10296 3.18758 5.09933C3.13324 4.99822 3.08807 4.89245 3.05261 4.78327C3.02447 4.73335 3.00722 4.67804 3.002 4.62097L2.97103 4.54943C2.95308 4.55486 2.93411 4.55607 2.91562 4.55296C2.90108 4.55003 2.88823 4.54162 2.87974 4.52946C2.87234 4.51886 2.8633 4.49373 2.85262 4.45408C2.84721 4.43342 2.84353 4.41235 2.84162 4.39108C2.84361 4.41279 2.84728 4.43379 2.85262 4.45408C2.8633 4.4938 2.87234 4.519 2.87974 4.52946C2.88823 4.54162 2.90108 4.55003 2.91562 4.55296C2.93078 4.5563 2.94918 4.55506 2.97103 4.54943H2.97135C2.96863 4.51969 2.96254 4.49035 2.9532 4.46198C2.94313 4.43449 2.93688 4.40575 2.93462 4.37656C2.92745 4.23917 2.90721 4.10277 2.87419 3.96921C2.86671 3.93895 2.86102 3.88717 2.8571 3.81385C2.85604 3.81417 2.85497 3.81395 2.8539 3.81427L2.85678 3.81363C2.86224 3.76532 2.85699 3.71639 2.84141 3.67034C2.83847 3.66131 2.83781 3.6517 2.83948 3.64236C2.85251 3.57403 2.8587 3.50494 2.85806 3.43511C2.86702 3.39587 2.86184 3.35473 2.84344 3.31894C2.84164 3.31535 2.84096 3.31126 2.84149 3.30719C2.84202 3.30311 2.84374 3.29921 2.84643 3.29598C2.85446 3.28733 2.86045 3.27699 2.86396 3.26572C2.86747 3.25444 2.86841 3.24253 2.86671 3.23085C2.86123 3.19648 2.86518 3.16128 2.87814 3.12898C2.91966 3.02217 2.97066 2.91929 3.03051 2.82157C3.06273 2.76932 3.10559 2.72442 3.15629 2.68981C3.24188 2.63008 3.33118 2.57587 3.42366 2.52751C3.42722 2.52577 3.43134 2.52493 3.43573 2.52505ZM4.04094 2.52964C4.0593 2.55449 4.07827 2.57872 4.09785 2.60236C4.07827 2.57887 4.0593 2.55463 4.04094 2.52964ZM7.02385 2.53359C7.06144 2.5306 7.09632 2.54569 7.12849 2.57887C7.18891 2.64131 7.23846 2.71342 7.2751 2.79221C7.27837 2.79933 7.28407 2.80644 7.29218 2.81356C7.31261 2.83235 7.32728 2.86101 7.33617 2.89952C7.3482 2.95177 7.36984 3.00124 7.40109 3.04794C7.40321 3.05121 7.40449 3.05495 7.40482 3.05883C7.40515 3.06271 7.40453 3.06662 7.403 3.0702C7.40147 3.07379 7.39909 3.07694 7.39606 3.07939C7.39302 3.08184 7.38944 3.0835 7.38561 3.08424C7.33543 3.09321 7.2977 3.08011 7.27243 3.04495C7.25536 3.02077 7.23802 2.99678 7.22043 2.97298C7.11222 2.86004 7.02658 2.72747 6.96812 2.58239C6.96661 2.57863 6.96586 2.57461 6.96591 2.57056C6.96595 2.56652 6.9668 2.56253 6.96838 2.55882C6.96997 2.55512 6.97228 2.55178 6.97516 2.54899C6.97805 2.54619 6.98146 2.54401 6.9852 2.54256C6.99837 2.53758 7.01125 2.53459 7.02385 2.53359ZM5.11682 2.61026L5.1133 2.61218L5.11063 2.61304C5.11169 2.61272 5.11201 2.61229 5.11308 2.61197L5.11682 2.61026ZM5.06471 2.64101L5.0645 2.64154L5.06429 2.64133L5.06471 2.64101ZM4.86472 2.6708C4.87256 2.66926 4.8806 2.66993 4.88786 2.67274C4.89513 2.67555 4.9013 2.68037 4.90562 2.6866V2.68682C4.9013 2.68058 4.89513 2.67576 4.88786 2.67295C4.8806 2.67015 4.87256 2.66947 4.86472 2.67102L4.72207 2.69952C4.71191 2.70204 4.70144 2.70305 4.69099 2.70251C4.69847 2.70308 4.70883 2.70202 4.72207 2.69931L4.86472 2.6708ZM10.1907 2.68201C10.1946 2.68372 10.1993 2.68522 10.2031 2.68682C10.3331 2.74246 10.4596 2.80563 10.5822 2.87603C10.6317 2.90457 10.7529 2.97729 10.9455 3.09417C10.8249 3.02058 10.7037 2.94793 10.582 2.87624C10.5207 2.84097 10.4585 2.8075 10.3953 2.77587C10.3321 2.7444 10.268 2.71477 10.2031 2.68703L10.1907 2.68201ZM11.6138 2.75953C11.6185 2.76452 11.6226 2.76836 11.626 2.77107C11.6295 2.77391 11.6324 2.7758 11.6346 2.77672C11.6314 2.77531 11.6286 2.7734 11.626 2.77107C11.6218 2.76742 11.6177 2.7635 11.6138 2.75953ZM5.13561 2.78003C5.14309 2.79584 5.15024 2.81164 5.15964 2.82638C5.18409 2.874 5.21046 2.92055 5.23652 2.96732C5.21046 2.92055 5.18388 2.8741 5.15942 2.82638C5.15003 2.81164 5.14309 2.79573 5.13561 2.78003ZM4.19107 2.78751C4.19904 2.79342 4.20712 2.79901 4.2153 2.80427C4.28748 2.84962 4.3392 2.89382 4.37045 2.93689C4.33913 2.89389 4.28741 2.84976 4.2153 2.80449C4.20703 2.79914 4.19895 2.79341 4.19107 2.78751ZM5.05741 2.78991C5.06137 2.79082 5.06463 2.79295 5.06663 2.79594V2.79616C5.06469 2.7931 5.06138 2.79088 5.05741 2.78991ZM9.02816 2.84026C9.03913 2.84278 9.04938 2.84774 9.05816 2.85478C9.07931 2.87087 9.09468 2.90005 9.10429 2.94234C9.16409 3.21013 9.1937 3.34588 9.19313 3.34958C9.18672 3.39528 9.19576 3.43657 9.22025 3.47344C9.22293 3.47739 9.22463 3.48177 9.22519 3.48613C9.22575 3.4905 9.22515 3.4947 9.22345 3.49832C9.2063 3.53605 9.17644 3.55413 9.13387 3.55256C9.12971 3.55238 9.12565 3.55089 9.12217 3.54825C9.11868 3.54562 9.11592 3.54196 9.11422 3.53772C9.08422 3.46629 9.06504 3.39079 9.05731 3.3137C9.00596 3.19658 8.96383 3.07563 8.93131 2.95195C8.92905 2.94335 8.92858 2.9344 8.92992 2.92567C8.93126 2.91694 8.93439 2.90862 8.93911 2.90123C8.96844 2.85496 8.99812 2.83467 9.02816 2.84036V2.84026ZM10.834 2.86556C10.9689 2.93447 11.0948 3.01971 11.209 3.11937C11.0948 3.01979 10.9688 2.93456 10.834 2.86556ZM5.97434 2.86578C5.97717 2.86545 5.98009 2.8658 5.98285 2.86678C5.98562 2.86776 5.98816 2.86936 5.99025 2.87144C6.04649 2.92596 6.09639 2.98615 6.13995 3.05199C6.15896 3.08082 6.18971 3.12318 6.23221 3.17906C6.26438 3.22084 6.29133 3.2663 6.31304 3.31541C6.34101 3.37905 6.32197 3.39336 6.25591 3.35834C6.20721 3.33281 6.16166 3.30167 6.1202 3.26555C6.07372 3.2254 6.00766 3.13371 5.92202 2.99049C5.9193 2.98595 5.91755 2.98117 5.91693 2.97661C5.91631 2.97205 5.91685 2.96785 5.9185 2.96444L5.96142 2.87496C5.96258 2.87247 5.96436 2.87034 5.96661 2.86874C5.96885 2.86714 5.97151 2.86613 5.97434 2.86578ZM11.5486 2.86909L11.5495 2.87015H11.5493L11.5486 2.86909ZM5.06258 2.90603C5.07062 2.90993 5.0793 2.91235 5.0882 2.91318C5.09611 2.91412 5.10355 2.91737 5.10958 2.92252C5.10358 2.91739 5.09618 2.91424 5.08831 2.91329C5.0794 2.91243 5.07062 2.90997 5.06258 2.90603ZM2.21452 2.91756C2.20395 2.95814 2.18484 3.08253 2.15836 3.28082C2.18498 3.08079 2.2037 2.9597 2.21452 2.91756ZM5.28278 3.05813C5.28306 3.06226 5.28235 3.06623 5.28072 3.06972C5.2736 3.08324 5.2646 3.09072 5.25371 3.09214C5.26453 3.09072 5.27346 3.08324 5.28051 3.06972C5.28218 3.06625 5.28302 3.06226 5.28278 3.05813ZM11.7762 3.07954C11.8004 3.10194 11.8274 3.1212 11.8565 3.13688C11.8432 3.12742 11.8293 3.11886 11.8149 3.11126C11.8014 3.10145 11.7885 3.09086 11.7762 3.07954ZM4.51097 3.13315C4.52214 3.15471 4.53328 3.18237 4.54439 3.21611C4.54738 3.22494 4.55287 3.23273 4.56019 3.23853C4.61387 3.28106 4.64956 3.34225 4.66014 3.40991C4.64953 3.34223 4.61381 3.28104 4.56009 3.23853C4.5528 3.23271 4.54735 3.22493 4.54439 3.21611C4.53541 3.18763 4.52424 3.15989 4.51097 3.13315ZM11.5473 3.13048C11.545 3.13935 11.5412 3.14779 11.5361 3.15546C11.5327 3.16039 11.53 3.16578 11.528 3.17148C11.5299 3.1658 11.5325 3.16041 11.5359 3.15546C11.5411 3.1478 11.5449 3.13937 11.5473 3.13048ZM8.08222 3.2758C8.09005 3.27617 8.09762 3.27868 8.10411 3.28306C8.10722 3.28512 8.10967 3.28843 8.11118 3.2926C8.11269 3.29678 8.1132 3.30165 8.11266 3.30666C8.10732 3.35222 8.11696 3.39115 8.14159 3.42347C8.17982 3.47387 8.1995 3.50021 8.20064 3.50249C8.21858 3.54278 8.23338 3.59236 8.24506 3.65123C8.24848 3.66867 8.25577 3.68415 8.26695 3.69767C8.30823 3.747 8.33123 3.80185 8.33593 3.86222C8.33806 3.88998 8.32696 3.89713 8.30261 3.88368C8.28114 3.87218 8.26395 3.85405 8.2536 3.832C8.24418 3.81134 8.23421 3.79094 8.2237 3.77082C8.1996 3.73373 8.17809 3.69502 8.15932 3.65496C8.08369 3.54686 8.03633 3.42153 8.02157 3.29043C8.02133 3.28835 8.02151 3.28621 8.02211 3.28421C8.0227 3.28222 8.02369 3.28043 8.02498 3.27902C8.02627 3.27761 8.02781 3.27664 8.02946 3.27619C8.03111 3.27573 8.0328 3.27582 8.03439 3.27644L8.04293 3.28018C8.0459 3.28132 8.04884 3.28197 8.05152 3.28208C8.0542 3.28219 8.05656 3.28176 8.05841 3.28082C8.06586 3.27733 8.07401 3.27562 8.08222 3.2758ZM2.15675 3.29224V3.29246H2.15569L2.15675 3.29224ZM9.14786 3.41429C9.14301 3.41464 9.13294 3.4218 9.11764 3.43575C9.11436 3.43879 9.11212 3.44279 9.11123 3.44718C9.10967 3.45771 9.11451 3.46099 9.12575 3.457C9.12943 3.45572 9.13293 3.45348 9.13605 3.45044C9.13918 3.44739 9.14185 3.44359 9.14391 3.43927C9.15202 3.42219 9.15334 3.41386 9.14786 3.41429ZM11.8037 3.56399C11.8046 3.5648 11.8057 3.56542 11.8068 3.56581C11.808 3.5662 11.8092 3.56634 11.8104 3.56624C11.8116 3.56614 11.8127 3.5658 11.8138 3.56522C11.8148 3.56465 11.8157 3.56387 11.8164 3.56292L11.8175 3.56132L11.8166 3.56292C11.8166 3.56292 11.8165 3.56292 11.8164 3.56292C11.8157 3.56387 11.8148 3.56465 11.8138 3.56522C11.8127 3.5658 11.8116 3.56614 11.8104 3.56624C11.8092 3.56634 11.808 3.5662 11.8068 3.56581C11.8057 3.56542 11.8046 3.5648 11.8037 3.56399ZM4.67871 3.49939C4.69865 3.50017 4.71513 3.50302 4.72815 3.50793C4.71222 3.5025 4.69554 3.49962 4.67871 3.49939ZM7.07703 3.53399C7.12472 3.53199 7.16608 3.5641 7.2011 3.6303C7.2142 3.65507 7.23246 3.67511 7.25588 3.69041C7.27318 3.7018 7.2778 3.71924 7.26976 3.74273C7.2652 3.756 7.26461 3.77029 7.26809 3.78383C7.27156 3.79737 7.27894 3.80955 7.2893 3.81887C7.38291 3.90251 7.43601 3.98362 7.44861 4.06221C7.45345 4.09161 7.44391 4.09745 7.41999 4.07972C7.29635 3.98807 7.1814 3.88524 7.0766 3.77252C7.07044 3.76604 7.06641 3.75745 7.06507 3.74797C7.05724 3.69678 7.03062 3.6556 6.9852 3.62442C6.9812 3.62165 6.9779 3.61797 6.97559 3.61369C6.97327 3.6094 6.972 3.60463 6.97188 3.59976C6.97175 3.5949 6.97278 3.59007 6.97487 3.58567C6.97696 3.58127 6.98006 3.57743 6.98392 3.57445C7.01723 3.54868 7.04827 3.53516 7.07703 3.53388V3.53399ZM4.74833 3.64471L4.74876 3.64578C4.74869 3.64578 4.74862 3.64578 4.74855 3.64578C4.74833 3.64546 4.74855 3.64503 4.74833 3.64471ZM2.79464 3.90247H2.79485L2.79464 3.9029V3.90247ZM11.7784 4.01405C11.7875 4.01365 11.7965 4.01661 11.8037 4.02238C11.9425 4.13414 12.0094 4.27477 12.0045 4.44426C12.0018 4.52961 11.9798 4.5946 11.9383 4.63923C11.897 4.68344 11.844 4.70194 11.7792 4.69476C11.7292 4.68927 11.6837 4.66521 11.6427 4.62257C11.5062 4.48092 11.4943 4.31338 11.607 4.11998C11.646 4.05335 11.7031 4.01804 11.7784 4.01405ZM9.28635 4.11667V4.11752L9.25645 4.21511L9.28613 4.11752C9.28613 4.11716 9.2862 4.11688 9.28635 4.11667ZM2.85838 4.13589C2.85886 4.13634 2.85932 4.1368 2.85977 4.13727C2.85929 4.13676 2.85879 4.13626 2.85828 4.13578L2.85838 4.13589ZM12.1873 4.1629C12.2336 4.21771 12.2802 4.27608 12.3271 4.33801C12.4138 4.45276 12.5019 4.56659 12.5912 4.67949C12.6347 4.73949 12.6715 4.79317 12.7015 4.84051C12.6663 4.78579 12.6294 4.73217 12.591 4.6797C12.5017 4.56689 12.4137 4.4531 12.3269 4.33833C12.282 4.27855 12.2355 4.22004 12.1873 4.1629ZM2.80756 4.18084C2.81804 4.19112 2.82468 4.20469 2.82635 4.21928C2.82451 4.20474 2.8179 4.19122 2.80756 4.18084ZM9.86443 4.24223C9.91547 4.24295 9.96655 4.24857 10.0177 4.25911C10.0689 4.26957 10.1202 4.28498 10.1716 4.30534L10.4288 4.37902C10.5327 4.40308 10.6327 4.43881 10.7287 4.48622C10.8345 4.52808 10.9338 4.5809 11.0265 4.64468C11.0908 4.6891 11.1789 4.75807 11.2909 4.85161C11.5386 5.05892 11.7499 5.30626 11.9159 5.58335C11.9197 5.58956 11.927 5.59337 11.9363 5.59399C11.9456 5.59461 11.9562 5.59198 11.9659 5.58666C11.997 5.56958 12.03 5.55783 12.0648 5.55142C12.0995 5.54523 12.1118 5.55288 12.1019 5.57438C12.1006 5.57724 12.098 5.58025 12.0944 5.5832C12.0908 5.58614 12.0862 5.58896 12.081 5.59147L11.9762 5.64154C11.9727 5.64331 11.9701 5.64642 11.9689 5.65029C11.9676 5.65416 11.9676 5.65853 11.9691 5.66258C11.9974 5.73756 12.0361 5.80819 12.084 5.8724C12.1973 6.1353 12.2825 6.40947 12.3381 6.69031C12.3397 6.69785 12.3383 6.70715 12.3343 6.71679C12.3217 6.74654 12.3228 6.79513 12.3375 6.86254C12.3403 6.87564 12.3422 6.88898 12.343 6.90258C12.3452 6.94678 12.3508 6.99113 12.3599 7.03562C12.3669 7.0705 12.3679 7.10353 12.363 7.13471C12.3548 7.18639 12.3504 7.21978 12.3499 7.23487C12.317 8.10175 11.9867 8.81887 11.3589 9.38621C10.938 9.76676 10.4387 10.0003 9.8608 10.0869C9.8591 10.0872 9.83852 10.093 9.79909 10.1044C9.77575 10.111 9.75099 10.1106 9.72787 10.1033C9.71904 10.1005 9.70968 10.0998 9.70053 10.1013C9.50122 10.1355 9.32019 10.1394 9.15747 10.113C9.08294 10.1008 9.02399 10.0972 8.98064 10.1021C8.97143 10.1033 8.96208 10.102 8.95352 10.0984C8.86285 10.0589 8.76762 10.0308 8.67003 10.0148C8.59113 9.9765 8.51057 9.9417 8.42861 9.91048C8.14661 9.80354 7.88693 9.64514 7.66281 9.44333C7.23271 9.0568 6.93412 8.57097 6.76705 7.98583C6.76437 7.97641 6.76262 7.96676 6.76182 7.957C6.75463 7.85976 6.73997 7.78384 6.71783 7.72924C6.70112 7.68777 6.69085 7.64398 6.6874 7.5994L6.69381 7.51366C6.69922 7.44383 6.6596 7.40802 6.57496 7.40624C6.54079 7.40568 6.53948 7.39881 6.57101 7.38564C6.60155 7.37282 6.63501 7.37852 6.67138 7.40272C6.68263 7.4102 6.68768 7.40756 6.68654 7.39482L6.66594 7.17913C6.66575 7.1756 6.66428 7.17184 6.66168 7.16817C6.65907 7.16451 6.6554 7.16105 6.65099 7.15809C6.628 7.14265 6.628 7.12713 6.65099 7.11154C6.65918 7.10585 6.66505 7.09859 6.66765 7.09093C6.68345 7.04039 6.68929 6.98843 6.68516 6.93504V6.87781L6.68388 6.87738L6.68516 6.87759C6.70803 6.74586 6.74387 6.61671 6.79215 6.49202C6.83921 6.22359 6.9318 5.96517 7.06592 5.72793C7.09084 5.71625 7.0976 5.69753 7.08621 5.67176L7.19939 5.52783C7.30437 5.33972 7.44315 5.17259 7.60878 5.03484V5.03505L7.80044 4.90051C7.80968 4.89504 7.81739 4.88733 7.82286 4.87809C7.87782 4.84641 7.93402 4.81723 7.99146 4.79053C8.05969 4.72288 8.138 4.66622 8.2236 4.62257C8.41366 4.55139 8.60169 4.47522 8.7877 4.39407C8.86191 4.38686 8.93521 4.37219 9.00648 4.35029C9.28232 4.26565 9.55404 4.24159 9.82162 4.27811C9.96527 4.29769 10.0819 4.30676 10.1716 4.30534C10.1218 4.28546 10.0702 4.26999 10.0177 4.25911C9.96724 4.24863 9.91593 4.24298 9.86443 4.24223ZM6.41555 4.2574C6.41939 4.25807 6.42318 4.25957 6.42666 4.2618C6.43014 4.26403 6.43323 4.26693 6.43573 4.27032C6.51153 4.37455 6.59335 4.47428 6.68078 4.56897C6.71338 4.59681 6.74417 4.62656 6.77314 4.65824C6.79521 4.68208 6.80578 4.70419 6.80485 4.72455C6.80329 4.75459 6.78271 4.77195 6.74314 4.77665C6.73442 4.77784 6.72514 4.77564 6.71698 4.77046C6.63533 4.71921 6.54596 4.63891 6.44886 4.52957C6.38885 4.4623 6.34874 4.40251 6.32852 4.35019C6.3266 4.34525 6.32579 4.34018 6.32619 4.33565C6.32659 4.33112 6.32818 4.32733 6.33076 4.32477L6.39504 4.26306C6.39762 4.26059 6.40078 4.25881 6.40429 4.25784C6.40781 4.25686 6.41172 4.25671 6.41555 4.2574ZM8.27528 4.52477C8.28973 4.5237 8.30468 4.5237 8.32012 4.52477C8.25819 4.52064 8.20466 4.5331 8.15953 4.56214C8.15917 4.56221 8.15882 4.56228 8.15846 4.56235C8.15882 4.56221 8.15918 4.56207 8.15953 4.56192C8.19439 4.54003 8.23419 4.52726 8.27528 4.52477ZM8.08596 4.57111C8.07901 4.57112 8.07206 4.57148 8.06514 4.57218C8.07155 4.57139 8.07849 4.57104 8.08596 4.57111ZM5.28286 4.60261C5.30884 4.59862 5.34151 4.62079 5.38088 4.66913C5.40401 4.71198 5.43501 4.74622 5.47388 4.77185C5.52264 4.80424 5.54745 4.82079 5.5483 4.8215C5.6192 4.87731 5.68964 4.93361 5.75962 4.99042C5.77855 4.99967 5.79389 5.0163 5.80564 5.04029C5.80759 5.04432 5.80846 5.0488 5.80818 5.05328C5.80789 5.05775 5.80646 5.06208 5.80401 5.06584C5.80156 5.0696 5.79818 5.07266 5.7942 5.07473C5.79022 5.0768 5.78577 5.07781 5.78129 5.07766C5.65344 5.07218 5.55535 5.01676 5.48701 4.91141C5.482 4.90383 5.47444 4.89812 5.46555 4.89517C5.39558 4.87317 5.33693 4.82475 5.30208 4.76021C5.29783 4.75251 5.29039 4.74668 5.28136 4.74398C5.26326 4.73838 5.24655 4.72899 5.23235 4.71643C5.22914 4.71358 5.22676 4.70983 5.22544 4.70558C5.22413 4.70132 5.22394 4.6967 5.22488 4.69219C5.23755 4.63631 5.25688 4.60652 5.28286 4.60261ZM7.93829 4.76704C7.93169 4.77254 7.92257 4.77522 7.91288 4.77452C7.87835 4.77195 7.85358 4.77929 7.83856 4.79651C7.85358 4.77929 7.87842 4.77192 7.91309 4.77441C7.92267 4.77512 7.9317 4.77241 7.93829 4.76704ZM2.24474 4.92208C2.22037 4.95473 2.19337 4.98534 2.16401 5.01359C2.15855 5.06671 2.1349 5.11631 2.09707 5.154C2.09685 5.15425 2.09664 5.1545 2.09643 5.15475C2.09656 5.15439 2.0967 5.15404 2.09685 5.15368C2.13515 5.11524 2.15757 5.06855 2.16412 5.01359C2.19345 4.98533 2.22032 4.95483 2.24474 4.92208ZM7.50766 4.94237C7.51193 4.94607 7.51449 4.95063 7.51535 4.95604C7.51608 4.96245 7.51535 4.96895 7.51321 4.97504C7.50858 4.98907 7.49748 5.00629 7.4799 5.02672C7.49719 5.00644 7.50862 4.98893 7.51321 4.97504C7.51535 4.96895 7.51608 4.96245 7.51535 4.95604C7.51445 4.9507 7.51173 4.94583 7.50766 4.94226V4.94237ZM7.41145 5.02139C7.42469 5.0342 7.43694 5.04121 7.44818 5.04242C7.43694 5.04135 7.42469 5.03441 7.41145 5.02139ZM2.33251 5.03067C2.36604 5.12047 2.40928 5.20472 2.46747 5.28075C2.40928 5.20493 2.36604 5.12058 2.33251 5.03067ZM13.7175 5.10243C13.9043 5.0909 14.0579 5.16091 14.1782 5.31246C14.1843 5.31474 14.187 5.31986 14.1865 5.32783L14.2983 5.40834C14.3214 5.425 14.3191 5.43397 14.2914 5.43525C14.2179 5.43895 14.2231 5.47038 14.3069 5.52954C14.332 5.54747 14.3498 5.57089 14.3603 5.59979C14.3818 5.6598 14.391 5.73277 14.388 5.81869C14.3877 5.82738 14.3907 5.83648 14.3966 5.84442C14.4186 5.87368 14.4054 5.88521 14.357 5.87902C14.3586 5.88445 14.3614 5.88947 14.3652 5.89376C14.3689 5.89804 14.3735 5.9015 14.3786 5.90389C14.383 5.90585 14.3871 5.90829 14.3909 5.91116C14.4033 5.92326 14.3995 5.92881 14.3795 5.92781C14.3875 5.9812 14.3857 6.03377 14.3742 6.08552C14.3739 6.08698 14.3732 6.08834 14.3722 6.08948C14.3712 6.09062 14.37 6.09152 14.3685 6.09211C14.367 6.0927 14.3654 6.09296 14.3638 6.09287C14.3621 6.09278 14.3605 6.09235 14.359 6.09161C14.3419 6.08285 14.3277 6.0846 14.3165 6.09684C14.3141 6.0996 14.3128 6.10335 14.3129 6.1075C14.313 6.11165 14.3145 6.11595 14.3171 6.11969C14.3664 6.19088 14.353 6.25309 14.2771 6.30634C14.2742 6.34755 14.2624 6.35236 14.2414 6.32075C14.1831 6.36667 14.1863 6.38197 14.251 6.36667C14.2562 6.36548 14.2612 6.3652 14.2654 6.36586C14.2696 6.36653 14.2729 6.36811 14.2747 6.3704C14.2777 6.37418 14.2793 6.37898 14.2793 6.38482C14.3275 6.40425 14.3449 6.43497 14.3317 6.47697C14.3304 6.48105 14.3276 6.48449 14.3239 6.48657C14.3203 6.48864 14.3161 6.48918 14.3121 6.48807L14.2211 6.46244L14.127 6.57627C14.1209 6.5836 14.1123 6.5882 14.1032 6.58908C14.0673 6.59314 14.0516 6.60602 14.0559 6.62774C14.0744 6.6466 14.0798 6.66678 14.0721 6.68828C14.0708 6.69178 14.0682 6.69492 14.0646 6.69733C14.061 6.69975 14.0566 6.70135 14.0518 6.70194C14.0338 6.70474 14.0165 6.71106 14.001 6.72052C13.9862 6.7453 13.962 6.76434 13.9284 6.77765C13.8947 6.79096 13.8419 6.81954 13.7701 6.86339C13.7458 6.88802 13.7152 6.89955 13.6783 6.89799L13.5657 6.89735C13.5322 6.89727 13.4936 6.88834 13.4498 6.87055L13.1444 6.74743C13.1191 6.73711 13.0804 6.71148 13.0286 6.67055C12.7951 6.48675 12.7035 6.24515 12.7538 5.94575C12.754 5.94468 12.7548 5.93255 12.7562 5.90934C12.7573 5.88813 12.7667 5.87047 12.7845 5.85638L12.8081 5.81367C12.8068 5.76747 12.8251 5.7317 12.8629 5.70636C12.8621 5.69557 12.8637 5.68473 12.8676 5.67465C12.8716 5.66457 12.8777 5.65551 12.8857 5.64816C12.8964 5.63859 12.9045 5.62646 12.9093 5.61291C12.9141 5.59936 12.9153 5.58482 12.913 5.57064C12.905 5.5468 12.8912 5.53826 12.8714 5.54502C12.8688 5.54599 12.866 5.54833 12.8632 5.55182C12.8604 5.5553 12.8577 5.55983 12.8554 5.56499L12.8137 5.65735C12.8118 5.66125 12.8089 5.66471 12.805 5.66744C12.8012 5.67016 12.7966 5.67209 12.7916 5.67304C12.7752 5.67618 12.769 5.66881 12.773 5.65094C12.7862 5.59357 12.8175 5.54587 12.867 5.50786C12.8702 5.50533 12.8741 5.50346 12.8785 5.50238C12.8829 5.5013 12.8878 5.50102 12.8927 5.50156C12.9305 5.50562 12.9611 5.49298 12.9846 5.46365C13.0175 5.40149 13.0669 5.34956 13.1273 5.31353C13.2666 5.17742 13.436 5.1104 13.6354 5.11247H13.6356C13.6627 5.10761 13.69 5.10426 13.7175 5.10243ZM2.08585 5.17728C2.08585 5.17749 2.08585 5.17771 2.08585 5.17792L2.09376 5.24092L2.08564 5.17771C2.08571 5.17756 2.08578 5.17742 2.08585 5.17728ZM9.48068 5.24775C9.44739 5.24708 9.4141 5.24918 9.38116 5.25405C9.07137 5.29925 8.80208 5.41012 8.57329 5.58666C8.47335 5.66397 8.41843 5.76943 8.40853 5.90304C8.40497 5.95159 8.41729 5.9928 8.44548 6.02669C8.4806 6.06906 8.52544 6.10232 8.57617 6.12364C8.65284 6.15681 8.73232 6.17699 8.81461 6.18418L8.92288 6.20234C8.96018 6.2086 8.99784 6.20518 9.03585 6.19209C9.05777 6.18447 9.12682 6.18636 9.24299 6.19774C9.24706 6.19816 9.25086 6.19991 9.25374 6.20271C9.25662 6.20552 9.25841 6.20919 9.2588 6.21312C9.27033 6.3347 9.28869 6.45533 9.31389 6.57499C9.32101 6.6088 9.32457 6.654 9.32457 6.71059C9.32429 6.75686 9.32987 6.80267 9.34134 6.84802C9.34213 6.85119 9.34395 6.85465 9.34668 6.85818C9.34941 6.86172 9.353 6.86527 9.35725 6.86862L9.38714 6.89201C9.38717 6.89854 9.38581 6.90501 9.38314 6.91098C9.38047 6.91694 9.37655 6.92227 9.37166 6.9266C9.35087 6.95187 9.34643 6.97892 9.35831 7.00775C9.36206 7.01633 9.36416 7.02553 9.36451 7.03487C9.36472 7.12599 9.38565 7.21156 9.42729 7.29157C9.42797 7.29296 9.42832 7.29449 9.4283 7.29604C9.42829 7.29758 9.42791 7.2991 9.4272 7.30046C9.42649 7.30182 9.42546 7.30298 9.42422 7.30385C9.42297 7.30471 9.42154 7.30526 9.42003 7.30545C9.2526 7.32139 9.16505 7.3288 9.15736 7.32766C9.09899 7.31812 9.03912 7.32549 8.98481 7.34891V7.34912L8.97167 7.3504V7.35019C8.92247 7.32475 8.86665 7.31498 8.81172 7.32221C8.76574 7.3284 8.7295 7.32897 8.70302 7.32392C8.60812 7.30609 8.51241 7.29287 8.41622 7.28431C8.40697 7.28332 8.39814 7.27993 8.3906 7.27448C8.34525 7.24337 8.29613 7.23768 8.24324 7.2574L8.10027 7.26466V7.26445C8.02659 7.27306 7.96075 7.29897 7.90273 7.34218C7.86002 7.37407 7.83251 7.39521 7.82019 7.4056C7.79307 7.42895 7.77114 7.45772 7.75581 7.49006C7.73292 7.53742 7.70688 7.58319 7.67786 7.62706C7.64805 7.67057 7.63239 7.72221 7.63301 7.77494C7.63316 7.81246 7.63921 7.86204 7.65117 7.92369C7.66405 7.99088 7.69274 8.05171 7.73723 8.10617C7.7383 8.11151 7.74068 8.1162 7.74438 8.12026V8.12047C7.75079 8.15229 7.76883 8.17429 7.79852 8.18646C7.85441 8.2377 7.91616 8.28214 7.98249 8.31887C7.98687 8.32138 7.99163 8.32278 7.99618 8.32289C8.00073 8.32301 8.00488 8.32183 8.00812 8.31951C8.01305 8.31586 8.01701 8.31106 8.01965 8.30552C8.02165 8.30141 8.02424 8.29788 8.02717 8.29531C8.03009 8.29274 8.03325 8.29122 8.03631 8.29089C8.04998 8.28947 8.05282 8.29509 8.04485 8.30776C8.01495 8.35617 8.02392 8.38656 8.07176 8.39895C8.23385 8.4408 8.39818 8.46903 8.56475 8.48362C8.569 8.48392 8.57304 8.48551 8.5763 8.48818C8.57956 8.49084 8.58187 8.49444 8.5829 8.49846C8.595 8.54616 8.58464 8.58752 8.55183 8.62254C8.54517 8.62975 8.5413 8.63839 8.54094 8.64688C8.53706 8.79996 8.5402 8.95313 8.55033 9.10592C8.56087 9.27534 8.59461 9.4344 8.65156 9.5831C8.67469 9.64404 8.71053 9.68913 8.75908 9.71839C8.91014 9.80929 9.0671 9.82282 9.22997 9.75896C9.28421 9.73732 9.31781 9.72213 9.33076 9.71337C9.36394 9.69116 9.38444 9.6576 9.39227 9.61268C9.39535 9.59359 9.40387 9.57579 9.41683 9.56143C9.43477 9.54171 9.44569 9.52729 9.44961 9.51818C9.51088 9.38494 9.53099 9.23645 9.50737 9.09172C9.52901 8.92991 9.5228 8.76559 9.48901 8.60588C9.48785 8.60045 9.486 8.59553 9.48361 8.59151C9.48122 8.58749 9.47835 8.58448 9.47523 8.58271C9.46342 8.57609 9.45537 8.58399 9.4511 8.60642C9.44683 8.62777 9.43633 8.63845 9.4196 8.63845C9.41547 8.63844 9.41146 8.63679 9.40832 8.63383C9.40518 8.63087 9.40312 8.62678 9.40252 8.62233C9.4001 8.6097 9.40134 8.59664 9.40611 8.5847C9.41088 8.57276 9.41897 8.56243 9.42943 8.55495C9.43781 8.54855 9.44334 8.54076 9.4448 8.53327C9.45249 8.49483 9.43526 8.47864 9.39312 8.48469C9.37839 8.48683 9.36942 8.48494 9.36621 8.47903C9.36541 8.47755 9.36514 8.47585 9.36542 8.47406C9.3657 8.47227 9.36653 8.47044 9.36785 8.46869C9.36916 8.46693 9.37093 8.4653 9.37303 8.46392C9.37513 8.46253 9.3775 8.46142 9.37999 8.46067C9.45715 8.43554 9.53599 8.41852 9.6165 8.40963C9.64768 8.40614 9.68598 8.39557 9.73139 8.37791C9.78512 8.35715 9.84308 8.34972 9.90031 8.35624C9.90764 8.35695 9.95046 8.34741 10.0288 8.32762L10.1134 8.30616C10.2756 8.24276 10.4371 8.17755 10.5979 8.11054C10.6214 8.1008 10.6442 8.08938 10.6661 8.07638C10.688 8.06364 10.7089 8.04937 10.7287 8.03367L10.7918 7.94974C10.8062 7.93059 10.832 7.90817 10.8692 7.88247C10.8998 7.86133 10.925 7.8341 10.9447 7.80079C11.0464 7.69291 11.1363 7.57442 11.2127 7.44735C11.2355 7.36242 11.2616 7.27843 11.2911 7.19557C11.2972 7.17835 11.2972 7.16521 11.2911 7.15617C11.2825 7.14407 11.2671 7.13962 11.2446 7.14283C11.2201 7.14639 11.2179 7.14105 11.2382 7.12681C11.254 7.1157 11.2678 7.11264 11.2797 7.11763C11.2832 7.11921 11.2871 7.11968 11.2906 7.11895C11.294 7.11822 11.2968 7.11634 11.2983 7.11368C11.3304 7.05559 11.3333 6.99469 11.3071 6.93098C11.2951 6.90137 11.2671 6.85207 11.2231 6.78309C11.167 6.69476 11.0927 6.65646 11.0001 6.6682C10.9914 6.66937 10.9823 6.6673 10.9743 6.66233C10.9541 6.64916 10.9342 6.64478 10.9145 6.6492V6.64898C10.7442 6.68636 10.5829 6.76875 10.4305 6.89617C10.4146 6.90931 10.3964 6.91928 10.3769 6.92554C10.2753 6.95778 10.1729 7.00313 10.0699 7.06157C9.94321 7.10682 9.81916 7.15908 9.69829 7.2181C9.69672 7.21882 9.6769 7.2333 9.63882 7.26156C9.61475 7.2795 9.58521 7.28448 9.55019 7.27651C9.52217 7.24551 9.50648 7.20532 9.50609 7.16354V7.16333C9.51969 7.11706 9.51061 7.07623 9.47886 7.04085L9.47758 6.91347C9.4686 6.69573 9.4361 6.4796 9.38063 6.26886C9.3775 6.23398 9.34949 6.20671 9.2966 6.18707C9.28571 6.18322 9.28578 6.17977 9.29681 6.17671C9.38615 6.15158 9.47719 6.12759 9.56994 6.10474C9.63216 6.08922 9.72851 6.03555 9.85899 5.94372C9.95295 5.87788 10.0109 5.78228 10.0327 5.65692C10.0512 5.55192 10.0285 5.47177 9.96449 5.41646C9.93338 5.38977 9.86632 5.35613 9.76332 5.31556C9.70224 5.29154 9.63932 5.27251 9.57518 5.25864H9.57496C9.54392 5.25222 9.51237 5.24858 9.48068 5.24775ZM10.7287 8.03367C10.6887 8.06505 10.6447 8.09091 10.5979 8.11054C10.4371 8.17755 10.2756 8.24276 10.1134 8.30616L10.0248 8.36937C10.0144 8.3767 10.0054 8.38428 9.99842 8.39164C9.99143 8.399 9.9866 8.40596 9.98424 8.41208C9.96345 8.46889 9.97335 8.48526 10.0139 8.4612C10.0684 8.42917 10.125 8.40212 10.1839 8.38005C10.2797 8.34417 10.3379 8.32129 10.3585 8.31139C10.5471 8.22024 10.7263 8.1108 10.8935 7.98465C10.8973 7.98192 10.9001 7.97823 10.9016 7.9742C10.9031 7.97017 10.903 7.96602 10.9016 7.96245C10.893 7.94223 10.8776 7.94433 10.8554 7.96874C10.8236 8.00377 10.7814 8.02548 10.7287 8.03367ZM12.9389 5.2753C12.9378 5.27868 12.9362 5.28185 12.9341 5.2847H12.9338C12.936 5.28187 12.9377 5.27869 12.9389 5.2753ZM2.52973 5.33477H2.52994C2.55343 5.35399 2.56685 5.38033 2.57019 5.41379C2.57183 5.42917 2.57575 5.44009 2.58194 5.44657H2.58162C2.57557 5.44016 2.57176 5.42924 2.57019 5.41379C2.56917 5.39855 2.56504 5.38368 2.55806 5.37009C2.55109 5.35651 2.54141 5.34449 2.52962 5.33477H2.52973ZM1.97288 5.40279L1.97224 5.40525L1.9716 5.40632L1.97203 5.40525L1.97288 5.40279ZM1.9858 5.4911H1.98815C1.98687 5.4911 1.98563 5.4912 1.98442 5.49142L1.9858 5.4911ZM1.9447 5.5195L1.94491 5.52057V5.52078L1.88319 5.61133C1.88304 5.61168 1.8829 5.61204 1.88276 5.61239C1.88283 5.61204 1.8829 5.61168 1.88298 5.61133L1.9447 5.52057V5.5195ZM9.78574 5.55121H9.78595C9.78623 5.55162 9.78648 5.55205 9.7867 5.55249C9.78638 5.55204 9.78613 5.55161 9.78574 5.55121ZM1.87657 5.63653C1.87888 5.6573 1.87681 5.67832 1.87049 5.69824C1.86408 5.7196 1.8534 5.74191 1.83845 5.76519L1.8376 5.76647L1.83813 5.76519C1.85211 5.74457 1.86301 5.72201 1.87049 5.69824C1.87689 5.67682 1.87892 5.65624 1.87657 5.63653ZM5.23748 5.65115C5.25205 5.65043 5.26664 5.6522 5.28062 5.65639C5.3686 5.68223 5.40921 5.72366 5.40245 5.78067C5.40179 5.78701 5.40289 5.79339 5.40562 5.79912C5.40835 5.80485 5.41261 5.8097 5.41793 5.81314C5.46192 5.84132 5.4799 5.87478 5.47185 5.91351C5.46637 5.93999 5.47306 5.99245 5.49193 6.07089C5.49998 6.10188 5.50161 6.13418 5.49673 6.16582C5.49184 6.19745 5.48054 6.22776 5.46352 6.25487C5.42404 6.32142 5.36919 6.37754 5.30357 6.41856C5.29989 6.42087 5.29571 6.42241 5.29127 6.42309C5.28683 6.42377 5.28223 6.42357 5.27773 6.42251L5.09301 6.38087C5.08383 6.37865 5.0758 6.37391 5.07005 6.36731C4.96185 6.24003 4.92597 6.09446 4.96242 5.93059C4.96675 5.90485 4.96829 5.87871 4.96701 5.85264C4.96594 5.81833 4.97659 5.79281 4.99894 5.77608C5.05934 5.72976 5.12526 5.69114 5.19519 5.66109C5.20915 5.65525 5.22324 5.65194 5.23748 5.65115ZM12.6482 5.76167C12.6175 5.82666 12.6016 5.89019 12.6007 5.95227C12.6004 5.97298 12.6018 5.99348 12.6049 6.01377C12.6061 6.02292 12.6046 6.03234 12.6006 6.04089C12.5856 6.07278 12.5782 6.09926 12.5784 6.12033C12.5782 6.09919 12.5857 6.07271 12.6007 6.04089C12.6046 6.0323 12.606 6.02289 12.6046 6.01377C12.6017 5.99341 12.6004 5.97284 12.6007 5.95227C12.6016 5.89033 12.6173 5.82687 12.648 5.76188L12.6482 5.76167ZM9.35255 5.79007L9.35361 5.79039C9.35291 5.79021 9.35218 5.79021 9.35148 5.79039C9.35191 5.79039 9.35223 5.78996 9.35255 5.79007ZM9.3502 5.79082L9.34945 5.79125V5.79103C9.34966 5.79082 9.34999 5.79103 9.3502 5.79082ZM6.95658 5.81004C6.94897 5.81356 6.94181 5.81797 6.93523 5.82317C6.92289 5.83314 6.91358 5.84633 6.90832 5.86129C6.91226 5.84981 6.9186 5.8393 6.92693 5.83046C6.93525 5.82162 6.94536 5.81466 6.95658 5.81004ZM8.94466 5.86738C8.94577 5.87229 8.94745 5.87706 8.94968 5.88158C8.95196 5.88638 8.95476 5.89093 8.95801 5.89514C8.9533 5.88882 8.94949 5.88189 8.94669 5.87453L8.94466 5.86738ZM1.53371 6.03609H1.53393V6.03673L1.53371 6.03609ZM1.71075 6.08093L1.70701 6.09204L1.71075 6.09492L1.70701 6.09225L1.70573 6.09406L1.7068 6.09193C1.7084 6.08744 1.70925 6.08542 1.71075 6.08093ZM1.64924 6.2601V6.2617C1.64889 6.26783 1.6233 6.35645 1.57247 6.52758L1.57162 6.53057L1.57226 6.52769C1.62308 6.35649 1.64867 6.26786 1.64903 6.26181L1.64924 6.2601ZM12.3803 6.31509C12.3739 6.31844 12.3696 6.32922 12.3673 6.34745C12.3667 6.3515 12.3672 6.35583 12.3686 6.36017C12.3701 6.36451 12.3724 6.36876 12.3756 6.37265C12.3831 6.38169 12.3886 6.39058 12.3923 6.39934C12.396 6.40737 12.3979 6.41612 12.3978 6.42496C12.3977 6.4338 12.3957 6.44252 12.3918 6.45049C12.3875 6.45948 12.3817 6.46773 12.3748 6.47494C12.3714 6.47839 12.369 6.48242 12.3676 6.48664C12.3662 6.49086 12.366 6.49513 12.3669 6.49907C12.3682 6.50474 12.3703 6.5102 12.3732 6.5153H12.3729C12.3702 6.51019 12.3681 6.50473 12.3669 6.49907C12.3659 6.49515 12.3661 6.49088 12.3675 6.48666C12.3688 6.48244 12.3712 6.47841 12.3745 6.47494C12.3816 6.46774 12.3874 6.45949 12.3918 6.45049C12.3957 6.44252 12.3977 6.4338 12.3978 6.42496C12.3979 6.41612 12.396 6.40737 12.3923 6.39934C12.388 6.38965 12.3823 6.38066 12.3754 6.37265C12.3722 6.36876 12.3699 6.36451 12.3684 6.36017C12.367 6.35583 12.3665 6.3515 12.3671 6.34745C12.3694 6.32922 12.3739 6.31844 12.3803 6.31509ZM14.394 6.3625C14.3941 6.3625 14.3942 6.3625 14.3943 6.3625C14.3941 6.36264 14.3939 6.36278 14.3937 6.36293C14.3938 6.36278 14.3939 6.36264 14.394 6.3625ZM12.4532 6.46597C12.4569 6.46882 12.4607 6.47334 12.4644 6.47953C12.4665 6.48276 12.4677 6.48678 12.468 6.49129C12.4677 6.48677 12.4663 6.48273 12.4642 6.47953C12.4613 6.47444 12.4576 6.46985 12.4532 6.46597ZM12.4976 6.58396L12.4978 6.58417C12.5148 6.63293 12.5291 6.68187 12.5407 6.73099C12.576 6.87809 12.5873 7.02991 12.5743 7.18063L12.5519 7.44735L12.5741 7.18041C12.5872 7.02979 12.5758 6.87804 12.5407 6.73099C12.5289 6.6818 12.5146 6.63279 12.4976 6.58396ZM12.7081 6.62047L12.9136 6.81801L12.7081 6.62069V6.62047ZM1.55859 6.66927L1.5588 6.67194C1.55891 6.67259 1.55905 6.67323 1.55923 6.67386C1.55898 6.67324 1.55876 6.6726 1.55859 6.67194V6.66927ZM11.169 6.79484C11.174 6.79515 11.1786 6.79737 11.1821 6.80103V6.80125C11.1787 6.79755 11.174 6.79529 11.1691 6.79495C11.1641 6.79461 11.1593 6.79622 11.1557 6.79943C11.1593 6.79619 11.1641 6.79454 11.169 6.79484ZM10.8771 6.80584C10.8971 6.80561 10.9171 6.80679 10.9369 6.80936C10.9236 6.80879 10.9102 6.80773 10.897 6.80616C10.8712 6.80532 10.8453 6.80682 10.8198 6.81064C10.8072 6.81249 10.7949 6.81499 10.7826 6.81812C10.7705 6.82139 10.7585 6.82524 10.7467 6.82965C10.7703 6.82079 10.7948 6.81442 10.8198 6.81064C10.8387 6.80775 10.8579 6.80615 10.8771 6.80584ZM6.63091 6.82271V6.82613L6.63113 6.82719L6.6307 6.82613L6.63091 6.82271ZM6.51645 6.86051L6.51666 6.86179H6.51645C6.51624 6.86115 6.51656 6.86104 6.51645 6.86051ZM11.1007 6.87962C11.0865 6.88724 11.0735 6.89713 11.0625 6.90888C11.0694 6.90375 11.0758 6.89803 11.0817 6.89179C11.0877 6.88731 11.094 6.88325 11.1007 6.87962ZM13.2199 6.93493C13.3 6.96583 13.3733 6.99725 13.4397 7.02922C13.4397 7.02929 13.4397 7.02936 13.4397 7.02943C13.3678 6.99501 13.2944 6.96348 13.2199 6.93493ZM10.4769 6.94016C10.4386 6.97044 10.3985 6.99849 10.357 7.0242C10.3705 7.01477 10.3844 7.0058 10.3985 6.99729C10.4434 6.96597 10.4695 6.94693 10.4769 6.94016ZM10.7537 7.00092C10.7537 7.00088 10.7537 7.00096 10.7537 7.00092V7.00092ZM6.51805 7.03754C6.51812 7.03754 6.51819 7.03754 6.51826 7.03754C6.51819 7.03769 6.51812 7.03783 6.51805 7.03797C6.51805 7.03783 6.51805 7.03769 6.51805 7.03754ZM10.7278 7.07545C10.7065 7.10865 10.689 7.1441 10.6755 7.18116C10.6709 7.19353 10.6668 7.20607 10.6631 7.21874C10.6703 7.19344 10.6794 7.16871 10.6902 7.14475C10.701 7.12075 10.7136 7.09759 10.7278 7.07545ZM6.50161 7.07609C6.50268 7.08848 6.50538 7.10115 6.50972 7.1141C6.51218 7.12136 6.5124 7.13073 6.51036 7.14101L6.49659 7.20454C6.49588 7.2077 6.49599 7.2117 6.49691 7.21629C6.49595 7.2117 6.49572 7.20774 6.49638 7.20454L6.51015 7.14122C6.51218 7.13095 6.51196 7.12157 6.50951 7.11432C6.50533 7.10194 6.50267 7.08911 6.50161 7.07609ZM10.6792 7.09136H10.6795L10.6782 7.09285L10.6792 7.09136ZM9.41715 7.14934H9.41768L9.41651 7.14977L9.41715 7.14934ZM11.2101 7.16247C11.2102 7.16261 11.2103 7.16276 11.2104 7.1629H11.2101C11.2101 7.16276 11.2101 7.16261 11.2101 7.16247ZM10.3001 7.21298C10.3067 7.21281 10.3132 7.21483 10.3187 7.21874C10.3132 7.21491 10.3067 7.21296 10.3001 7.21319H10.2957L10.3001 7.21298ZM10.9635 7.30577C10.9636 7.30591 10.9636 7.30606 10.9637 7.30619C10.9638 7.30627 10.964 7.30634 10.9641 7.30641C10.9639 7.30641 10.9637 7.30641 10.9635 7.30641C10.9635 7.3062 10.9635 7.30598 10.9635 7.30577ZM8.18793 7.33535C8.18509 7.34054 8.17911 7.34449 8.16999 7.3472C8.17904 7.34435 8.18501 7.34033 8.18793 7.33535ZM8.14661 7.35585C8.14668 7.35585 8.14675 7.35585 8.14682 7.35585C8.14612 7.3573 8.1458 7.35891 8.14587 7.36053C8.14595 7.36215 8.14642 7.36374 8.14725 7.36514L8.14704 7.36492C8.14623 7.36354 8.14576 7.36197 8.14569 7.36037C8.14561 7.35877 8.14593 7.35728 8.14661 7.35585ZM9.24545 7.35809C9.24574 7.35815 9.24602 7.35822 9.2463 7.3583C9.24602 7.35829 9.24573 7.35829 9.24545 7.3583H9.2415L9.24545 7.35809ZM4.72377 7.36417C4.86472 7.36795 4.99032 7.39663 5.10059 7.45024C5.12422 7.43999 5.14369 7.44461 5.159 7.46412C5.16093 7.46651 5.16386 7.46878 5.16761 7.4708C5.17137 7.47281 5.17588 7.47454 5.18089 7.47586L5.21698 7.48515C5.22033 7.48598 5.22316 7.48858 5.2249 7.49244C5.22664 7.49631 5.22717 7.50114 5.22637 7.50597C5.21641 7.56235 5.23677 7.60286 5.28745 7.62749C5.3239 7.65881 5.36091 7.68906 5.3985 7.71825C5.41124 7.72786 5.41836 7.73718 5.41985 7.74622C5.42075 7.75096 5.42056 7.75585 5.4193 7.76051C5.41804 7.76517 5.41575 7.76948 5.41259 7.77313C5.41034 7.77615 5.40912 7.77976 5.40916 7.78334C5.4092 7.78691 5.41049 7.79022 5.4128 7.79267C5.43345 7.81402 5.44388 7.83997 5.44409 7.87051C5.4442 7.8802 5.4468 7.88925 5.45156 7.89656C5.4863 7.94863 5.50798 8.00829 5.51478 8.0705C5.52339 8.09008 5.53457 8.10795 5.5483 8.1241C5.55026 8.1265 5.55199 8.12996 5.55338 8.13429C5.55478 8.13861 5.55581 8.14372 5.55642 8.1493L5.57895 8.33296C5.58137 8.35182 5.58076 8.3661 5.57713 8.37578C5.55408 8.44114 5.52945 8.50594 5.50324 8.57011L5.46032 8.68735C5.41078 8.82332 5.32222 8.93419 5.19466 9.01996C5.18227 9.02829 5.17158 9.03891 5.16316 9.05125C5.13704 9.08855 5.10486 9.10763 5.06663 9.10848C5.05744 9.10839 5.04834 9.11029 5.03994 9.11403C4.92484 9.16849 4.81653 9.19198 4.71502 9.18451C4.68149 9.18209 4.66092 9.19411 4.6533 9.2206C4.65291 9.22215 4.65218 9.2236 4.65116 9.22483C4.65014 9.22606 4.64886 9.22702 4.64744 9.22764C4.64603 9.22826 4.64451 9.22852 4.64302 9.22839C4.64153 9.22826 4.64011 9.22774 4.63889 9.2269C4.58749 9.19458 4.5414 9.1829 4.50061 9.19187C4.45576 9.20148 4.41886 9.20543 4.38988 9.20372C4.36833 9.20241 4.34676 9.20131 4.32518 9.20041C4.25818 9.20114 4.19254 9.18152 4.13693 9.14414C4.1075 9.12475 4.07855 9.10464 4.05012 9.08381C4.02143 9.06086 3.99933 9.03073 3.98605 8.99647C3.98442 8.99252 3.98179 8.98903 3.97842 8.98632C3.97504 8.98362 3.97102 8.98179 3.96673 8.98099L3.91654 8.97181C3.90805 8.9702 3.90007 8.96476 3.89433 8.95664L3.73812 8.73134C3.73286 8.72387 3.73003 8.71497 3.73003 8.7059C3.73003 8.69683 3.73286 8.68803 3.73812 8.68073C3.74986 8.6645 3.7489 8.65148 3.73523 8.64165C3.68533 8.65639 3.66544 8.64194 3.67555 8.5983C3.67746 8.58933 3.6772 8.58003 3.6748 8.57118C3.67099 8.55795 3.66998 8.54408 3.67181 8.53044C3.67365 8.5168 3.6783 8.5037 3.68548 8.49195L3.73545 8.24188C3.72933 8.21717 3.7288 8.1914 3.73392 8.16646C3.73904 8.14152 3.74967 8.11804 3.76503 8.09773L3.79257 8.00622C3.85009 7.8037 3.96235 7.63902 4.12935 7.51217C4.1475 7.4822 4.1733 7.4612 4.20676 7.44917C4.29588 7.40895 4.4195 7.38215 4.5776 7.36877C4.62807 7.36449 4.67679 7.36296 4.72377 7.36417ZM10.4653 7.36941C10.4521 7.38265 10.4375 7.39461 10.4215 7.40528V7.40507C10.4375 7.39446 10.4521 7.38258 10.4653 7.36941ZM10.5703 7.37058L10.69 7.47469C10.6932 7.47751 10.697 7.47963 10.7012 7.48092C10.697 7.47967 10.6932 7.47768 10.69 7.4749L10.5703 7.37058ZM11.0807 7.41084L11.0818 7.41126C11.0818 7.41133 11.0818 7.41141 11.0818 7.41148L11.0807 7.41084ZM9.92177 7.41126C9.9111 7.41617 9.90042 7.4213 9.8907 7.42728C9.90138 7.42265 9.91183 7.4173 9.92177 7.41126ZM10.781 7.42482C10.7809 7.42504 10.7809 7.42525 10.7808 7.42546C10.7806 7.42582 10.7804 7.42618 10.7802 7.42653C10.7803 7.42618 10.7804 7.42582 10.7806 7.42546C10.7807 7.42525 10.7809 7.42504 10.781 7.42482ZM8.59059 7.42877C8.59066 7.42878 8.59073 7.42878 8.5908 7.42877C8.59096 7.42912 8.5911 7.42948 8.59123 7.42984C8.59103 7.42948 8.59082 7.42912 8.59059 7.42877ZM10.2667 7.42877C10.2561 7.43957 10.2464 7.45121 10.2377 7.46358C10.2209 7.48736 10.2085 7.51393 10.201 7.54206C10.1973 7.55634 10.1948 7.57092 10.1935 7.58563C10.197 7.54172 10.2123 7.49956 10.2377 7.46358C10.2463 7.45155 10.2559 7.43988 10.2667 7.42877ZM8.45776 7.4355C8.4602 7.43576 8.4626 7.4363 8.46491 7.4371C8.46058 7.43506 8.45569 7.43454 8.45103 7.43561C8.45325 7.43518 8.45552 7.43522 8.45776 7.4355ZM8.59208 7.44063C8.59204 7.44106 8.59197 7.44149 8.59187 7.44191H8.59166C8.59182 7.44149 8.59197 7.44106 8.59208 7.44063ZM10.5714 7.45029C10.5675 7.45235 10.5642 7.45538 10.5618 7.4591C10.5479 7.48044 10.538 7.50409 10.5324 7.52893C10.5305 7.53738 10.5291 7.54594 10.5282 7.55456C10.5301 7.5375 10.5339 7.5207 10.5395 7.50448C10.5451 7.48848 10.5526 7.47321 10.5619 7.45899C10.5643 7.45529 10.5675 7.45235 10.5714 7.45029ZM10.6329 7.4559C10.6411 7.45837 10.6486 7.46262 10.6549 7.46835C10.6612 7.47407 10.6662 7.48112 10.6694 7.489C10.6651 7.47858 10.6578 7.46967 10.6484 7.46337C10.6434 7.46047 10.6383 7.45797 10.6329 7.4559ZM8.7735 7.46177C8.78033 7.4654 8.78709 7.46818 8.79378 7.4701C8.80664 7.47392 8.82028 7.47422 8.83329 7.47095C8.82664 7.47093 8.82001 7.47168 8.81354 7.47319C8.80684 7.47302 8.8002 7.47205 8.79378 7.4701C8.78676 7.46806 8.77996 7.4652 8.7735 7.46177ZM9.62504 7.47544L9.62483 7.47618C9.60274 7.50269 9.58251 7.5307 9.56429 7.56C9.57333 7.54544 9.58288 7.5312 9.5929 7.51729C9.60294 7.5032 9.61358 7.4895 9.62483 7.47618H9.62461L9.62504 7.47544ZM8.40982 7.47672C8.4039 7.47881 8.39819 7.48142 8.39273 7.48451C8.38814 7.4871 8.38375 7.49003 8.3796 7.49327C8.37596 7.49621 8.37273 7.49962 8.36999 7.50341C8.36495 7.5105 8.36219 7.51895 8.36209 7.52765C8.3621 7.52095 8.3637 7.51434 8.36674 7.50837C8.36978 7.5024 8.37419 7.49722 8.3796 7.49327C8.38375 7.49003 8.38814 7.4871 8.39273 7.48451C8.39778 7.48174 8.40348 7.47914 8.40982 7.47672ZM10.4127 7.49466C10.4291 7.4944 10.4453 7.49833 10.4597 7.50608C10.4519 7.50407 10.4443 7.50116 10.4371 7.49743C10.4291 7.49558 10.4209 7.49464 10.4127 7.49466ZM10.4127 7.49466C10.4041 7.49466 10.3952 7.49572 10.3858 7.49786C10.3715 7.50186 10.3575 7.50686 10.3439 7.51281C10.3326 7.51769 10.3219 7.5237 10.3118 7.53075C10.3208 7.52434 10.3315 7.51836 10.3439 7.51281C10.3562 7.50726 10.3702 7.50227 10.3858 7.49786C10.3947 7.49584 10.4037 7.49477 10.4127 7.49466ZM8.3418 7.50213C8.33694 7.50622 8.33114 7.50905 8.32493 7.51035C8.31695 7.51195 8.30876 7.51224 8.30069 7.51121L8.28595 7.5095C8.29151 7.51014 8.29503 7.51024 8.3009 7.51099C8.30889 7.51208 8.31701 7.51186 8.32493 7.51035C8.33108 7.50893 8.33684 7.50605 8.3418 7.50213ZM9.27983 7.50298C9.28734 7.51212 9.29591 7.52032 9.30535 7.52744C9.30089 7.52428 9.29668 7.52078 9.29275 7.51697C9.28828 7.51254 9.284 7.50791 9.27994 7.50309L9.27983 7.50298ZM8.04549 7.50341C8.04485 7.50405 8.044 7.50427 8.04336 7.50491V7.50469L8.04549 7.50341ZM8.74573 7.50384C8.74763 7.50365 8.74954 7.50379 8.75139 7.50427C8.74757 7.5034 8.74357 7.50394 8.74018 7.5058C8.73678 7.50765 8.73424 7.51068 8.73303 7.5143C8.73392 7.51154 8.73559 7.50909 8.73786 7.50724C8.74013 7.50539 8.74279 7.50421 8.74573 7.50384ZM10.8948 7.50491L10.8955 7.50555L10.894 7.50512L10.8948 7.50491ZM8.11436 7.50512C8.13265 7.5051 8.15051 7.51061 8.16562 7.52092C8.14751 7.50812 8.12523 7.50267 8.10326 7.50565C8.09578 7.50665 8.08806 7.50843 8.08009 7.51099C8.09112 7.50736 8.10275 7.50538 8.11436 7.50512ZM9.40775 7.50619H9.40796L9.40754 7.50683L9.40775 7.50619ZM9.21299 7.52477C9.22334 7.5266 9.23303 7.53113 9.24107 7.5379C9.24513 7.54132 9.2488 7.54534 9.25207 7.54997C9.2555 7.55497 9.2585 7.56026 9.26104 7.56577C9.26382 7.57175 9.2662 7.5783 9.26819 7.58542C9.26631 7.5787 9.26392 7.57213 9.26104 7.56577C9.2585 7.56026 9.2555 7.55497 9.25207 7.54997C9.2459 7.54114 9.2376 7.53402 9.22794 7.52925C9.22316 7.52712 9.21814 7.52568 9.21299 7.52477ZM9.38874 7.52391C9.37711 7.53144 9.36608 7.53987 9.35575 7.54911C9.32488 7.57669 9.30149 7.61162 9.28773 7.65066H9.28763C9.29254 7.6372 9.29838 7.6245 9.30514 7.61254C9.32512 7.57644 9.35387 7.54596 9.38874 7.52391ZM8.25232 7.53299C8.2545 7.53234 8.2567 7.53234 8.25873 7.53299C8.2556 7.53197 8.25208 7.53252 8.2489 7.5345C8.24572 7.53649 8.24312 7.53977 8.24164 7.54367C8.24264 7.54106 8.24414 7.53871 8.24601 7.53684C8.24788 7.53497 8.25005 7.53364 8.25232 7.53299ZM8.36764 7.57944C8.3685 7.58463 8.36787 7.58996 8.36582 7.59481C8.36789 7.58993 8.36852 7.58456 8.36764 7.57933V7.57944ZM8.89864 7.58211C8.89893 7.58223 8.89922 7.58237 8.89949 7.58253C8.89921 7.58245 8.89893 7.58237 8.89864 7.58232H8.89714L8.89864 7.58211ZM6.50471 7.64584C6.50808 7.64945 6.51215 7.65236 6.51666 7.65439H6.51645C6.51197 7.65234 6.50804 7.64945 6.50471 7.64584ZM8.49032 7.63763L8.48242 7.64361C8.48499 7.64147 8.48762 7.63955 8.49032 7.63763ZM8.26802 7.71077C8.26372 7.71615 8.26079 7.72249 8.25947 7.72924C8.25816 7.73606 8.25852 7.7431 8.26054 7.74975C8.26286 7.75777 8.2665 7.76535 8.27133 7.77217C8.27723 7.78128 8.28314 7.78911 8.28905 7.79566C8.28254 7.78825 8.27654 7.7804 8.27111 7.77217C8.26633 7.76534 8.26283 7.75776 8.26054 7.74975C8.25852 7.7431 8.25816 7.73606 8.25947 7.72924C8.26079 7.72249 8.26372 7.71615 8.26802 7.71077ZM8.62924 7.71301L8.62839 7.71654C8.62503 7.73122 8.61749 7.74452 8.60671 7.75476H8.6065C8.61728 7.74452 8.62482 7.73122 8.62817 7.71654L8.62924 7.71301ZM10.1259 7.74248C10.1238 7.74921 10.123 7.7563 10.1236 7.76334C10.1242 7.77038 10.1262 7.77723 10.1295 7.78349C10.123 7.77075 10.1218 7.75613 10.1259 7.74248ZM13.4942 7.73928C13.4941 7.75103 13.49 7.82381 13.4818 7.95764L13.4817 7.95785C13.49 7.82403 13.4941 7.75117 13.4942 7.73928ZM6.59877 7.75583C6.59892 7.75601 6.59906 7.75619 6.5992 7.75637C6.59913 7.75637 6.59906 7.75637 6.59899 7.75637C6.59892 7.75619 6.59884 7.75601 6.59877 7.75583ZM9.64832 7.76288C9.63114 7.81324 9.61023 7.86224 9.58575 7.90948C9.60292 7.85912 9.62384 7.81012 9.64832 7.76288ZM9.44651 7.77484C9.41337 7.82011 9.38543 7.86896 9.36322 7.92048C9.3529 7.97807 9.3418 7.98045 9.32991 7.92764C9.33567 7.92881 9.34162 7.92878 9.34737 7.92755C9.35312 7.92632 9.35855 7.92391 9.36333 7.92048C9.38566 7.86901 9.41355 7.82024 9.44651 7.77484ZM8.26108 7.81104C8.25594 7.80979 8.25057 7.80992 8.24551 7.81142C8.24044 7.81292 8.23587 7.81573 8.23225 7.81958C8.19528 7.85871 8.16063 7.89996 8.12846 7.94312C8.16067 7.89999 8.19536 7.85878 8.23235 7.81968C8.23597 7.81584 8.24055 7.81303 8.24562 7.81153C8.25068 7.81002 8.25605 7.80989 8.26118 7.81114L8.26108 7.81104ZM8.78938 7.82713C8.7892 7.83159 8.7899 7.83622 8.79144 7.84072L8.80895 7.89069V7.89133L8.80873 7.89069L8.79144 7.84072C8.7899 7.83622 8.7892 7.83159 8.78938 7.82713ZM8.31532 7.84296C8.31666 7.84644 8.31738 7.85013 8.31745 7.85385C8.31739 7.85817 8.31667 7.86246 8.31532 7.86656C8.31668 7.86242 8.3174 7.8581 8.31745 7.85375C8.31736 7.85009 8.31663 7.84637 8.31532 7.84296ZM9.1879 7.85909L9.17914 7.87275C9.18227 7.86805 9.18519 7.86357 9.1879 7.85909ZM8.96324 7.86015C8.94255 7.87484 8.92481 7.89327 8.91092 7.9145C8.90615 7.92205 8.89949 7.9465 8.89095 7.98786C8.89942 7.94657 8.90601 7.92212 8.9107 7.9145C8.92465 7.89322 8.94247 7.87485 8.96324 7.86015ZM8.3339 7.86282H8.33411C8.33124 7.86542 8.32924 7.86893 8.32835 7.87291C8.3292 7.86893 8.33107 7.86545 8.3339 7.86282ZM8.89234 7.86763C8.87644 7.91403 8.85527 7.95846 8.82923 8.00003C8.82129 8.01266 8.8115 8.02404 8.80019 8.03377C8.80579 8.02903 8.811 8.02385 8.81578 8.01829C8.82069 8.01267 8.82518 8.00658 8.82923 8.00003C8.85503 7.95833 8.87619 7.91393 8.89234 7.86763ZM8.7547 7.8845C8.76357 7.88467 8.77236 7.88621 8.78076 7.88909C8.77497 7.88727 8.76904 7.88595 8.76303 7.88514C8.75772 7.88447 8.75233 7.88447 8.74702 7.88514C8.73697 7.88664 8.72756 7.89097 8.71989 7.89763C8.72955 7.88922 8.7419 7.88456 8.7547 7.8845ZM8.48029 7.95476C8.4781 7.96387 8.47311 7.97193 8.46609 7.97771H8.46587C8.47298 7.97196 8.47804 7.9639 8.48029 7.95476ZM8.30784 7.96351C8.29174 7.97766 8.27756 7.99385 8.26567 8.01167C8.27268 8.00383 8.2791 7.99547 8.28489 7.98668C8.29193 7.97857 8.29959 7.97084 8.30784 7.96351ZM6.5771 8.00505C6.57333 8.01822 6.56834 8.02662 6.56215 8.03025C6.56834 8.02683 6.57333 8.01843 6.5771 8.00505ZM7.95398 8.06004C7.93909 8.06523 7.92359 8.06846 7.90786 8.06965C7.90749 8.06977 7.90714 8.06991 7.90679 8.07008C7.90713 8.06984 7.90749 8.06963 7.90786 8.06944C7.92451 8.06815 7.93996 8.06502 7.95398 8.06004ZM8.4159 8.02373H8.41612L8.41174 8.02854L8.4159 8.02373ZM6.60956 8.04925L6.64116 8.07168C6.64899 8.08022 6.65611 8.08926 6.66252 8.0988C6.65594 8.08939 6.64873 8.08044 6.64095 8.072C6.6307 8.06418 6.62016 8.0566 6.60956 8.04925ZM8.84376 8.05481C8.83599 8.05944 8.82867 8.06476 8.82187 8.07072C8.82721 8.0658 8.8345 8.0605 8.84376 8.05481ZM10.0382 8.09282L10.0365 8.09367C10.0354 8.09399 10.035 8.09389 10.034 8.09431L10.0365 8.09346L10.0382 8.09282ZM9.05987 8.09634L9.05379 8.10617C9.05592 8.10296 9.05795 8.09969 9.05987 8.09634ZM9.29531 8.17205L9.30033 8.22757V8.22981L9.30012 8.22757L9.29531 8.17205ZM8.8192 8.15624C8.80652 8.16292 8.79419 8.17022 8.78225 8.17813C8.79364 8.17045 8.80603 8.16315 8.8192 8.15624ZM8.11928 8.1681C8.11185 8.18193 8.10266 8.19475 8.09194 8.20622C8.09656 8.19997 8.10151 8.19398 8.10678 8.18828C8.11134 8.18194 8.1155 8.17529 8.11928 8.1681ZM8.58247 8.17931L8.57874 8.18518C8.57866 8.18518 8.57859 8.18518 8.57852 8.18518L8.58247 8.17931ZM8.30197 8.18326L8.2993 8.1886C8.29327 8.19862 8.28657 8.20822 8.27923 8.21732L8.27816 8.21892C8.27859 8.21839 8.27859 8.21786 8.27901 8.21732C8.29005 8.20266 8.29674 8.19305 8.29909 8.18849L8.30197 8.18326ZM8.95011 8.28587C8.94256 8.31363 8.93473 8.34118 8.92661 8.36852C8.9096 8.42497 8.92961 8.46472 8.98662 8.48779C8.9909 8.48953 8.99474 8.49214 8.99791 8.49545C9.00107 8.49877 9.00349 8.50271 9.00499 8.50701C9.02563 8.56353 9.01631 8.57566 8.97701 8.54342C8.92576 8.50163 8.90974 8.51302 8.92896 8.57759C8.95139 8.65375 8.96164 8.7317 8.95972 8.81143C8.95951 8.8203 8.96227 8.82927 8.96762 8.83705C8.99887 8.88268 9.00972 8.93429 9.00018 8.99188C8.99734 9.00968 9.00616 9.05452 9.02666 9.12642C9.02956 9.13655 9.03504 9.14461 9.04193 9.14884C9.05638 9.15781 9.06706 9.15386 9.07397 9.13699C9.07762 9.12612 9.07828 9.11446 9.07589 9.10325C9.06142 9.01447 9.05758 8.92428 9.06446 8.8346C9.05194 8.70568 9.04094 8.56047 9.03147 8.39895C9.03071 8.3848 9.02669 8.37103 9.01972 8.35869C9.00321 8.32901 8.99947 8.30676 9.00851 8.29196C9.07884 8.28598 9.14092 8.31392 9.19473 8.37578C9.21502 8.39884 9.24324 8.4056 9.27941 8.39607C9.28152 8.39551 9.28371 8.3953 9.28583 8.39546C9.28796 8.39561 9.28998 8.39612 9.29179 8.39695C9.2936 8.39779 9.29515 8.39893 9.29636 8.40032C9.29757 8.4017 9.29841 8.40331 9.29884 8.40503C9.30042 8.41205 9.30056 8.41932 9.29926 8.42639C9.29706 8.43712 9.29728 8.44678 9.29991 8.45383C9.36796 8.64411 9.39654 8.83866 9.38565 9.03747C9.37611 9.21301 9.37066 9.30662 9.36931 9.3183C9.3581 9.41486 9.32265 9.50701 9.26627 9.5862C9.23488 9.63033 9.19252 9.66198 9.13921 9.68112C9.09076 9.69867 9.03841 9.70255 8.9879 9.69234C8.92007 9.67924 8.86618 9.64635 8.82624 9.59367C8.79336 9.55046 8.76189 9.48772 8.73185 9.40543C8.70684 9.33768 8.69555 9.26563 8.69865 9.19347C8.67943 9.09538 8.66056 8.99715 8.64205 8.89877L8.65465 8.80748C8.65515 8.80381 8.65465 8.79975 8.65317 8.79558C8.6517 8.79142 8.64929 8.78724 8.64611 8.78334C8.62689 8.75978 8.6259 8.73441 8.64312 8.70721C8.67252 8.69468 8.68263 8.67034 8.67345 8.63418C8.66399 8.59661 8.65922 8.55802 8.65925 8.51929C8.65925 8.47942 8.67181 8.44458 8.69694 8.41475C8.76093 8.33844 8.84532 8.29548 8.95011 8.28587ZM5.73378 8.37247L5.73121 8.38603C5.73214 8.38154 5.73299 8.37702 5.73378 8.37247ZM9.7914 8.41774C9.772 8.41798 9.75269 8.42041 9.73385 8.425C9.66665 8.44137 9.59831 8.45173 9.52884 8.45607C9.47296 8.46846 9.45886 8.49508 9.48655 8.53594C9.48896 8.53945 9.49231 8.54232 9.49631 8.5443C9.50031 8.54627 9.50485 8.54729 9.50951 8.54726C9.61251 8.54762 9.7142 8.53626 9.81457 8.5132C9.86105 8.51932 9.89971 8.50565 9.93053 8.4722C9.95068 8.45027 9.94587 8.43717 9.91611 8.4329L9.82429 8.41977C9.8134 8.41821 9.8024 8.4176 9.7914 8.41774ZM9.43103 8.75516C9.43139 8.75522 9.43174 8.75529 9.4321 8.75537C9.43144 8.75547 9.4308 8.75562 9.43017 8.7558C9.43045 8.75557 9.43073 8.75536 9.43103 8.75516ZM13.3411 9.00373C13.3214 9.08648 13.3016 9.16827 13.2802 9.24334H13.28C13.3014 9.16827 13.3214 9.08648 13.3411 9.00373ZM8.60938 9.0331C8.61963 9.03281 8.63195 9.03776 8.64633 9.04794C8.64806 9.04913 8.64953 9.05067 8.65063 9.05246C8.65173 9.05425 8.65244 9.05626 8.65271 9.05834C8.65298 9.06043 8.65281 9.06255 8.65221 9.06457C8.65161 9.06658 8.65058 9.06845 8.64921 9.07004C8.61967 9.10635 8.59785 9.10848 8.58375 9.07645C8.58182 9.07204 8.5809 9.06733 8.58105 9.06269C8.58119 9.05806 8.58241 9.05363 8.58461 9.04975C8.59087 9.03893 8.59913 9.03338 8.60938 9.0331ZM11.7918 9.20063C11.7593 9.23893 11.7262 9.27576 11.6923 9.31114H11.6921C11.726 9.27576 11.7592 9.23893 11.7918 9.20063ZM4.49346 9.33453L4.49623 9.33474C4.49527 9.33453 4.49442 9.33485 4.49346 9.33474L4.4862 9.33495L4.49346 9.33453ZM11.5347 9.46501C11.4343 9.55767 11.3262 9.64178 11.2117 9.71647C11.152 9.75562 11.088 9.79441 11.0198 9.83285V9.83264C11.085 9.79613 11.149 9.75742 11.2116 9.71657C11.3261 9.64185 11.4343 9.55771 11.5347 9.46501ZM13.144 9.6761C13.1485 9.6939 13.16 9.70906 13.1785 9.72159V9.72181C13.1617 9.71142 13.1494 9.69511 13.144 9.6761ZM13.0896 9.78224H13.0898C13.0799 9.79498 13.0722 9.80986 13.0667 9.82687C13.0612 9.84396 13.058 9.86314 13.0571 9.88443C13.0571 9.88485 13.0564 9.88581 13.0564 9.88624L13.0568 9.88443C13.0579 9.86307 13.0612 9.84396 13.0667 9.82687C13.0721 9.80986 13.0797 9.79491 13.0896 9.78224ZM6.99727 9.84225C7.05762 9.87025 7.1144 9.90538 7.1664 9.94689V9.94721C7.11448 9.9055 7.05769 9.87026 6.99727 9.84225ZM11.3524 10.0576C11.2779 10.1163 11.1989 10.1689 11.1161 10.215V10.2148C11.1957 10.171 11.2744 10.1186 11.3524 10.0576ZM6.97837 9.86403C6.99445 9.86482 6.99232 9.88147 6.97196 9.914C6.86767 10.0787 6.81051 10.1808 6.80048 10.2201C6.78414 10.2885 6.74445 10.3491 6.68825 10.3914C6.67708 10.4008 6.66318 10.4062 6.64864 10.407C6.61682 10.4083 6.61091 10.3895 6.63091 10.3505C6.66508 10.3128 6.68932 10.2696 6.70363 10.221C6.73609 10.1121 6.77734 10.0065 6.82738 9.90418C6.8345 9.87165 6.85668 9.86033 6.89391 9.87022C6.91426 9.87584 6.9359 9.87525 6.95605 9.86852C6.96315 9.86567 6.97071 9.86422 6.97837 9.86403ZM13.0335 9.95928C13.0181 9.99345 12.9955 10.0354 12.9645 10.0864C12.9621 10.0904 12.9608 10.0948 12.9608 10.0992C12.9608 10.1035 12.9621 10.1076 12.9645 10.1109C12.9799 10.1315 13.0021 10.1365 13.031 10.1258C13.002 10.1365 12.9798 10.1316 12.9643 10.1111C12.9618 10.1078 12.9605 10.1037 12.9605 10.0993C12.9605 10.095 12.9618 10.0905 12.9643 10.0866C12.9951 10.0357 13.0182 9.9933 13.0335 9.95928ZM5.74904 10.084C5.77595 10.0858 5.77951 10.096 5.75972 10.1144C5.70617 10.1643 5.66879 10.2291 5.65241 10.3004C5.64935 10.3132 5.63547 10.3285 5.61077 10.3461C5.60323 10.3513 5.59799 10.359 5.59614 10.3678C5.57792 10.4516 5.53591 10.5283 5.47516 10.5887C5.47191 10.592 5.46792 10.5943 5.46366 10.5953C5.4594 10.5964 5.45505 10.5962 5.45114 10.5947C5.41569 10.5818 5.4054 10.554 5.42028 10.5113C5.43459 10.4698 5.45851 10.4445 5.49203 10.4354C5.49375 10.4349 5.49535 10.434 5.4967 10.4329C5.49806 10.4318 5.49914 10.4304 5.49984 10.4289C5.50055 10.4274 5.50087 10.4257 5.50077 10.4242C5.50068 10.4226 5.50017 10.4211 5.49929 10.4198L5.4883 10.4024C5.48552 10.3983 5.48354 10.394 5.48249 10.3897C5.48144 10.3854 5.48134 10.3813 5.48221 10.3776C5.49488 10.3222 5.51531 10.2697 5.5435 10.2201C5.57859 10.122 5.64718 10.0767 5.74904 10.084ZM9.36621 10.2076C9.42053 10.2162 9.47488 10.2245 9.52926 10.2327C9.53937 10.2343 9.5713 10.2349 9.62504 10.2345C9.5713 10.235 9.53937 10.2344 9.52926 10.2329C9.47488 10.2246 9.42053 10.2162 9.36621 10.2076ZM12.8704 10.2581C12.86 10.2825 12.8531 10.3082 12.85 10.3345L12.8496 10.3353L12.8498 10.3345C12.8536 10.3058 12.8604 10.2804 12.8704 10.2581ZM1.70263 10.4669L1.75527 10.5171V10.5174L1.70274 10.4671C1.70274 10.467 1.70263 10.467 1.70263 10.4669ZM4.14964 10.4721C4.1685 10.4732 4.17185 10.485 4.15967 10.5076C4.12686 10.5515 4.09748 10.5979 4.0718 10.6464C4.047 10.6945 4.01768 10.7402 3.98424 10.7828C3.92423 10.8566 3.86724 10.9328 3.8134 11.0112C3.79966 11.024 3.78973 11.0244 3.7836 11.0124C3.78195 11.0089 3.78127 11.0047 3.7816 11.0001C3.78193 10.9954 3.78328 10.9905 3.78553 10.9857C3.86454 10.814 3.9773 10.6464 4.1238 10.4828C4.12698 10.4792 4.13096 10.4764 4.13543 10.4746C4.1399 10.4727 4.14475 10.4719 4.14964 10.4721ZM10.303 10.5165C10.1209 10.5557 9.93609 10.5813 9.75018 10.5929L9.79161 10.6121C9.79588 10.6141 9.79952 10.6168 9.80206 10.6199C9.80459 10.6229 9.8059 10.6262 9.80581 10.6292C9.80517 10.6667 9.79197 10.7071 9.7662 10.7505C9.74207 10.7914 9.72449 10.8504 9.71345 10.9273H9.71324L9.6874 11.0255C9.68621 11.0298 9.68398 11.0336 9.68095 11.0366C9.67793 11.0395 9.67424 11.0414 9.67031 11.0421L9.57325 11.0588C9.56876 11.0595 9.56424 11.0591 9.56021 11.0576C9.55619 11.0561 9.55282 11.0535 9.55051 11.0502C9.52916 11.0193 9.52624 10.9855 9.54176 10.9488H9.54197C9.54662 10.9397 9.55365 10.932 9.56232 10.9265C9.57099 10.9211 9.58097 10.9181 9.59119 10.9179C9.59264 10.9179 9.59406 10.9175 9.59531 10.9167C9.59657 10.916 9.59761 10.915 9.59835 10.9137C9.59908 10.9125 9.59949 10.9111 9.59953 10.9096C9.59957 10.9081 9.59923 10.9067 9.59856 10.9054C9.58454 10.8753 9.58924 10.8415 9.61266 10.8041C9.64484 10.7525 9.66778 10.6957 9.68046 10.6362C9.68504 10.6232 9.69347 10.6118 9.70464 10.6037C9.71581 10.5955 9.7292 10.5909 9.74303 10.5905L9.75018 10.5929C9.93611 10.5814 10.1209 10.5559 10.303 10.5165ZM11.2503 10.5988C11.2563 10.5985 11.2649 10.6022 11.276 10.61C11.285 10.6162 11.2941 10.6195 11.3017 10.6192L11.355 10.6168C11.3568 10.6167 11.3586 10.617 11.3602 10.6176C11.3619 10.6182 11.3634 10.6192 11.3646 10.6204C11.3658 10.6215 11.3667 10.623 11.3672 10.6245C11.3677 10.6261 11.3679 10.6277 11.3676 10.6293C11.3597 10.6724 11.3341 10.7029 11.2909 10.7209C11.2881 10.7221 11.2852 10.7226 11.2823 10.7226C11.2793 10.7226 11.2764 10.7219 11.2737 10.7207C11.271 10.7195 11.2686 10.7178 11.2666 10.7156C11.2646 10.7134 11.263 10.7109 11.262 10.7081C11.2357 10.636 11.2318 10.5996 11.2503 10.5988ZM8.16305 10.6898L8.16999 10.6932L8.17224 10.6949L8.16999 10.6934L8.16305 10.6898ZM11.2171 10.714C11.2192 10.7124 11.2222 10.7125 11.2261 10.7142C11.2287 10.7152 11.231 10.7175 11.2326 10.7207C11.2342 10.7238 11.235 10.7278 11.235 10.7319C11.235 10.7713 11.2625 10.7874 11.3173 10.7802C11.3203 10.7798 11.3233 10.7801 11.326 10.7811C11.3288 10.782 11.3314 10.7836 11.3334 10.7856C11.3355 10.7877 11.3371 10.7902 11.338 10.793C11.3389 10.7957 11.3392 10.7987 11.3388 10.8015C11.3212 10.9186 11.2948 11.0341 11.2598 11.1472C11.2438 11.199 11.2166 11.1953 11.1782 11.136C11.1655 11.1163 11.1611 11.0925 11.1659 11.0698C11.1715 11.0434 11.1781 11.0054 11.1858 10.9557C11.175 10.8832 11.1831 10.8091 11.2093 10.7407C11.2111 10.7352 11.2124 10.7295 11.2129 10.7238C11.2134 10.7189 11.2148 10.7156 11.2171 10.714ZM8.34874 10.7789L8.35536 10.7811C8.35322 10.7803 8.35087 10.7799 8.34874 10.7789ZM9.25122 10.9021C9.2715 10.9035 9.27898 10.9043 9.30033 10.9056L9.31026 10.9078C9.30695 10.907 9.30343 10.9067 9.30012 10.9059C9.2699 10.9037 9.2793 10.904 9.25122 10.9021ZM9.44149 10.9314L9.45025 10.9325V10.9328L9.44149 10.9314ZM12.4687 10.9649C12.4599 10.9794 12.4494 10.9929 12.4374 11.0049C12.4152 11.0268 12.396 11.0514 12.3803 11.0783H12.3801C12.3927 11.0555 12.4117 11.0311 12.4372 11.0049C12.4493 10.9929 12.4599 10.9795 12.4687 10.9649ZM7.40462 11.015C7.42633 11.0123 7.45128 11.0157 7.47947 11.0249C7.4812 11.0255 7.48278 11.0264 7.48411 11.0277C7.48545 11.0289 7.48649 11.0304 7.48718 11.0321C7.48787 11.0338 7.48819 11.0356 7.48811 11.0374C7.48803 11.0392 7.48756 11.041 7.48673 11.0426C7.43423 11.1413 7.38676 11.2426 7.3445 11.3461C7.28777 11.4853 7.20519 11.5989 7.09678 11.6869C7.06631 11.7115 7.05478 11.7045 7.06219 11.666C7.07301 11.6091 7.09739 11.5732 7.13533 11.5584C7.13711 11.5577 7.13874 11.5566 7.14012 11.5553C7.14151 11.554 7.14261 11.5525 7.14338 11.5508C7.14415 11.5491 7.14456 11.5473 7.14459 11.5455C7.14462 11.5437 7.14426 11.5419 7.14355 11.5402L7.12753 11.4975C7.12406 11.4889 7.12406 11.4795 7.12753 11.4712C7.1881 11.3259 7.26251 11.1867 7.34974 11.0556C7.36611 11.0309 7.3844 11.0173 7.40462 11.015ZM8.54201 11.1334C8.56244 11.1296 8.56784 11.1441 8.55824 11.1772C8.54047 11.238 8.51933 11.2978 8.49492 11.3563C8.48901 11.3704 8.47299 11.4151 8.44687 11.4905C8.43113 11.5359 8.40998 11.5792 8.38387 11.6195C8.35347 11.667 8.33222 11.697 8.32012 11.7098C8.29276 11.7377 8.2579 11.7571 8.21975 11.7657C8.18615 11.7739 8.1779 11.763 8.19498 11.7329C8.20096 11.7229 8.21231 11.7131 8.22904 11.7036C8.23297 11.7013 8.23634 11.6983 8.23889 11.6947C8.24144 11.6911 8.24311 11.6871 8.24378 11.6829C8.26098 11.5903 8.29527 11.5018 8.34489 11.4218C8.36034 11.3673 8.38301 11.3161 8.41291 11.2684C8.43042 11.212 8.46495 11.1703 8.51649 11.1432C8.52457 11.1389 8.53308 11.1356 8.54201 11.1334ZM10.6476 11.2172C10.563 11.2719 10.4761 11.3229 10.3871 11.3701C10.3769 11.416 10.3637 11.4611 10.3476 11.5052C10.3327 11.5458 10.3217 11.5908 10.3145 11.6399C10.2991 11.745 10.2614 11.8455 10.2041 11.9349C10.1737 11.9827 10.149 11.98 10.1301 11.9267C10.11 11.87 10.1156 11.7996 10.147 11.7156C10.1673 11.661 10.1846 11.6054 10.199 11.5489V11.5486C10.2249 11.474 10.2395 11.424 10.243 11.3986C10.2521 11.3321 10.2991 11.2919 10.3839 11.278C10.3873 11.2774 10.3908 11.2778 10.3941 11.2791C10.3973 11.2804 10.4002 11.2825 10.4024 11.2853C10.4047 11.2881 10.4062 11.2915 10.4069 11.2951C10.4076 11.2987 10.4074 11.3025 10.4064 11.3061L10.3871 11.3701C10.4762 11.3229 10.5629 11.2719 10.6476 11.2172ZM2.25371 11.2389C2.27138 11.2364 2.28936 11.2373 2.30667 11.2417C2.35486 11.2535 2.38038 11.2596 2.38323 11.26V11.2602C2.35763 11.2544 2.33211 11.2483 2.30667 11.2419C2.28933 11.2377 2.2714 11.2367 2.25371 11.2389ZM2.51104 11.31C2.534 11.3217 2.55866 11.335 2.57404 11.3395V11.3397C2.55856 11.3352 2.5341 11.3219 2.51104 11.31ZM5.9531 11.3751C5.95863 11.3752 5.96407 11.3766 5.96896 11.3792C5.97385 11.3818 5.97807 11.3855 5.98126 11.39C5.98445 11.3946 5.98654 11.3998 5.98734 11.4053C5.98814 11.4107 5.98764 11.4163 5.98588 11.4216C5.96892 11.4728 5.94076 11.5196 5.90344 11.5586C5.85015 11.614 5.80744 11.6787 5.77745 11.7495C5.77432 11.7569 5.77391 11.7664 5.77627 11.7765C5.78581 11.8159 5.76307 11.8499 5.70804 11.8784C5.67266 11.8968 5.65195 11.8862 5.6459 11.8467C5.64099 11.8146 5.65088 11.7709 5.67558 11.7154C5.74577 11.5561 5.79453 11.4623 5.82187 11.4343C5.86152 11.3937 5.90519 11.374 5.9531 11.3751ZM10.0936 11.5317C10.0816 11.5343 10.07 11.5382 10.059 11.5434V11.5432C10.0705 11.5379 10.082 11.5341 10.0936 11.5317ZM3.19217 11.5509C3.221 11.5643 3.24993 11.5771 3.27759 11.5931V11.5933C3.24983 11.5773 3.221 11.5643 3.19217 11.5509ZM9.29969 11.768C9.35394 11.7683 9.36358 11.8019 9.32863 11.869H9.32884C9.29082 11.9405 9.24775 12.0093 9.19996 12.0747C9.17968 12.1025 9.15626 12.1444 9.1297 12.2003C9.10187 12.2596 9.06137 12.3121 9.01108 12.3541C9.00793 12.3567 9.00398 12.3582 8.99996 12.3583C8.99594 12.3583 8.99211 12.3569 8.98919 12.3543C8.96698 12.3345 8.96114 12.3092 8.97167 12.2784L9.19334 11.8116C9.19716 11.8035 9.20245 11.7963 9.20886 11.7906C9.21526 11.785 9.22262 11.7809 9.23039 11.7789C9.25294 11.7723 9.27623 11.7687 9.29969 11.768ZM4.57653 11.8608C4.60187 11.8568 4.60668 11.8751 4.59094 11.9154C4.55235 12.0172 4.49574 12.1113 4.42384 12.193C4.41451 12.2037 4.40241 12.2317 4.38753 12.2771C4.37657 12.2984 4.35301 12.3324 4.31685 12.3788C4.25748 12.455 4.23107 12.4401 4.23762 12.3342C4.30767 12.2091 4.35194 12.1205 4.37045 12.0683C4.40227 11.9782 4.46018 11.9129 4.54418 11.8723C4.5544 11.867 4.56528 11.8631 4.57653 11.8608ZM11.5939 11.9703C11.593 11.9735 11.5932 11.9769 11.5944 11.9799C11.5956 11.983 11.5977 11.9856 11.6005 11.9874C11.5945 11.9831 11.5923 11.9774 11.5939 11.9703ZM3.88376 12.0671C3.93003 12.0882 3.96221 12.1045 3.98029 12.1158C4.00506 12.1318 4.02812 12.1438 4.05161 12.157C4.02812 12.1438 4.00506 12.1319 3.98029 12.1161C3.94906 12.0979 3.91683 12.0816 3.88376 12.0671ZM3.17338 12.0777C3.30855 12.1649 3.44772 12.2496 3.59087 12.3319C3.44953 12.2508 3.31031 12.166 3.17338 12.0777ZM11.566 12.0911C11.566 12.0911 11.5661 12.0911 11.566 12.0911V12.0911ZM11.3303 12.1819H11.3305C11.2923 12.2187 11.2539 12.2601 11.2152 12.3062C11.2068 12.3166 11.2 12.3277 11.1946 12.3397H11.1943C11.1999 12.3277 11.2069 12.3165 11.2152 12.3062C11.2537 12.2601 11.2921 12.2187 11.3303 12.1819ZM4.47936 12.2931C4.49531 12.2989 4.51182 12.3029 4.52891 12.3051C4.57624 12.3107 4.60863 12.317 4.62607 12.324C4.60863 12.3169 4.57624 12.3107 4.52891 12.3053C4.51196 12.3032 4.49533 12.2991 4.47936 12.2931ZM8.80916 12.3003C8.75079 12.3422 8.69366 12.3661 8.63778 12.3718C8.69352 12.366 8.75065 12.3421 8.80916 12.3003ZM6.95231 12.3363C6.99054 12.3391 6.99762 12.3605 6.97356 12.4004C6.96146 12.4209 6.95416 12.4512 6.95167 12.4912V12.4915C6.94427 12.5232 6.92594 12.5513 6.89988 12.5709C6.89222 12.5761 6.88604 12.5832 6.88195 12.5915C6.82994 12.7008 6.75954 12.8004 6.67384 12.8858C6.67277 12.887 6.66444 12.8976 6.64885 12.9178C6.6349 12.9358 6.61753 12.9397 6.59675 12.9296C6.59138 12.9269 6.58667 12.9231 6.58292 12.9184C6.57916 12.9137 6.57645 12.9082 6.57497 12.9024C6.57349 12.8965 6.57326 12.8903 6.57431 12.8843C6.57536 12.8783 6.57765 12.8726 6.58105 12.8674L6.80165 12.5414C6.824 12.5166 6.84016 12.488 6.85013 12.4556C6.86444 12.4103 6.88978 12.3734 6.92615 12.3449C6.93392 12.3388 6.94325 12.3357 6.95231 12.3363ZM5.70057 12.3847C5.70897 12.3841 5.71829 12.3865 5.72726 12.3915C5.74171 12.3995 5.75666 12.4054 5.77211 12.4093C5.75638 12.4055 5.74122 12.3996 5.72705 12.3918C5.71815 12.3868 5.70892 12.3844 5.70057 12.3849V12.3847ZM5.82026 12.4146C5.92042 12.4333 6.02101 12.4493 6.12202 12.4627C6.21642 12.4551 6.31144 12.4616 6.40391 12.4821C6.43053 12.4878 6.46053 12.4895 6.49392 12.4873V12.4875C6.46385 12.49 6.43358 12.4882 6.40401 12.4822C6.31153 12.4618 6.21652 12.4553 6.12212 12.463C6.02108 12.4496 5.92042 12.4335 5.82026 12.4146ZM5.02424 12.4331C5.02595 12.4334 5.02763 12.4337 5.02926 12.4341V12.4344L5.02424 12.4331ZM9.58746 12.4769C9.62298 12.4771 9.62511 12.5116 9.59386 12.5803C9.59223 12.5838 9.58962 12.5872 9.58619 12.5901C9.58277 12.593 9.57859 12.5955 9.5739 12.5974C9.54855 12.6079 9.54044 12.6274 9.54955 12.656C9.56194 12.6953 9.5524 12.7265 9.52093 12.7497C9.51766 12.7521 9.51523 12.7555 9.51396 12.7593C9.5127 12.7631 9.51267 12.7672 9.51389 12.7709C9.53332 12.8326 9.51684 12.8866 9.46445 12.9329C9.43139 12.9603 9.39282 12.9802 9.35137 12.9913C9.35601 12.9024 9.37746 12.8151 9.41458 12.7342C9.42412 12.6627 9.44719 12.5967 9.48378 12.5363C9.49787 12.5134 9.51688 12.4973 9.54079 12.488C9.56001 12.4805 9.57557 12.4768 9.58746 12.4769ZM7.94897 12.4994C7.96783 12.4973 7.98733 12.4997 8.00748 12.5069C8.00691 12.5188 7.99559 12.5428 7.97353 12.5788C7.90057 12.6981 7.82557 12.8161 7.74855 12.9328C7.73146 12.9583 7.7179 12.9567 7.70786 12.928C7.69313 12.8871 7.69833 12.8468 7.72345 12.8073C7.76802 12.7041 7.82496 12.6084 7.8943 12.5201H7.89451C7.91195 12.5084 7.9301 12.5015 7.94897 12.4994ZM8.044 12.5194C8.03617 12.5295 8.02923 12.5335 8.02318 12.5315C8.02916 12.5337 8.0361 12.5296 8.044 12.5194ZM5.64109 12.5418C5.66288 12.5343 5.67555 12.5437 5.67911 12.5699C5.68637 12.6225 5.67213 12.6697 5.6364 12.7117C5.60244 12.7512 5.58087 12.7811 5.57169 12.8014C5.54606 12.8582 5.52133 12.9153 5.49748 12.9728C5.48602 13.0002 5.47267 13.0171 5.45744 13.0234C5.43715 13.032 5.41309 13.0306 5.38526 13.0192C5.38188 13.0178 5.3788 13.0158 5.3762 13.0132C5.3736 13.0107 5.37154 13.0076 5.37012 13.0042C5.3687 13.0009 5.36796 12.9973 5.36794 12.9936C5.36791 12.99 5.36861 12.9864 5.36999 12.983C5.43037 12.8332 5.51169 12.6927 5.61152 12.5657C5.61898 12.5551 5.62922 12.5469 5.64109 12.5418ZM10.7189 12.618H10.7191C10.7015 12.6369 10.6857 12.6574 10.6719 12.6792C10.6718 12.6792 10.6717 12.6792 10.6717 12.6792C10.6855 12.6574 10.7013 12.6369 10.7189 12.618ZM10.3231 12.8346C10.3233 12.8346 10.3234 12.8346 10.3235 12.8346H10.3231ZM4.34205 12.8808C4.34596 12.8856 4.3507 12.8898 4.35603 12.893V12.8932C4.35072 12.8899 4.34591 12.8857 4.34205 12.8808ZM6.74581 13.663C6.70715 13.6639 6.66864 13.668 6.6307 13.6754L6.63049 13.6752C6.66893 13.6678 6.70737 13.6638 6.74581 13.663Z" fill="#9842CE"/>
</g>
<defs>
<clipPath id="clip0_43_65">
<rect width="13.6674" height="13.6674" fill="white" transform="translate(0.961288 0.277832)"/>
</clipPath>
</defs>
</svg>
